<?xml version="1.0" encoding="UTF-8" standalone="no"?>
<!DOCTYPE svg PUBLIC "-//W3C//DTD SVG 1.1//EN"
 "http://www.w3.org/Graphics/SVG/1.1/DTD/svg11.dtd">
<!-- Generated by graphviz version 5.0.0 (20220707.1540)
 -->
<!-- Title: UmlClassDiagram Pages: 1 -->
<svg width="2333pt" height="1318pt"
 viewBox="0.00 0.00 2333.12 1317.60" xmlns="http://www.w3.org/2000/svg" xmlns:xlink="http://www.w3.org/1999/xlink">
<g id="graph0" class="graph" transform="scale(1 1) rotate(0) translate(4 1313.6)">
<title>UmlClassDiagram</title>
<polygon fill="white" stroke="transparent" points="-4,4 -4,-1313.6 2329.12,-1313.6 2329.12,4 -4,4"/>
<!-- 1 -->
<g id="node1" class="node">
<title>1</title>
<polygon fill="#f2f2f2" stroke="black" points="0,-511.1 0,-611.1 157.91,-611.1 157.91,-511.1 0,-511.1"/>
<text text-anchor="middle" x="78.96" y="-594.5" font-family="Times,serif" font-size="14.00">&lt;&lt;Struct&gt;&gt;</text>
<text text-anchor="middle" x="78.96" y="-577.7" font-family="Times,serif" font-size="14.00">Account</text>
<text text-anchor="middle" x="78.96" y="-560.9" font-family="Times,serif" font-size="14.00">libs/IexecLibCore_v5.sol</text>
<polyline fill="none" stroke="black" points="0,-552.7 157.91,-552.7 "/>
<text text-anchor="start" x="8" y="-536.1" font-family="Times,serif" font-size="14.00">stake: uint256</text>
<text text-anchor="start" x="8" y="-519.3" font-family="Times,serif" font-size="14.00">locked: uint256</text>
</g>
<!-- 0 -->
<g id="node10" class="node">
<title>0</title>
<polygon fill="#f2f2f2" stroke="black" points="586,-840.9 586,-899.3 743.91,-899.3 743.91,-840.9 586,-840.9"/>
<text text-anchor="middle" x="664.96" y="-882.7" font-family="Times,serif" font-size="14.00">&lt;&lt;Library&gt;&gt;</text>
<text text-anchor="middle" x="664.96" y="-865.9" font-family="Times,serif" font-size="14.00">IexecLibCore_v5</text>
<text text-anchor="middle" x="664.96" y="-849.1" font-family="Times,serif" font-size="14.00">libs/IexecLibCore_v5.sol</text>
</g>
<!-- 1&#45;&gt;0 -->
<g id="edge6" class="edge">
<title>1&#45;&gt;0</title>
<path fill="none" stroke="black" d="M86.75,-611.26C96.88,-658.39 119.27,-727.95 166.96,-766.8 228.21,-816.71 447.37,-846.85 573.6,-860.45"/>
<polygon fill="black" stroke="black" points="573.96,-860.49 580.35,-857.15 585.89,-861.76 579.5,-865.1 573.96,-860.49"/>
</g>
<!-- 2 -->
<g id="node2" class="node">
<title>2</title>
<polygon fill="#f2f2f2" stroke="black" points="175.89,-502.7 175.89,-619.5 354.03,-619.5 354.03,-502.7 175.89,-502.7"/>
<text text-anchor="middle" x="264.96" y="-602.9" font-family="Times,serif" font-size="14.00">&lt;&lt;Struct&gt;&gt;</text>
<text text-anchor="middle" x="264.96" y="-586.1" font-family="Times,serif" font-size="14.00">Category</text>
<text text-anchor="middle" x="264.96" y="-569.3" font-family="Times,serif" font-size="14.00">libs/IexecLibCore_v5.sol</text>
<polyline fill="none" stroke="black" points="175.89,-561.1 354.03,-561.1 "/>
<text text-anchor="start" x="183.89" y="-544.5" font-family="Times,serif" font-size="14.00">name: string</text>
<text text-anchor="start" x="183.89" y="-527.7" font-family="Times,serif" font-size="14.00">description: string</text>
<text text-anchor="start" x="183.89" y="-510.9" font-family="Times,serif" font-size="14.00">workClockTimeRef: uint256</text>
</g>
<!-- 2&#45;&gt;0 -->
<g id="edge7" class="edge">
<title>2&#45;&gt;0</title>
<path fill="none" stroke="black" d="M279.13,-619.54C293.21,-665.32 319.18,-727.98 362.96,-766.8 421.83,-819.01 508.44,-844.78 573.83,-857.38"/>
<polygon fill="black" stroke="black" points="573.98,-857.4 580.61,-854.56 585.78,-859.58 579.16,-862.42 573.98,-857.4"/>
</g>
<!-- 3 -->
<g id="node3" class="node">
<title>3</title>
<polygon fill="#f2f2f2" stroke="black" points="372,-502.7 372,-619.5 529.91,-619.5 529.91,-502.7 372,-502.7"/>
<text text-anchor="middle" x="450.96" y="-602.9" font-family="Times,serif" font-size="14.00">&lt;&lt;Struct&gt;&gt;</text>
<text text-anchor="middle" x="450.96" y="-586.1" font-family="Times,serif" font-size="14.00">Resource</text>
<text text-anchor="middle" x="450.96" y="-569.3" font-family="Times,serif" font-size="14.00">libs/IexecLibCore_v5.sol</text>
<polyline fill="none" stroke="black" points="372,-561.1 529.91,-561.1 "/>
<text text-anchor="start" x="380" y="-544.5" font-family="Times,serif" font-size="14.00">pointer: address</text>
<text text-anchor="start" x="380" y="-527.7" font-family="Times,serif" font-size="14.00">owner: address</text>
<text text-anchor="start" x="380" y="-510.9" font-family="Times,serif" font-size="14.00">price: uint256</text>
</g>
<!-- 3&#45;&gt;0 -->
<g id="edge8" class="edge">
<title>3&#45;&gt;0</title>
<path fill="none" stroke="black" d="M469.31,-619.62C484.86,-662.81 510.04,-721.97 543.96,-766.8 563.13,-792.14 589.63,-815.44 612.95,-833.38"/>
<polygon fill="black" stroke="black" points="613.12,-833.51 620.32,-833.92 622.71,-840.73 615.51,-840.32 613.12,-833.51"/>
</g>
<!-- 4 -->
<g id="node4" class="node">
<title>4</title>
<polygon fill="#f2f2f2" stroke="black" points="461.12,-0.5 461.12,-318.9 654.8,-318.9 654.8,-0.5 461.12,-0.5"/>
<text text-anchor="middle" x="557.96" y="-302.3" font-family="Times,serif" font-size="14.00">&lt;&lt;Struct&gt;&gt;</text>
<text text-anchor="middle" x="557.96" y="-285.5" font-family="Times,serif" font-size="14.00">Deal</text>
<text text-anchor="middle" x="557.96" y="-268.7" font-family="Times,serif" font-size="14.00">libs/IexecLibCore_v5.sol</text>
<polyline fill="none" stroke="black" points="461.12,-260.5 654.8,-260.5 "/>
<text text-anchor="start" x="469.12" y="-243.9" font-family="Times,serif" font-size="14.00">app: Resource</text>
<text text-anchor="start" x="469.12" y="-227.1" font-family="Times,serif" font-size="14.00">dataset: Resource</text>
<text text-anchor="start" x="469.12" y="-210.3" font-family="Times,serif" font-size="14.00">workerpool: Resource</text>
<text text-anchor="start" x="469.12" y="-193.5" font-family="Times,serif" font-size="14.00">trust: uint256</text>
<text text-anchor="start" x="469.12" y="-176.7" font-family="Times,serif" font-size="14.00">category: uint256</text>
<text text-anchor="start" x="469.12" y="-159.9" font-family="Times,serif" font-size="14.00">tag: bytes32</text>
<text text-anchor="start" x="469.12" y="-143.1" font-family="Times,serif" font-size="14.00">requester: address</text>
<text text-anchor="start" x="469.12" y="-126.3" font-family="Times,serif" font-size="14.00">beneficiary: address</text>
<text text-anchor="start" x="469.12" y="-109.5" font-family="Times,serif" font-size="14.00">callback: address</text>
<text text-anchor="start" x="469.12" y="-92.7" font-family="Times,serif" font-size="14.00">params: string</text>
<text text-anchor="start" x="469.12" y="-75.9" font-family="Times,serif" font-size="14.00">startTime: uint256</text>
<text text-anchor="start" x="469.12" y="-59.1" font-family="Times,serif" font-size="14.00">botFirst: uint256</text>
<text text-anchor="start" x="469.12" y="-42.3" font-family="Times,serif" font-size="14.00">botSize: uint256</text>
<text text-anchor="start" x="469.12" y="-25.5" font-family="Times,serif" font-size="14.00">workerStake: uint256</text>
<text text-anchor="start" x="469.12" y="-8.7" font-family="Times,serif" font-size="14.00">schedulerRewardRatio: uint256</text>
</g>
<!-- 4&#45;&gt;3 -->
<g id="edge1" class="edge">
<title>4&#45;&gt;3</title>
<path fill="none" stroke="black" stroke-dasharray="5,2" d="M515.51,-319.13C499.34,-379.52 481.75,-445.17 469.02,-492.68"/>
<polygon fill="black" stroke="black" points="465.59,-491.96 466.38,-502.53 472.35,-493.78 465.59,-491.96"/>
</g>
<!-- 4&#45;&gt;0 -->
<g id="edge9" class="edge">
<title>4&#45;&gt;0</title>
<path fill="none" stroke="black" d="M551.1,-319C546.64,-470.83 546.41,-688.24 576.96,-766.8 586.5,-791.34 604.63,-814.06 621.96,-831.82"/>
<polygon fill="black" stroke="black" points="622.36,-832.21 629.44,-833.57 630.91,-840.63 623.83,-839.27 622.36,-832.21"/>
</g>
<!-- 5 -->
<g id="node5" class="node">
<title>5</title>
<polygon fill="#f2f2f2" stroke="black" points="586,-485.9 586,-636.3 743.91,-636.3 743.91,-485.9 586,-485.9"/>
<text text-anchor="middle" x="664.96" y="-619.7" font-family="Times,serif" font-size="14.00">&lt;&lt;Enum&gt;&gt;</text>
<text text-anchor="middle" x="664.96" y="-602.9" font-family="Times,serif" font-size="14.00">TaskStatusEnum</text>
<text text-anchor="middle" x="664.96" y="-586.1" font-family="Times,serif" font-size="14.00">libs/IexecLibCore_v5.sol</text>
<polyline fill="none" stroke="black" points="586,-577.9 743.91,-577.9 "/>
<text text-anchor="start" x="594" y="-561.3" font-family="Times,serif" font-size="14.00">UNSET: 0</text>
<text text-anchor="start" x="594" y="-544.5" font-family="Times,serif" font-size="14.00">ACTIVE: 1</text>
<text text-anchor="start" x="594" y="-527.7" font-family="Times,serif" font-size="14.00">REVEALING: 2</text>
<text text-anchor="start" x="594" y="-510.9" font-family="Times,serif" font-size="14.00">COMPLETED: 3</text>
<text text-anchor="start" x="594" y="-494.1" font-family="Times,serif" font-size="14.00">FAILED: 4</text>
</g>
<!-- 5&#45;&gt;0 -->
<g id="edge4" class="edge">
<title>5&#45;&gt;0</title>
<path fill="none" stroke="black" d="M664.96,-636.42C664.96,-696.85 664.96,-779.84 664.96,-828.64"/>
<polygon fill="black" stroke="black" points="664.96,-828.86 668.96,-834.86 664.96,-840.86 660.96,-834.86 664.96,-828.86"/>
</g>
<!-- 6 -->
<g id="node6" class="node">
<title>6</title>
<polygon fill="#f2f2f2" stroke="black" points="679.39,-0.5 679.39,-318.9 864.52,-318.9 864.52,-0.5 679.39,-0.5"/>
<text text-anchor="middle" x="771.96" y="-302.3" font-family="Times,serif" font-size="14.00">&lt;&lt;Struct&gt;&gt;</text>
<text text-anchor="middle" x="771.96" y="-285.5" font-family="Times,serif" font-size="14.00">Task</text>
<text text-anchor="middle" x="771.96" y="-268.7" font-family="Times,serif" font-size="14.00">libs/IexecLibCore_v5.sol</text>
<polyline fill="none" stroke="black" points="679.39,-260.5 864.52,-260.5 "/>
<text text-anchor="start" x="687.39" y="-243.9" font-family="Times,serif" font-size="14.00">status: TaskStatusEnum</text>
<text text-anchor="start" x="687.39" y="-227.1" font-family="Times,serif" font-size="14.00">dealid: bytes32</text>
<text text-anchor="start" x="687.39" y="-210.3" font-family="Times,serif" font-size="14.00">idx: uint256</text>
<text text-anchor="start" x="687.39" y="-193.5" font-family="Times,serif" font-size="14.00">timeref: uint256</text>
<text text-anchor="start" x="687.39" y="-176.7" font-family="Times,serif" font-size="14.00">contributionDeadline: uint256</text>
<text text-anchor="start" x="687.39" y="-159.9" font-family="Times,serif" font-size="14.00">revealDeadline: uint256</text>
<text text-anchor="start" x="687.39" y="-143.1" font-family="Times,serif" font-size="14.00">finalDeadline: uint256</text>
<text text-anchor="start" x="687.39" y="-126.3" font-family="Times,serif" font-size="14.00">consensusValue: bytes32</text>
<text text-anchor="start" x="687.39" y="-109.5" font-family="Times,serif" font-size="14.00">revealCounter: uint256</text>
<text text-anchor="start" x="687.39" y="-92.7" font-family="Times,serif" font-size="14.00">winnerCounter: uint256</text>
<text text-anchor="start" x="687.39" y="-75.9" font-family="Times,serif" font-size="14.00">contributors: address[]</text>
<text text-anchor="start" x="687.39" y="-59.1" font-family="Times,serif" font-size="14.00">resultDigest: bytes32</text>
<text text-anchor="start" x="687.39" y="-42.3" font-family="Times,serif" font-size="14.00">results: bytes</text>
<text text-anchor="start" x="687.39" y="-25.5" font-family="Times,serif" font-size="14.00">resultsTimestamp: uint256</text>
<text text-anchor="start" x="687.39" y="-8.7" font-family="Times,serif" font-size="14.00">resultsCallback: bytes</text>
</g>
<!-- 6&#45;&gt;5 -->
<g id="edge2" class="edge">
<title>6&#45;&gt;5</title>
<path fill="none" stroke="black" stroke-dasharray="5,2" d="M729.51,-319.13C715.16,-372.69 699.7,-430.4 687.51,-475.91"/>
<polygon fill="black" stroke="black" points="684.09,-475.16 684.88,-485.73 690.85,-476.98 684.09,-475.16"/>
</g>
<!-- 6&#45;&gt;0 -->
<g id="edge10" class="edge">
<title>6&#45;&gt;0</title>
<path fill="none" stroke="black" d="M778.81,-319C783.27,-470.83 783.5,-688.24 752.96,-766.8 743.41,-791.34 725.28,-814.06 707.95,-831.82"/>
<polygon fill="black" stroke="black" points="707.55,-832.21 706.09,-839.27 699.01,-840.63 700.47,-833.57 707.55,-832.21"/>
</g>
<!-- 7 -->
<g id="node7" class="node">
<title>7</title>
<polygon fill="#f2f2f2" stroke="black" points="799.71,-511.1 799.71,-611.1 1016.2,-611.1 1016.2,-511.1 799.71,-511.1"/>
<text text-anchor="middle" x="907.96" y="-594.5" font-family="Times,serif" font-size="14.00">&lt;&lt;Struct&gt;&gt;</text>
<text text-anchor="middle" x="907.96" y="-577.7" font-family="Times,serif" font-size="14.00">Consensus</text>
<text text-anchor="middle" x="907.96" y="-560.9" font-family="Times,serif" font-size="14.00">libs/IexecLibCore_v5.sol</text>
<polyline fill="none" stroke="black" points="799.71,-552.7 1016.2,-552.7 "/>
<text text-anchor="start" x="807.71" y="-536.1" font-family="Times,serif" font-size="14.00">group: mapping(bytes32=&gt;uint256)</text>
<text text-anchor="start" x="807.71" y="-519.3" font-family="Times,serif" font-size="14.00">total: uint256</text>
</g>
<!-- 7&#45;&gt;0 -->
<g id="edge11" class="edge">
<title>7&#45;&gt;0</title>
<path fill="none" stroke="black" d="M884.48,-611.4C862.47,-654.83 826.89,-718.52 785.96,-766.8 765.1,-791.4 737.97,-814.93 714.68,-833.2"/>
<polygon fill="black" stroke="black" points="714.46,-833.37 712.16,-840.2 704.97,-840.7 707.27,-833.87 714.46,-833.37"/>
</g>
<!-- 8 -->
<g id="node8" class="node">
<title>8</title>
<polygon fill="#f2f2f2" stroke="black" points="1034,-494.3 1034,-627.9 1191.91,-627.9 1191.91,-494.3 1034,-494.3"/>
<text text-anchor="middle" x="1112.96" y="-611.3" font-family="Times,serif" font-size="14.00">&lt;&lt;Enum&gt;&gt;</text>
<text text-anchor="middle" x="1112.96" y="-594.5" font-family="Times,serif" font-size="14.00">ContributionStatusEnum</text>
<text text-anchor="middle" x="1112.96" y="-577.7" font-family="Times,serif" font-size="14.00">libs/IexecLibCore_v5.sol</text>
<polyline fill="none" stroke="black" points="1034,-569.5 1191.91,-569.5 "/>
<text text-anchor="start" x="1042" y="-552.9" font-family="Times,serif" font-size="14.00">UNSET: 0</text>
<text text-anchor="start" x="1042" y="-536.1" font-family="Times,serif" font-size="14.00">CONTRIBUTED: 1</text>
<text text-anchor="start" x="1042" y="-519.3" font-family="Times,serif" font-size="14.00">PROVED: 2</text>
<text text-anchor="start" x="1042" y="-502.5" font-family="Times,serif" font-size="14.00">REJECTED: 3</text>
</g>
<!-- 8&#45;&gt;0 -->
<g id="edge5" class="edge">
<title>8&#45;&gt;0</title>
<path fill="none" stroke="black" d="M1100.19,-628.08C1088.15,-673.19 1065.64,-731.06 1024.96,-766.8 950.09,-832.57 835.71,-856.25 756.04,-864.67"/>
<polygon fill="black" stroke="black" points="755.99,-864.68 750.41,-869.24 744.05,-865.85 749.63,-861.28 755.99,-864.68"/>
</g>
<!-- 9 -->
<g id="node9" class="node">
<title>9</title>
<polygon fill="#f2f2f2" stroke="black" points="1122.7,-84.5 1122.7,-234.9 1317.21,-234.9 1317.21,-84.5 1122.7,-84.5"/>
<text text-anchor="middle" x="1219.96" y="-218.3" font-family="Times,serif" font-size="14.00">&lt;&lt;Struct&gt;&gt;</text>
<text text-anchor="middle" x="1219.96" y="-201.5" font-family="Times,serif" font-size="14.00">Contribution</text>
<text text-anchor="middle" x="1219.96" y="-184.7" font-family="Times,serif" font-size="14.00">libs/IexecLibCore_v5.sol</text>
<polyline fill="none" stroke="black" points="1122.7,-176.5 1317.21,-176.5 "/>
<text text-anchor="start" x="1130.7" y="-159.9" font-family="Times,serif" font-size="14.00">status: ContributionStatusEnum</text>
<text text-anchor="start" x="1130.7" y="-143.1" font-family="Times,serif" font-size="14.00">resultHash: bytes32</text>
<text text-anchor="start" x="1130.7" y="-126.3" font-family="Times,serif" font-size="14.00">resultSeal: bytes32</text>
<text text-anchor="start" x="1130.7" y="-109.5" font-family="Times,serif" font-size="14.00">enclaveChallenge: address</text>
<text text-anchor="start" x="1130.7" y="-92.7" font-family="Times,serif" font-size="14.00">weight: uint256</text>
</g>
<!-- 9&#45;&gt;8 -->
<g id="edge3" class="edge">
<title>9&#45;&gt;8</title>
<path fill="none" stroke="black" stroke-dasharray="5,2" d="M1199.96,-235.36C1180.92,-306.41 1152.42,-412.8 1133.28,-484.25"/>
<polygon fill="black" stroke="black" points="1129.85,-483.53 1130.64,-494.09 1136.61,-485.34 1129.85,-483.53"/>
</g>
<!-- 9&#45;&gt;0 -->
<g id="edge12" class="edge">
<title>9&#45;&gt;0</title>
<path fill="none" stroke="black" d="M1222.72,-234.99C1227.69,-387.99 1234.71,-727.27 1200.96,-766.8 1186.53,-783.69 905.41,-830.76 756.21,-854.71"/>
<polygon fill="black" stroke="black" points="755.8,-854.78 750.51,-859.68 743.95,-856.68 749.24,-851.78 755.8,-854.78"/>
</g>
<!-- 11 -->
<g id="node11" class="node">
<title>11</title>
<polygon fill="#f2f2f2" stroke="black" points="1547.56,-109.7 1547.56,-209.7 1716.36,-209.7 1716.36,-109.7 1547.56,-109.7"/>
<text text-anchor="middle" x="1631.96" y="-193.1" font-family="Times,serif" font-size="14.00">&lt;&lt;Enum&gt;&gt;</text>
<text text-anchor="middle" x="1631.96" y="-176.3" font-family="Times,serif" font-size="14.00">OrderOperationEnum</text>
<text text-anchor="middle" x="1631.96" y="-159.5" font-family="Times,serif" font-size="14.00">libs/IexecLibOrders_v5.sol</text>
<polyline fill="none" stroke="black" points="1547.56,-151.3 1716.36,-151.3 "/>
<text text-anchor="start" x="1555.56" y="-134.7" font-family="Times,serif" font-size="14.00">SIGN: 0</text>
<text text-anchor="start" x="1555.56" y="-117.9" font-family="Times,serif" font-size="14.00">CLOSE: 1</text>
</g>
<!-- 10 -->
<g id="node21" class="node">
<title>10</title>
<polygon fill="#f2f2f2" stroke="black" points="1415.19,-355.9 1415.19,-766.3 1848.72,-766.3 1848.72,-355.9 1415.19,-355.9"/>
<text text-anchor="middle" x="1631.96" y="-749.7" font-family="Times,serif" font-size="14.00">&lt;&lt;Library&gt;&gt;</text>
<text text-anchor="middle" x="1631.96" y="-732.9" font-family="Times,serif" font-size="14.00">IexecLibOrders_v5</text>
<text text-anchor="middle" x="1631.96" y="-716.1" font-family="Times,serif" font-size="14.00">libs/IexecLibOrders_v5.sol</text>
<polyline fill="none" stroke="black" points="1415.19,-707.9 1848.72,-707.9 "/>
<text text-anchor="start" x="1423.19" y="-691.3" font-family="Times,serif" font-size="14.00">Public:</text>
<text text-anchor="start" x="1423.19" y="-674.5" font-family="Times,serif" font-size="14.00"> &#160;&#160;EIP712DOMAIN_TYPEHASH: bytes32</text>
<text text-anchor="start" x="1423.19" y="-657.7" font-family="Times,serif" font-size="14.00"> &#160;&#160;APPORDER_TYPEHASH: bytes32</text>
<text text-anchor="start" x="1423.19" y="-640.9" font-family="Times,serif" font-size="14.00"> &#160;&#160;DATASETORDER_TYPEHASH: bytes32</text>
<text text-anchor="start" x="1423.19" y="-624.1" font-family="Times,serif" font-size="14.00"> &#160;&#160;WORKERPOOLORDER_TYPEHASH: bytes32</text>
<text text-anchor="start" x="1423.19" y="-607.3" font-family="Times,serif" font-size="14.00"> &#160;&#160;REQUESTORDER_TYPEHASH: bytes32</text>
<text text-anchor="start" x="1423.19" y="-590.5" font-family="Times,serif" font-size="14.00"> &#160;&#160;APPORDEROPERATION_TYPEHASH: bytes32</text>
<text text-anchor="start" x="1423.19" y="-573.7" font-family="Times,serif" font-size="14.00"> &#160;&#160;DATASETORDEROPERATION_TYPEHASH: bytes32</text>
<text text-anchor="start" x="1423.19" y="-556.9" font-family="Times,serif" font-size="14.00"> &#160;&#160;WORKERPOOLORDEROPERATION_TYPEHASH: bytes32</text>
<text text-anchor="start" x="1423.19" y="-540.1" font-family="Times,serif" font-size="14.00"> &#160;&#160;REQUESTORDEROPERATION_TYPEHASH: bytes32</text>
<polyline fill="none" stroke="black" points="1415.19,-531.9 1848.72,-531.9 "/>
<text text-anchor="start" x="1423.19" y="-515.3" font-family="Times,serif" font-size="14.00">Public:</text>
<text text-anchor="start" x="1423.19" y="-498.5" font-family="Times,serif" font-size="14.00"> &#160;&#160;&#160;hash(_domain: EIP712Domain): (domainhash: bytes32)</text>
<text text-anchor="start" x="1423.19" y="-481.7" font-family="Times,serif" font-size="14.00"> &#160;&#160;&#160;hash(_apporder: AppOrder): (apphash: bytes32)</text>
<text text-anchor="start" x="1423.19" y="-464.9" font-family="Times,serif" font-size="14.00"> &#160;&#160;&#160;hash(_datasetorder: DatasetOrder): (datasethash: bytes32)</text>
<text text-anchor="start" x="1423.19" y="-448.1" font-family="Times,serif" font-size="14.00"> &#160;&#160;&#160;hash(_workerpoolorder: WorkerpoolOrder): (workerpoolhash: bytes32)</text>
<text text-anchor="start" x="1423.19" y="-431.3" font-family="Times,serif" font-size="14.00"> &#160;&#160;&#160;hash(_requestorder: RequestOrder): (requesthash: bytes32)</text>
<text text-anchor="start" x="1423.19" y="-414.5" font-family="Times,serif" font-size="14.00"> &#160;&#160;&#160;hash(_apporderoperation: AppOrderOperation): bytes32</text>
<text text-anchor="start" x="1423.19" y="-397.7" font-family="Times,serif" font-size="14.00"> &#160;&#160;&#160;hash(_datasetorderoperation: DatasetOrderOperation): bytes32</text>
<text text-anchor="start" x="1423.19" y="-380.9" font-family="Times,serif" font-size="14.00"> &#160;&#160;&#160;hash(_workerpoolorderoperation: WorkerpoolOrderOperation): bytes32</text>
<text text-anchor="start" x="1423.19" y="-364.1" font-family="Times,serif" font-size="14.00"> &#160;&#160;&#160;hash(_requestorderoperation: RequestOrderOperation): bytes32</text>
</g>
<!-- 11&#45;&gt;10 -->
<g id="edge21" class="edge">
<title>11&#45;&gt;10</title>
<path fill="none" stroke="black" d="M1631.96,-210.07C1631.96,-244.56 1631.96,-293.25 1631.96,-343.38"/>
<polygon fill="black" stroke="black" points="1631.96,-343.46 1635.96,-349.46 1631.96,-355.46 1627.96,-349.46 1631.96,-343.46"/>
</g>
<!-- 12 -->
<g id="node12" class="node">
<title>12</title>
<polygon fill="#f2f2f2" stroke="black" points="1668.56,-803.3 1668.56,-936.9 1837.36,-936.9 1837.36,-803.3 1668.56,-803.3"/>
<text text-anchor="middle" x="1752.96" y="-920.3" font-family="Times,serif" font-size="14.00">&lt;&lt;Struct&gt;&gt;</text>
<text text-anchor="middle" x="1752.96" y="-903.5" font-family="Times,serif" font-size="14.00">EIP712Domain</text>
<text text-anchor="middle" x="1752.96" y="-886.7" font-family="Times,serif" font-size="14.00">libs/IexecLibOrders_v5.sol</text>
<polyline fill="none" stroke="black" points="1668.56,-878.5 1837.36,-878.5 "/>
<text text-anchor="start" x="1676.56" y="-861.9" font-family="Times,serif" font-size="14.00">name: string</text>
<text text-anchor="start" x="1676.56" y="-845.1" font-family="Times,serif" font-size="14.00">version: string</text>
<text text-anchor="start" x="1676.56" y="-828.3" font-family="Times,serif" font-size="14.00">chainId: uint256</text>
<text text-anchor="start" x="1676.56" y="-811.5" font-family="Times,serif" font-size="14.00">verifyingContract: address</text>
</g>
<!-- 12&#45;&gt;10 -->
<g id="edge22" class="edge">
<title>12&#45;&gt;10</title>
<path fill="none" stroke="black" d="M1732.62,-803.14C1729.68,-795.12 1726.52,-786.62 1723.2,-777.79"/>
<polygon fill="black" stroke="black" points="1723.15,-777.67 1717.29,-773.47 1718.91,-766.45 1724.77,-770.64 1723.15,-777.67"/>
</g>
<!-- 13 -->
<g id="node13" class="node">
<title>13</title>
<polygon fill="#f2f2f2" stroke="black" points="1262.56,-1032.7 1262.56,-1250.3 1431.36,-1250.3 1431.36,-1032.7 1262.56,-1032.7"/>
<text text-anchor="middle" x="1346.96" y="-1233.7" font-family="Times,serif" font-size="14.00">&lt;&lt;Struct&gt;&gt;</text>
<text text-anchor="middle" x="1346.96" y="-1216.9" font-family="Times,serif" font-size="14.00">AppOrder</text>
<text text-anchor="middle" x="1346.96" y="-1200.1" font-family="Times,serif" font-size="14.00">libs/IexecLibOrders_v5.sol</text>
<polyline fill="none" stroke="black" points="1262.56,-1191.9 1431.36,-1191.9 "/>
<text text-anchor="start" x="1270.56" y="-1175.3" font-family="Times,serif" font-size="14.00">app: address</text>
<text text-anchor="start" x="1270.56" y="-1158.5" font-family="Times,serif" font-size="14.00">appprice: uint256</text>
<text text-anchor="start" x="1270.56" y="-1141.7" font-family="Times,serif" font-size="14.00">volume: uint256</text>
<text text-anchor="start" x="1270.56" y="-1124.9" font-family="Times,serif" font-size="14.00">tag: bytes32</text>
<text text-anchor="start" x="1270.56" y="-1108.1" font-family="Times,serif" font-size="14.00">datasetrestrict: address</text>
<text text-anchor="start" x="1270.56" y="-1091.3" font-family="Times,serif" font-size="14.00">workerpoolrestrict: address</text>
<text text-anchor="start" x="1270.56" y="-1074.5" font-family="Times,serif" font-size="14.00">requesterrestrict: address</text>
<text text-anchor="start" x="1270.56" y="-1057.7" font-family="Times,serif" font-size="14.00">salt: bytes32</text>
<text text-anchor="start" x="1270.56" y="-1040.9" font-family="Times,serif" font-size="14.00">sign: bytes</text>
</g>
<!-- 13&#45;&gt;10 -->
<g id="edge23" class="edge">
<title>13&#45;&gt;10</title>
<path fill="none" stroke="black" d="M1407.28,-1032.31C1419.84,-1011.61 1434.12,-990.94 1449.96,-973.4 1468.55,-952.8 1484.02,-959.38 1500.96,-937.4 1522.35,-909.64 1548.6,-845.56 1572.02,-778.06"/>
<polygon fill="black" stroke="black" points="1572.15,-777.67 1570.32,-770.7 1576.05,-766.32 1577.88,-773.3 1572.15,-777.67"/>
</g>
<!-- 14 -->
<g id="node14" class="node">
<title>14</title>
<polygon fill="#f2f2f2" stroke="black" points="1636.56,-1032.7 1636.56,-1250.3 1805.36,-1250.3 1805.36,-1032.7 1636.56,-1032.7"/>
<text text-anchor="middle" x="1720.96" y="-1233.7" font-family="Times,serif" font-size="14.00">&lt;&lt;Struct&gt;&gt;</text>
<text text-anchor="middle" x="1720.96" y="-1216.9" font-family="Times,serif" font-size="14.00">DatasetOrder</text>
<text text-anchor="middle" x="1720.96" y="-1200.1" font-family="Times,serif" font-size="14.00">libs/IexecLibOrders_v5.sol</text>
<polyline fill="none" stroke="black" points="1636.56,-1191.9 1805.36,-1191.9 "/>
<text text-anchor="start" x="1644.56" y="-1175.3" font-family="Times,serif" font-size="14.00">dataset: address</text>
<text text-anchor="start" x="1644.56" y="-1158.5" font-family="Times,serif" font-size="14.00">datasetprice: uint256</text>
<text text-anchor="start" x="1644.56" y="-1141.7" font-family="Times,serif" font-size="14.00">volume: uint256</text>
<text text-anchor="start" x="1644.56" y="-1124.9" font-family="Times,serif" font-size="14.00">tag: bytes32</text>
<text text-anchor="start" x="1644.56" y="-1108.1" font-family="Times,serif" font-size="14.00">apprestrict: address</text>
<text text-anchor="start" x="1644.56" y="-1091.3" font-family="Times,serif" font-size="14.00">workerpoolrestrict: address</text>
<text text-anchor="start" x="1644.56" y="-1074.5" font-family="Times,serif" font-size="14.00">requesterrestrict: address</text>
<text text-anchor="start" x="1644.56" y="-1057.7" font-family="Times,serif" font-size="14.00">salt: bytes32</text>
<text text-anchor="start" x="1644.56" y="-1040.9" font-family="Times,serif" font-size="14.00">sign: bytes</text>
</g>
<!-- 14&#45;&gt;10 -->
<g id="edge24" class="edge">
<title>14&#45;&gt;10</title>
<path fill="none" stroke="black" d="M1692.42,-1032.48C1683.6,-1002.05 1674.76,-968.71 1668.96,-937.4 1659.52,-886.44 1653.24,-831.03 1648.81,-778.82"/>
<polygon fill="black" stroke="black" points="1648.79,-778.64 1644.31,-772.99 1647.8,-766.68 1652.28,-772.33 1648.79,-778.64"/>
</g>
<!-- 15 -->
<g id="node15" class="node">
<title>15</title>
<polygon fill="#f2f2f2" stroke="black" points="1449.56,-1015.9 1449.56,-1267.1 1618.36,-1267.1 1618.36,-1015.9 1449.56,-1015.9"/>
<text text-anchor="middle" x="1533.96" y="-1250.5" font-family="Times,serif" font-size="14.00">&lt;&lt;Struct&gt;&gt;</text>
<text text-anchor="middle" x="1533.96" y="-1233.7" font-family="Times,serif" font-size="14.00">WorkerpoolOrder</text>
<text text-anchor="middle" x="1533.96" y="-1216.9" font-family="Times,serif" font-size="14.00">libs/IexecLibOrders_v5.sol</text>
<polyline fill="none" stroke="black" points="1449.56,-1208.7 1618.36,-1208.7 "/>
<text text-anchor="start" x="1457.56" y="-1192.1" font-family="Times,serif" font-size="14.00">workerpool: address</text>
<text text-anchor="start" x="1457.56" y="-1175.3" font-family="Times,serif" font-size="14.00">workerpoolprice: uint256</text>
<text text-anchor="start" x="1457.56" y="-1158.5" font-family="Times,serif" font-size="14.00">volume: uint256</text>
<text text-anchor="start" x="1457.56" y="-1141.7" font-family="Times,serif" font-size="14.00">tag: bytes32</text>
<text text-anchor="start" x="1457.56" y="-1124.9" font-family="Times,serif" font-size="14.00">category: uint256</text>
<text text-anchor="start" x="1457.56" y="-1108.1" font-family="Times,serif" font-size="14.00">trust: uint256</text>
<text text-anchor="start" x="1457.56" y="-1091.3" font-family="Times,serif" font-size="14.00">apprestrict: address</text>
<text text-anchor="start" x="1457.56" y="-1074.5" font-family="Times,serif" font-size="14.00">datasetrestrict: address</text>
<text text-anchor="start" x="1457.56" y="-1057.7" font-family="Times,serif" font-size="14.00">requesterrestrict: address</text>
<text text-anchor="start" x="1457.56" y="-1040.9" font-family="Times,serif" font-size="14.00">salt: bytes32</text>
<text text-anchor="start" x="1457.56" y="-1024.1" font-family="Times,serif" font-size="14.00">sign: bytes</text>
</g>
<!-- 15&#45;&gt;10 -->
<g id="edge25" class="edge">
<title>15&#45;&gt;10</title>
<path fill="none" stroke="black" d="M1560.74,-1015.89C1573.48,-946.73 1588.69,-858.74 1601.82,-778.69"/>
<polygon fill="black" stroke="black" points="1601.89,-778.27 1598.91,-771.7 1603.82,-766.43 1606.8,-773 1601.89,-778.27"/>
</g>
<!-- 16 -->
<g id="node16" class="node">
<title>16</title>
<polygon fill="#f2f2f2" stroke="black" points="1823.56,-973.9 1823.56,-1309.1 2006.35,-1309.1 2006.35,-973.9 1823.56,-973.9"/>
<text text-anchor="middle" x="1914.96" y="-1292.5" font-family="Times,serif" font-size="14.00">&lt;&lt;Struct&gt;&gt;</text>
<text text-anchor="middle" x="1914.96" y="-1275.7" font-family="Times,serif" font-size="14.00">RequestOrder</text>
<text text-anchor="middle" x="1914.96" y="-1258.9" font-family="Times,serif" font-size="14.00">libs/IexecLibOrders_v5.sol</text>
<polyline fill="none" stroke="black" points="1823.56,-1250.7 2006.35,-1250.7 "/>
<text text-anchor="start" x="1831.56" y="-1234.1" font-family="Times,serif" font-size="14.00">app: address</text>
<text text-anchor="start" x="1831.56" y="-1217.3" font-family="Times,serif" font-size="14.00">appmaxprice: uint256</text>
<text text-anchor="start" x="1831.56" y="-1200.5" font-family="Times,serif" font-size="14.00">dataset: address</text>
<text text-anchor="start" x="1831.56" y="-1183.7" font-family="Times,serif" font-size="14.00">datasetmaxprice: uint256</text>
<text text-anchor="start" x="1831.56" y="-1166.9" font-family="Times,serif" font-size="14.00">workerpool: address</text>
<text text-anchor="start" x="1831.56" y="-1150.1" font-family="Times,serif" font-size="14.00">workerpoolmaxprice: uint256</text>
<text text-anchor="start" x="1831.56" y="-1133.3" font-family="Times,serif" font-size="14.00">requester: address</text>
<text text-anchor="start" x="1831.56" y="-1116.5" font-family="Times,serif" font-size="14.00">volume: uint256</text>
<text text-anchor="start" x="1831.56" y="-1099.7" font-family="Times,serif" font-size="14.00">tag: bytes32</text>
<text text-anchor="start" x="1831.56" y="-1082.9" font-family="Times,serif" font-size="14.00">category: uint256</text>
<text text-anchor="start" x="1831.56" y="-1066.1" font-family="Times,serif" font-size="14.00">trust: uint256</text>
<text text-anchor="start" x="1831.56" y="-1049.3" font-family="Times,serif" font-size="14.00">beneficiary: address</text>
<text text-anchor="start" x="1831.56" y="-1032.5" font-family="Times,serif" font-size="14.00">callback: address</text>
<text text-anchor="start" x="1831.56" y="-1015.7" font-family="Times,serif" font-size="14.00">params: string</text>
<text text-anchor="start" x="1831.56" y="-998.9" font-family="Times,serif" font-size="14.00">salt: bytes32</text>
<text text-anchor="start" x="1831.56" y="-982.1" font-family="Times,serif" font-size="14.00">sign: bytes</text>
</g>
<!-- 16&#45;&gt;10 -->
<g id="edge26" class="edge">
<title>16&#45;&gt;10</title>
<path fill="none" stroke="black" d="M1907.12,-973.73C1897.56,-917.33 1881.28,-855.37 1854.96,-802.8 1850.6,-794.09 1845.84,-785.45 1840.76,-776.92"/>
<polygon fill="black" stroke="black" points="1840.68,-776.78 1834.13,-773.76 1834.4,-766.56 1840.95,-769.58 1840.68,-776.78"/>
</g>
<!-- 17 -->
<g id="node17" class="node">
<title>17</title>
<polygon fill="#f2f2f2" stroke="black" points="1068.79,-811.7 1068.79,-928.5 1267.12,-928.5 1267.12,-811.7 1068.79,-811.7"/>
<text text-anchor="middle" x="1167.96" y="-911.9" font-family="Times,serif" font-size="14.00">&lt;&lt;Struct&gt;&gt;</text>
<text text-anchor="middle" x="1167.96" y="-895.1" font-family="Times,serif" font-size="14.00">AppOrderOperation</text>
<text text-anchor="middle" x="1167.96" y="-878.3" font-family="Times,serif" font-size="14.00">libs/IexecLibOrders_v5.sol</text>
<polyline fill="none" stroke="black" points="1068.79,-870.1 1267.12,-870.1 "/>
<text text-anchor="start" x="1076.79" y="-853.5" font-family="Times,serif" font-size="14.00">order: AppOrder</text>
<text text-anchor="start" x="1076.79" y="-836.7" font-family="Times,serif" font-size="14.00">operation: OrderOperationEnum</text>
<text text-anchor="start" x="1076.79" y="-819.9" font-family="Times,serif" font-size="14.00">sign: bytes</text>
</g>
<!-- 17&#45;&gt;11 -->
<g id="edge14" class="edge">
<title>17&#45;&gt;11</title>
<path fill="none" stroke="black" stroke-dasharray="5,2" d="M1209.25,-811.55C1218.24,-797.37 1227.1,-781.91 1233.96,-766.8 1312.59,-593.59 1241.24,-510.07 1351.96,-355.4 1399.5,-288.98 1477.13,-237.6 1538.6,-204.34"/>
<polygon fill="black" stroke="black" points="1540.37,-207.36 1547.54,-199.57 1537.07,-201.19 1540.37,-207.36"/>
</g>
<!-- 17&#45;&gt;13 -->
<g id="edge13" class="edge">
<title>17&#45;&gt;13</title>
<path fill="none" stroke="black" stroke-dasharray="5,2" d="M1206.14,-928.56C1224.69,-956.48 1247.69,-991.09 1269.68,-1024.19"/>
<polygon fill="black" stroke="black" points="1266.8,-1026.18 1275.24,-1032.57 1272.63,-1022.3 1266.8,-1026.18"/>
</g>
<!-- 17&#45;&gt;10 -->
<g id="edge27" class="edge">
<title>17&#45;&gt;10</title>
<path fill="none" stroke="black" d="M1260.36,-811.54C1302.15,-784.47 1353.55,-750.76 1404.65,-716.96"/>
<polygon fill="black" stroke="black" points="1404.85,-716.83 1407.65,-710.18 1414.86,-710.2 1412.06,-716.85 1404.85,-716.83"/>
</g>
<!-- 18 -->
<g id="node18" class="node">
<title>18</title>
<polygon fill="#f2f2f2" stroke="black" points="1910.79,-811.7 1910.79,-928.5 2109.12,-928.5 2109.12,-811.7 1910.79,-811.7"/>
<text text-anchor="middle" x="2009.96" y="-911.9" font-family="Times,serif" font-size="14.00">&lt;&lt;Struct&gt;&gt;</text>
<text text-anchor="middle" x="2009.96" y="-895.1" font-family="Times,serif" font-size="14.00">DatasetOrderOperation</text>
<text text-anchor="middle" x="2009.96" y="-878.3" font-family="Times,serif" font-size="14.00">libs/IexecLibOrders_v5.sol</text>
<polyline fill="none" stroke="black" points="1910.79,-870.1 2109.12,-870.1 "/>
<text text-anchor="start" x="1918.79" y="-853.5" font-family="Times,serif" font-size="14.00">order: DatasetOrder</text>
<text text-anchor="start" x="1918.79" y="-836.7" font-family="Times,serif" font-size="14.00">operation: OrderOperationEnum</text>
<text text-anchor="start" x="1918.79" y="-819.9" font-family="Times,serif" font-size="14.00">sign: bytes</text>
</g>
<!-- 18&#45;&gt;11 -->
<g id="edge16" class="edge">
<title>18&#45;&gt;11</title>
<path fill="none" stroke="black" stroke-dasharray="5,2" d="M2003.67,-811.5C1990.54,-711.57 1953.11,-502.65 1857.96,-355.4 1821.76,-299.38 1764.77,-250.44 1717.09,-215.64"/>
<polygon fill="black" stroke="black" points="1719.07,-212.76 1708.91,-209.75 1714.97,-218.43 1719.07,-212.76"/>
</g>
<!-- 18&#45;&gt;14 -->
<g id="edge15" class="edge">
<title>18&#45;&gt;14</title>
<path fill="none" stroke="black" stroke-dasharray="5,2" d="M1910.78,-909.46C1877.6,-925.65 1842.18,-946.97 1814.96,-973.4 1799.98,-987.95 1786.69,-1005.4 1775.18,-1023.46"/>
<polygon fill="black" stroke="black" points="1771.95,-1022.02 1769.66,-1032.36 1777.9,-1025.7 1771.95,-1022.02"/>
</g>
<!-- 18&#45;&gt;10 -->
<g id="edge28" class="edge">
<title>18&#45;&gt;10</title>
<path fill="none" stroke="black" d="M1944.31,-811.39C1919.45,-790.65 1889.57,-766.04 1858.26,-740.48"/>
<polygon fill="black" stroke="black" points="1858.25,-740.47 1851.07,-739.77 1848.95,-732.88 1856.12,-733.57 1858.25,-740.47"/>
</g>
<!-- 19 -->
<g id="node19" class="node">
<title>19</title>
<polygon fill="#f2f2f2" stroke="black" points="1284.79,-811.7 1284.79,-928.5 1483.12,-928.5 1483.12,-811.7 1284.79,-811.7"/>
<text text-anchor="middle" x="1383.96" y="-911.9" font-family="Times,serif" font-size="14.00">&lt;&lt;Struct&gt;&gt;</text>
<text text-anchor="middle" x="1383.96" y="-895.1" font-family="Times,serif" font-size="14.00">WorkerpoolOrderOperation</text>
<text text-anchor="middle" x="1383.96" y="-878.3" font-family="Times,serif" font-size="14.00">libs/IexecLibOrders_v5.sol</text>
<polyline fill="none" stroke="black" points="1284.79,-870.1 1483.12,-870.1 "/>
<text text-anchor="start" x="1292.79" y="-853.5" font-family="Times,serif" font-size="14.00">order: WorkerpoolOrder</text>
<text text-anchor="start" x="1292.79" y="-836.7" font-family="Times,serif" font-size="14.00">operation: OrderOperationEnum</text>
<text text-anchor="start" x="1292.79" y="-819.9" font-family="Times,serif" font-size="14.00">sign: bytes</text>
</g>
<!-- 19&#45;&gt;11 -->
<g id="edge18" class="edge">
<title>19&#45;&gt;11</title>
<path fill="none" stroke="black" stroke-dasharray="5,2" d="M1372.3,-811.59C1355.21,-712.67 1332.78,-506.42 1405.96,-355.4 1434.56,-296.36 1490.19,-248.08 1539.1,-214.36"/>
<polygon fill="black" stroke="black" points="1541.2,-217.17 1547.52,-208.66 1537.27,-211.38 1541.2,-217.17"/>
</g>
<!-- 19&#45;&gt;15 -->
<g id="edge17" class="edge">
<title>19&#45;&gt;15</title>
<path fill="none" stroke="black" stroke-dasharray="5,2" d="M1415.95,-928.56C1428.8,-951.64 1444.19,-979.29 1459.55,-1006.87"/>
<polygon fill="black" stroke="black" points="1456.61,-1008.79 1464.54,-1015.82 1462.73,-1005.38 1456.61,-1008.79"/>
</g>
<!-- 19&#45;&gt;10 -->
<g id="edge29" class="edge">
<title>19&#45;&gt;10</title>
<path fill="none" stroke="black" d="M1435.95,-811.43C1445.15,-800.49 1455.15,-788.46 1465.6,-775.79"/>
<polygon fill="black" stroke="black" points="1465.67,-775.71 1466.39,-768.54 1473.29,-766.45 1472.57,-773.62 1465.67,-775.71"/>
</g>
<!-- 20 -->
<g id="node20" class="node">
<title>20</title>
<polygon fill="#f2f2f2" stroke="black" points="2126.79,-811.7 2126.79,-928.5 2325.12,-928.5 2325.12,-811.7 2126.79,-811.7"/>
<text text-anchor="middle" x="2225.96" y="-911.9" font-family="Times,serif" font-size="14.00">&lt;&lt;Struct&gt;&gt;</text>
<text text-anchor="middle" x="2225.96" y="-895.1" font-family="Times,serif" font-size="14.00">RequestOrderOperation</text>
<text text-anchor="middle" x="2225.96" y="-878.3" font-family="Times,serif" font-size="14.00">libs/IexecLibOrders_v5.sol</text>
<polyline fill="none" stroke="black" points="2126.79,-870.1 2325.12,-870.1 "/>
<text text-anchor="start" x="2134.79" y="-853.5" font-family="Times,serif" font-size="14.00">order: RequestOrder</text>
<text text-anchor="start" x="2134.79" y="-836.7" font-family="Times,serif" font-size="14.00">operation: OrderOperationEnum</text>
<text text-anchor="start" x="2134.79" y="-819.9" font-family="Times,serif" font-size="14.00">sign: bytes</text>
</g>
<!-- 20&#45;&gt;11 -->
<g id="edge20" class="edge">
<title>20&#45;&gt;11</title>
<path fill="none" stroke="black" stroke-dasharray="5,2" d="M2204.99,-811.57C2165.72,-709.89 2072.87,-495.93 1939.96,-355.4 1878.72,-290.65 1791.61,-238.21 1725.65,-204.13"/>
<polygon fill="black" stroke="black" points="1726.98,-200.88 1716.49,-199.44 1723.8,-207.11 1726.98,-200.88"/>
</g>
<!-- 20&#45;&gt;16 -->
<g id="edge19" class="edge">
<title>20&#45;&gt;16</title>
<path fill="none" stroke="black" stroke-dasharray="5,2" d="M2159.62,-928.56C2117.37,-965.16 2061.87,-1013.24 2014.4,-1054.36"/>
<polygon fill="black" stroke="black" points="2011.82,-1051.96 2006.55,-1061.16 2016.4,-1057.25 2011.82,-1051.96"/>
</g>
<!-- 20&#45;&gt;10 -->
<g id="edge30" class="edge">
<title>20&#45;&gt;10</title>
<path fill="none" stroke="black" d="M2142.48,-811.59C2137.26,-808.57 2132.06,-805.62 2126.96,-802.8 2041.03,-755.27 1944.46,-706.52 1859.56,-665.43"/>
<polygon fill="black" stroke="black" points="1859.54,-665.42 1852.4,-666.42 1848.74,-660.21 1855.88,-659.21 1859.54,-665.42"/>
</g>
<!-- 10&#45;&gt;12 -->
<g id="edge31" class="edge">
<title>10&#45;&gt;12</title>
<path fill="none" stroke="black" stroke-dasharray="5,2" d="M1706.09,-766.45C1709.96,-775.93 1713.75,-785.12 1717.4,-793.85"/>
<polygon fill="black" stroke="black" points="1714.2,-795.27 1721.3,-803.14 1720.65,-792.56 1714.2,-795.27"/>
</g>
<!-- 10&#45;&gt;13 -->
<g id="edge32" class="edge">
<title>10&#45;&gt;13</title>
<path fill="none" stroke="black" stroke-dasharray="5,2" d="M1559.35,-766.32C1533.65,-838.02 1505.59,-908.03 1482.96,-937.4 1466.02,-959.38 1450.55,-952.8 1431.96,-973.4 1418.35,-988.48 1405.89,-1005.86 1394.92,-1023.59"/>
<polygon fill="black" stroke="black" points="1391.83,-1021.94 1389.66,-1032.31 1397.82,-1025.56 1391.83,-1021.94"/>
</g>
<!-- 10&#45;&gt;14 -->
<g id="edge33" class="edge">
<title>10&#45;&gt;14</title>
<path fill="none" stroke="black" stroke-dasharray="5,2" d="M1630.47,-766.68C1634.28,-822.37 1640.78,-882.47 1650.96,-937.4 1656.14,-965.41 1663.77,-995.04 1672.13,-1022.76"/>
<polygon fill="black" stroke="black" points="1668.83,-1023.95 1675.12,-1032.48 1675.53,-1021.89 1668.83,-1023.95"/>
</g>
<!-- 10&#45;&gt;15 -->
<g id="edge34" class="edge">
<title>10&#45;&gt;15</title>
<path fill="none" stroke="black" stroke-dasharray="5,2" d="M1590.85,-766.43C1576.87,-845.92 1562.04,-934.79 1550.95,-1005.96"/>
<polygon fill="black" stroke="black" points="1547.48,-1005.47 1549.41,-1015.89 1554.4,-1006.54 1547.48,-1005.47"/>
</g>
<!-- 10&#45;&gt;16 -->
<g id="edge35" class="edge">
<title>10&#45;&gt;16</title>
<path fill="none" stroke="black" stroke-dasharray="5,2" d="M1816.41,-766.56C1823.91,-778.44 1830.82,-790.55 1836.96,-802.8 1861.73,-852.29 1877.61,-910.1 1888.22,-963.76"/>
<polygon fill="black" stroke="black" points="1884.81,-964.57 1890.14,-973.73 1891.68,-963.25 1884.81,-964.57"/>
</g>
<!-- 10&#45;&gt;17 -->
<g id="edge36" class="edge">
<title>10&#45;&gt;17</title>
<path fill="none" stroke="black" stroke-dasharray="5,2" d="M1414.96,-701.23C1359.52,-737.82 1302.94,-775.51 1257.93,-805.88"/>
<polygon fill="black" stroke="black" points="1255.7,-803.16 1249.37,-811.66 1259.62,-808.96 1255.7,-803.16"/>
</g>
<!-- 10&#45;&gt;18 -->
<g id="edge37" class="edge">
<title>10&#45;&gt;18</title>
<path fill="none" stroke="black" stroke-dasharray="5,2" d="M1848.74,-743.57C1875.89,-765.49 1902.26,-786.62 1925.54,-805.09"/>
<polygon fill="black" stroke="black" points="1923.63,-808.04 1933.64,-811.51 1927.98,-802.56 1923.63,-808.04"/>
</g>
<!-- 10&#45;&gt;19 -->
<g id="edge38" class="edge">
<title>10&#45;&gt;19</title>
<path fill="none" stroke="black" stroke-dasharray="5,2" d="M1460.47,-766.45C1450.18,-779.41 1440.4,-791.83 1431.47,-803.28"/>
<polygon fill="black" stroke="black" points="1428.51,-801.39 1425.13,-811.43 1434.04,-805.68 1428.51,-801.39"/>
</g>
<!-- 10&#45;&gt;20 -->
<g id="edge39" class="edge">
<title>10&#45;&gt;20</title>
<path fill="none" stroke="black" stroke-dasharray="5,2" d="M1848.92,-668.45C1931.15,-708.9 2025.12,-756.43 2108.96,-802.8 2111.84,-804.4 2114.77,-806.03 2117.71,-807.7"/>
<polygon fill="black" stroke="black" points="2116.16,-810.85 2126.58,-812.79 2119.64,-804.78 2116.16,-810.85"/>
</g>
</g>
</svg>
