<?xml version="1.0" encoding="UTF-8" standalone="no"?>
<!DOCTYPE svg PUBLIC "-//W3C//DTD SVG 1.1//EN"
 "http://www.w3.org/Graphics/SVG/1.1/DTD/svg11.dtd">
<!-- Generated by graphviz version 5.0.0 (20220707.1540)
 -->
<!-- Title: UmlClassDiagram Pages: 1 -->
<svg width="3283pt" height="1113pt"
 viewBox="0.00 0.00 3282.78 1113.40" xmlns="http://www.w3.org/2000/svg" xmlns:xlink="http://www.w3.org/1999/xlink">
<g id="graph0" class="graph" transform="scale(1 1) rotate(0) translate(4 1109.4)">
<title>UmlClassDiagram</title>
<polygon fill="white" stroke="transparent" points="-4,4 -4,-1109.4 3278.78,-1109.4 3278.78,4 -4,4"/>
<!-- 0 -->
<g id="node1" class="node">
<title>0</title>
<polygon fill="#f2f2f2" stroke="black" points="795,-908.1 795,-966.5 1007.33,-966.5 1007.33,-908.1 795,-908.1"/>
<text text-anchor="middle" x="901.17" y="-949.9" font-family="Times,serif" font-size="14.00">&lt;&lt;Library&gt;&gt;</text>
<text text-anchor="middle" x="901.17" y="-933.1" font-family="Times,serif" font-size="14.00">IexecLibCore_v5</text>
<text text-anchor="middle" x="901.17" y="-916.3" font-family="Times,serif" font-size="14.00">contracts/libs/IexecLibCore_v5.sol</text>
</g>
<!-- 1 -->
<g id="node2" class="node">
<title>1</title>
<polygon fill="#f2f2f2" stroke="black" points="0,-540.3 0,-640.3 212.33,-640.3 212.33,-540.3 0,-540.3"/>
<text text-anchor="middle" x="106.17" y="-623.7" font-family="Times,serif" font-size="14.00">&lt;&lt;Struct&gt;&gt;</text>
<text text-anchor="middle" x="106.17" y="-606.9" font-family="Times,serif" font-size="14.00">Account</text>
<text text-anchor="middle" x="106.17" y="-590.1" font-family="Times,serif" font-size="14.00">contracts/libs/IexecLibCore_v5.sol</text>
<polyline fill="none" stroke="black" points="0,-581.9 212.33,-581.9 "/>
<text text-anchor="start" x="8" y="-565.3" font-family="Times,serif" font-size="14.00">stake: uint256</text>
<text text-anchor="start" x="8" y="-548.5" font-family="Times,serif" font-size="14.00">locked: uint256</text>
</g>
<!-- 1&#45;&gt;0 -->
<g id="edge3" class="edge">
<title>1&#45;&gt;0</title>
<path fill="none" stroke="black" d="M135.11,-640.47C155.56,-671.22 185.6,-709.38 221.17,-733.2 395.63,-850.01 639.14,-901.3 782.46,-922.54"/>
<polygon fill="black" stroke="black" points="782.86,-922.6 789.37,-919.5 794.74,-924.33 788.22,-927.42 782.86,-922.6"/>
</g>
<!-- 2 -->
<g id="node3" class="node">
<title>2</title>
<polygon fill="#f2f2f2" stroke="black" points="230,-531.9 230,-648.7 442.33,-648.7 442.33,-531.9 230,-531.9"/>
<text text-anchor="middle" x="336.17" y="-632.1" font-family="Times,serif" font-size="14.00">&lt;&lt;Struct&gt;&gt;</text>
<text text-anchor="middle" x="336.17" y="-615.3" font-family="Times,serif" font-size="14.00">Category</text>
<text text-anchor="middle" x="336.17" y="-598.5" font-family="Times,serif" font-size="14.00">contracts/libs/IexecLibCore_v5.sol</text>
<polyline fill="none" stroke="black" points="230,-590.3 442.33,-590.3 "/>
<text text-anchor="start" x="238" y="-573.7" font-family="Times,serif" font-size="14.00">name: string</text>
<text text-anchor="start" x="238" y="-556.9" font-family="Times,serif" font-size="14.00">description: string</text>
<text text-anchor="start" x="238" y="-540.1" font-family="Times,serif" font-size="14.00">workClockTimeRef: uint256</text>
</g>
<!-- 2&#45;&gt;0 -->
<g id="edge4" class="edge">
<title>2&#45;&gt;0</title>
<path fill="none" stroke="black" d="M375.39,-648.74C396.78,-676.9 425.18,-709.72 456.17,-733.2 561.59,-813.09 703.45,-870.95 798.39,-904.01"/>
<polygon fill="black" stroke="black" points="798.68,-904.11 805.65,-902.28 810.02,-908.02 803.05,-909.85 798.68,-904.11"/>
</g>
<!-- 3 -->
<g id="node4" class="node">
<title>3</title>
<polygon fill="#f2f2f2" stroke="black" points="498,-531.9 498,-648.7 710.33,-648.7 710.33,-531.9 498,-531.9"/>
<text text-anchor="middle" x="604.17" y="-632.1" font-family="Times,serif" font-size="14.00">&lt;&lt;Struct&gt;&gt;</text>
<text text-anchor="middle" x="604.17" y="-615.3" font-family="Times,serif" font-size="14.00">Resource</text>
<text text-anchor="middle" x="604.17" y="-598.5" font-family="Times,serif" font-size="14.00">contracts/libs/IexecLibCore_v5.sol</text>
<polyline fill="none" stroke="black" points="498,-590.3 710.33,-590.3 "/>
<text text-anchor="start" x="506" y="-573.7" font-family="Times,serif" font-size="14.00">pointer: address</text>
<text text-anchor="start" x="506" y="-556.9" font-family="Times,serif" font-size="14.00">owner: address</text>
<text text-anchor="start" x="506" y="-540.1" font-family="Times,serif" font-size="14.00">price: uint256</text>
</g>
<!-- 3&#45;&gt;0 -->
<g id="edge5" class="edge">
<title>3&#45;&gt;0</title>
<path fill="none" stroke="black" d="M649.69,-648.79C670.57,-674.81 695.82,-705.81 719.17,-733.2 769.32,-792.04 829.53,-858.44 866.57,-898.83"/>
<polygon fill="black" stroke="black" points="866.67,-898.94 873.68,-900.65 874.79,-907.77 867.79,-906.06 866.67,-898.94"/>
</g>
<!-- 4 -->
<g id="node5" class="node">
<title>4</title>
<polygon fill="#f2f2f2" stroke="black" points="364,-46.5 364,-364.9 576.33,-364.9 576.33,-46.5 364,-46.5"/>
<text text-anchor="middle" x="470.17" y="-348.3" font-family="Times,serif" font-size="14.00">&lt;&lt;Struct&gt;&gt;</text>
<text text-anchor="middle" x="470.17" y="-331.5" font-family="Times,serif" font-size="14.00">Deal</text>
<text text-anchor="middle" x="470.17" y="-314.7" font-family="Times,serif" font-size="14.00">contracts/libs/IexecLibCore_v5.sol</text>
<polyline fill="none" stroke="black" points="364,-306.5 576.33,-306.5 "/>
<text text-anchor="start" x="372" y="-289.9" font-family="Times,serif" font-size="14.00">app: Resource</text>
<text text-anchor="start" x="372" y="-273.1" font-family="Times,serif" font-size="14.00">dataset: Resource</text>
<text text-anchor="start" x="372" y="-256.3" font-family="Times,serif" font-size="14.00">workerpool: Resource</text>
<text text-anchor="start" x="372" y="-239.5" font-family="Times,serif" font-size="14.00">trust: uint256</text>
<text text-anchor="start" x="372" y="-222.7" font-family="Times,serif" font-size="14.00">category: uint256</text>
<text text-anchor="start" x="372" y="-205.9" font-family="Times,serif" font-size="14.00">tag: bytes32</text>
<text text-anchor="start" x="372" y="-189.1" font-family="Times,serif" font-size="14.00">requester: address</text>
<text text-anchor="start" x="372" y="-172.3" font-family="Times,serif" font-size="14.00">beneficiary: address</text>
<text text-anchor="start" x="372" y="-155.5" font-family="Times,serif" font-size="14.00">callback: address</text>
<text text-anchor="start" x="372" y="-138.7" font-family="Times,serif" font-size="14.00">params: string</text>
<text text-anchor="start" x="372" y="-121.9" font-family="Times,serif" font-size="14.00">startTime: uint256</text>
<text text-anchor="start" x="372" y="-105.1" font-family="Times,serif" font-size="14.00">botFirst: uint256</text>
<text text-anchor="start" x="372" y="-88.3" font-family="Times,serif" font-size="14.00">botSize: uint256</text>
<text text-anchor="start" x="372" y="-71.5" font-family="Times,serif" font-size="14.00">workerStake: uint256</text>
<text text-anchor="start" x="372" y="-54.7" font-family="Times,serif" font-size="14.00">schedulerRewardRatio: uint256</text>
</g>
<!-- 4&#45;&gt;0 -->
<g id="edge6" class="edge">
<title>4&#45;&gt;0</title>
<path fill="none" stroke="black" d="M458.47,-364.95C451.79,-497.58 451.12,-674.41 489.17,-733.2 554.64,-834.36 686.37,-886.86 783.32,-912.9"/>
<polygon fill="black" stroke="black" points="783.36,-912.91 790.17,-910.56 794.97,-915.95 788.15,-918.3 783.36,-912.91"/>
</g>
<!-- 4&#45;&gt;3 -->
<g id="edge11" class="edge">
<title>4&#45;&gt;3</title>
<path fill="none" stroke="black" stroke-dasharray="5,2" d="M525.64,-365.08C544.85,-419.93 565.36,-478.51 580.61,-522.03"/>
<polygon fill="black" stroke="black" points="577.36,-523.36 583.97,-531.64 583.97,-521.04 577.36,-523.36"/>
</g>
<!-- 5 -->
<g id="node6" class="node">
<title>5</title>
<polygon fill="#f2f2f2" stroke="black" points="728,-447.9 728,-732.7 940.33,-732.7 940.33,-447.9 728,-447.9"/>
<text text-anchor="middle" x="834.17" y="-716.1" font-family="Times,serif" font-size="14.00">&lt;&lt;Struct&gt;&gt;</text>
<text text-anchor="middle" x="834.17" y="-699.3" font-family="Times,serif" font-size="14.00">DealBoost</text>
<text text-anchor="middle" x="834.17" y="-682.5" font-family="Times,serif" font-size="14.00">contracts/libs/IexecLibCore_v5.sol</text>
<polyline fill="none" stroke="black" points="728,-674.3 940.33,-674.3 "/>
<text text-anchor="start" x="736" y="-657.7" font-family="Times,serif" font-size="14.00">appOwner: address</text>
<text text-anchor="start" x="736" y="-640.9" font-family="Times,serif" font-size="14.00">appPrice: uint96</text>
<text text-anchor="start" x="736" y="-624.1" font-family="Times,serif" font-size="14.00">datasetOwner: address</text>
<text text-anchor="start" x="736" y="-607.3" font-family="Times,serif" font-size="14.00">datasetPrice: uint96</text>
<text text-anchor="start" x="736" y="-590.5" font-family="Times,serif" font-size="14.00">workerpoolOwner: address</text>
<text text-anchor="start" x="736" y="-573.7" font-family="Times,serif" font-size="14.00">workerpoolPrice: uint96</text>
<text text-anchor="start" x="736" y="-556.9" font-family="Times,serif" font-size="14.00">requester: address</text>
<text text-anchor="start" x="736" y="-540.1" font-family="Times,serif" font-size="14.00">workerReward: uint96</text>
<text text-anchor="start" x="736" y="-523.3" font-family="Times,serif" font-size="14.00">callback: address</text>
<text text-anchor="start" x="736" y="-506.5" font-family="Times,serif" font-size="14.00">deadline: uint40</text>
<text text-anchor="start" x="736" y="-489.7" font-family="Times,serif" font-size="14.00">botFirst: uint16</text>
<text text-anchor="start" x="736" y="-472.9" font-family="Times,serif" font-size="14.00">botSize: uint16</text>
<text text-anchor="start" x="736" y="-456.1" font-family="Times,serif" font-size="14.00">shortTag: bytes3</text>
</g>
<!-- 5&#45;&gt;0 -->
<g id="edge7" class="edge">
<title>5&#45;&gt;0</title>
<path fill="none" stroke="black" d="M861.71,-733.12C873.17,-792.11 885.58,-856.05 893.37,-896.12"/>
<polygon fill="black" stroke="black" points="893.39,-896.23 898.46,-901.36 895.67,-908.01 890.6,-902.89 893.39,-896.23"/>
</g>
<!-- 6 -->
<g id="node7" class="node">
<title>6</title>
<polygon fill="#f2f2f2" stroke="black" points="996,-515.1 996,-665.5 1208.33,-665.5 1208.33,-515.1 996,-515.1"/>
<text text-anchor="middle" x="1102.17" y="-648.9" font-family="Times,serif" font-size="14.00">&lt;&lt;Enum&gt;&gt;</text>
<text text-anchor="middle" x="1102.17" y="-632.1" font-family="Times,serif" font-size="14.00">TaskStatusEnum</text>
<text text-anchor="middle" x="1102.17" y="-615.3" font-family="Times,serif" font-size="14.00">contracts/libs/IexecLibCore_v5.sol</text>
<polyline fill="none" stroke="black" points="996,-607.1 1208.33,-607.1 "/>
<text text-anchor="start" x="1004" y="-590.5" font-family="Times,serif" font-size="14.00">UNSET: 0</text>
<text text-anchor="start" x="1004" y="-573.7" font-family="Times,serif" font-size="14.00">ACTIVE: 1</text>
<text text-anchor="start" x="1004" y="-556.9" font-family="Times,serif" font-size="14.00">REVEALING: 2</text>
<text text-anchor="start" x="1004" y="-540.1" font-family="Times,serif" font-size="14.00">COMPLETED: 3</text>
<text text-anchor="start" x="1004" y="-523.3" font-family="Times,serif" font-size="14.00">FAILED: 4</text>
</g>
<!-- 6&#45;&gt;0 -->
<g id="edge1" class="edge">
<title>6&#45;&gt;0</title>
<path fill="none" stroke="black" d="M1058.8,-665.74C1017.36,-736.86 956.52,-841.29 923.87,-897.34"/>
<polygon fill="black" stroke="black" points="923.77,-897.51 924.2,-904.71 917.73,-907.88 917.29,-900.68 923.77,-897.51"/>
</g>
<!-- 7 -->
<g id="node8" class="node">
<title>7</title>
<polygon fill="#f2f2f2" stroke="black" points="862,-46.5 862,-364.9 1074.33,-364.9 1074.33,-46.5 862,-46.5"/>
<text text-anchor="middle" x="968.17" y="-348.3" font-family="Times,serif" font-size="14.00">&lt;&lt;Struct&gt;&gt;</text>
<text text-anchor="middle" x="968.17" y="-331.5" font-family="Times,serif" font-size="14.00">Task</text>
<text text-anchor="middle" x="968.17" y="-314.7" font-family="Times,serif" font-size="14.00">contracts/libs/IexecLibCore_v5.sol</text>
<polyline fill="none" stroke="black" points="862,-306.5 1074.33,-306.5 "/>
<text text-anchor="start" x="870" y="-289.9" font-family="Times,serif" font-size="14.00">status: TaskStatusEnum</text>
<text text-anchor="start" x="870" y="-273.1" font-family="Times,serif" font-size="14.00">dealid: bytes32</text>
<text text-anchor="start" x="870" y="-256.3" font-family="Times,serif" font-size="14.00">idx: uint256</text>
<text text-anchor="start" x="870" y="-239.5" font-family="Times,serif" font-size="14.00">timeref: uint256</text>
<text text-anchor="start" x="870" y="-222.7" font-family="Times,serif" font-size="14.00">contributionDeadline: uint256</text>
<text text-anchor="start" x="870" y="-205.9" font-family="Times,serif" font-size="14.00">revealDeadline: uint256</text>
<text text-anchor="start" x="870" y="-189.1" font-family="Times,serif" font-size="14.00">finalDeadline: uint256</text>
<text text-anchor="start" x="870" y="-172.3" font-family="Times,serif" font-size="14.00">consensusValue: bytes32</text>
<text text-anchor="start" x="870" y="-155.5" font-family="Times,serif" font-size="14.00">revealCounter: uint256</text>
<text text-anchor="start" x="870" y="-138.7" font-family="Times,serif" font-size="14.00">winnerCounter: uint256</text>
<text text-anchor="start" x="870" y="-121.9" font-family="Times,serif" font-size="14.00">contributors: address[]</text>
<text text-anchor="start" x="870" y="-105.1" font-family="Times,serif" font-size="14.00">resultDigest: bytes32</text>
<text text-anchor="start" x="870" y="-88.3" font-family="Times,serif" font-size="14.00">results: bytes</text>
<text text-anchor="start" x="870" y="-71.5" font-family="Times,serif" font-size="14.00">resultsTimestamp: uint256</text>
<text text-anchor="start" x="870" y="-54.7" font-family="Times,serif" font-size="14.00">resultsCallback: bytes</text>
</g>
<!-- 7&#45;&gt;0 -->
<g id="edge8" class="edge">
<title>7&#45;&gt;0</title>
<path fill="none" stroke="black" d="M970.51,-364.91C970.09,-469.81 965.75,-610.26 949.17,-733.2 941.4,-790.76 924.54,-855.87 913.02,-896.5"/>
<polygon fill="black" stroke="black" points="913.02,-896.51 915.21,-903.38 909.71,-908.04 907.52,-901.17 913.02,-896.51"/>
</g>
<!-- 7&#45;&gt;6 -->
<g id="edge12" class="edge">
<title>7&#45;&gt;6</title>
<path fill="none" stroke="black" stroke-dasharray="5,2" d="M1023.64,-365.08C1040.5,-413.24 1058.38,-464.26 1072.8,-505.45"/>
<polygon fill="black" stroke="black" points="1069.5,-506.61 1076.11,-514.89 1076.11,-504.3 1069.5,-506.61"/>
</g>
<!-- 8 -->
<g id="node9" class="node">
<title>8</title>
<polygon fill="#f2f2f2" stroke="black" points="1225.92,-540.3 1225.92,-640.3 1442.41,-640.3 1442.41,-540.3 1225.92,-540.3"/>
<text text-anchor="middle" x="1334.17" y="-623.7" font-family="Times,serif" font-size="14.00">&lt;&lt;Struct&gt;&gt;</text>
<text text-anchor="middle" x="1334.17" y="-606.9" font-family="Times,serif" font-size="14.00">Consensus</text>
<text text-anchor="middle" x="1334.17" y="-590.1" font-family="Times,serif" font-size="14.00">contracts/libs/IexecLibCore_v5.sol</text>
<polyline fill="none" stroke="black" points="1225.92,-581.9 1442.41,-581.9 "/>
<text text-anchor="start" x="1233.92" y="-565.3" font-family="Times,serif" font-size="14.00">group: mapping(bytes32=&gt;uint256)</text>
<text text-anchor="start" x="1233.92" y="-548.5" font-family="Times,serif" font-size="14.00">total: uint256</text>
</g>
<!-- 8&#45;&gt;0 -->
<g id="edge9" class="edge">
<title>8&#45;&gt;0</title>
<path fill="none" stroke="black" d="M1299.59,-640.55C1277.89,-669.47 1248.2,-705.64 1217.17,-733.2 1138.53,-803.04 1033.56,-865.49 966.65,-902.14"/>
<polygon fill="black" stroke="black" points="966.38,-902.29 963.02,-908.67 955.84,-908.02 959.2,-901.64 966.38,-902.29"/>
</g>
<!-- 9 -->
<g id="node10" class="node">
<title>9</title>
<polygon fill="#f2f2f2" stroke="black" points="1498,-523.5 1498,-657.1 1710.33,-657.1 1710.33,-523.5 1498,-523.5"/>
<text text-anchor="middle" x="1604.17" y="-640.5" font-family="Times,serif" font-size="14.00">&lt;&lt;Enum&gt;&gt;</text>
<text text-anchor="middle" x="1604.17" y="-623.7" font-family="Times,serif" font-size="14.00">ContributionStatusEnum</text>
<text text-anchor="middle" x="1604.17" y="-606.9" font-family="Times,serif" font-size="14.00">contracts/libs/IexecLibCore_v5.sol</text>
<polyline fill="none" stroke="black" points="1498,-598.7 1710.33,-598.7 "/>
<text text-anchor="start" x="1506" y="-582.1" font-family="Times,serif" font-size="14.00">UNSET: 0</text>
<text text-anchor="start" x="1506" y="-565.3" font-family="Times,serif" font-size="14.00">CONTRIBUTED: 1</text>
<text text-anchor="start" x="1506" y="-548.5" font-family="Times,serif" font-size="14.00">PROVED: 2</text>
<text text-anchor="start" x="1506" y="-531.7" font-family="Times,serif" font-size="14.00">REJECTED: 3</text>
</g>
<!-- 9&#45;&gt;0 -->
<g id="edge2" class="edge">
<title>9&#45;&gt;0</title>
<path fill="none" stroke="black" d="M1560.41,-657.14C1539.93,-683.81 1513.55,-713.01 1484.17,-733.2 1340.29,-832.06 1143.51,-887.34 1019.37,-914.47"/>
<polygon fill="black" stroke="black" points="1019.32,-914.48 1014.3,-919.66 1007.59,-917.01 1012.61,-911.83 1019.32,-914.48"/>
</g>
<!-- 10 -->
<g id="node11" class="node">
<title>10</title>
<polygon fill="#f2f2f2" stroke="black" points="1364,-130.5 1364,-280.9 1576.33,-280.9 1576.33,-130.5 1364,-130.5"/>
<text text-anchor="middle" x="1470.17" y="-264.3" font-family="Times,serif" font-size="14.00">&lt;&lt;Struct&gt;&gt;</text>
<text text-anchor="middle" x="1470.17" y="-247.5" font-family="Times,serif" font-size="14.00">Contribution</text>
<text text-anchor="middle" x="1470.17" y="-230.7" font-family="Times,serif" font-size="14.00">contracts/libs/IexecLibCore_v5.sol</text>
<polyline fill="none" stroke="black" points="1364,-222.5 1576.33,-222.5 "/>
<text text-anchor="start" x="1372" y="-205.9" font-family="Times,serif" font-size="14.00">status: ContributionStatusEnum</text>
<text text-anchor="start" x="1372" y="-189.1" font-family="Times,serif" font-size="14.00">resultHash: bytes32</text>
<text text-anchor="start" x="1372" y="-172.3" font-family="Times,serif" font-size="14.00">resultSeal: bytes32</text>
<text text-anchor="start" x="1372" y="-155.5" font-family="Times,serif" font-size="14.00">enclaveChallenge: address</text>
<text text-anchor="start" x="1372" y="-138.7" font-family="Times,serif" font-size="14.00">weight: uint256</text>
</g>
<!-- 10&#45;&gt;0 -->
<g id="edge10" class="edge">
<title>10&#45;&gt;0</title>
<path fill="none" stroke="black" d="M1477.32,-281.12C1488.02,-408.91 1501.92,-663.09 1451.17,-733.2 1351.86,-870.39 1149.31,-915.04 1019.67,-929.49"/>
<polygon fill="black" stroke="black" points="1019.29,-929.53 1013.75,-934.14 1007.36,-930.8 1012.9,-926.19 1019.29,-929.53"/>
</g>
<!-- 10&#45;&gt;9 -->
<g id="edge13" class="edge">
<title>10&#45;&gt;9</title>
<path fill="none" stroke="black" stroke-dasharray="5,2" d="M1496.16,-280.92C1519.63,-347.93 1554,-446.07 1577.63,-513.54"/>
<polygon fill="black" stroke="black" points="1574.43,-514.99 1581.04,-523.27 1581.04,-512.67 1574.43,-514.99"/>
</g>
<!-- 11 -->
<g id="node12" class="node">
<title>11</title>
<polygon fill="#f2f2f2" stroke="black" points="2350.4,-0.5 2350.4,-410.9 2783.93,-410.9 2783.93,-0.5 2350.4,-0.5"/>
<text text-anchor="middle" x="2567.17" y="-394.3" font-family="Times,serif" font-size="14.00">&lt;&lt;Library&gt;&gt;</text>
<text text-anchor="middle" x="2567.17" y="-377.5" font-family="Times,serif" font-size="14.00">IexecLibOrders_v5</text>
<text text-anchor="middle" x="2567.17" y="-360.7" font-family="Times,serif" font-size="14.00">contracts/libs/IexecLibOrders_v5.sol</text>
<polyline fill="none" stroke="black" points="2350.4,-352.5 2783.93,-352.5 "/>
<text text-anchor="start" x="2358.4" y="-335.9" font-family="Times,serif" font-size="14.00">Public:</text>
<text text-anchor="start" x="2358.4" y="-319.1" font-family="Times,serif" font-size="14.00"> &#160;&#160;EIP712DOMAIN_TYPEHASH: bytes32</text>
<text text-anchor="start" x="2358.4" y="-302.3" font-family="Times,serif" font-size="14.00"> &#160;&#160;APPORDER_TYPEHASH: bytes32</text>
<text text-anchor="start" x="2358.4" y="-285.5" font-family="Times,serif" font-size="14.00"> &#160;&#160;DATASETORDER_TYPEHASH: bytes32</text>
<text text-anchor="start" x="2358.4" y="-268.7" font-family="Times,serif" font-size="14.00"> &#160;&#160;WORKERPOOLORDER_TYPEHASH: bytes32</text>
<text text-anchor="start" x="2358.4" y="-251.9" font-family="Times,serif" font-size="14.00"> &#160;&#160;REQUESTORDER_TYPEHASH: bytes32</text>
<text text-anchor="start" x="2358.4" y="-235.1" font-family="Times,serif" font-size="14.00"> &#160;&#160;APPORDEROPERATION_TYPEHASH: bytes32</text>
<text text-anchor="start" x="2358.4" y="-218.3" font-family="Times,serif" font-size="14.00"> &#160;&#160;DATASETORDEROPERATION_TYPEHASH: bytes32</text>
<text text-anchor="start" x="2358.4" y="-201.5" font-family="Times,serif" font-size="14.00"> &#160;&#160;WORKERPOOLORDEROPERATION_TYPEHASH: bytes32</text>
<text text-anchor="start" x="2358.4" y="-184.7" font-family="Times,serif" font-size="14.00"> &#160;&#160;REQUESTORDEROPERATION_TYPEHASH: bytes32</text>
<polyline fill="none" stroke="black" points="2350.4,-176.5 2783.93,-176.5 "/>
<text text-anchor="start" x="2358.4" y="-159.9" font-family="Times,serif" font-size="14.00">Public:</text>
<text text-anchor="start" x="2358.4" y="-143.1" font-family="Times,serif" font-size="14.00"> &#160;&#160;&#160;hash(_domain: EIP712Domain): (domainhash: bytes32)</text>
<text text-anchor="start" x="2358.4" y="-126.3" font-family="Times,serif" font-size="14.00"> &#160;&#160;&#160;hash(_apporder: AppOrder): (apphash: bytes32)</text>
<text text-anchor="start" x="2358.4" y="-109.5" font-family="Times,serif" font-size="14.00"> &#160;&#160;&#160;hash(_datasetorder: DatasetOrder): (datasethash: bytes32)</text>
<text text-anchor="start" x="2358.4" y="-92.7" font-family="Times,serif" font-size="14.00"> &#160;&#160;&#160;hash(_workerpoolorder: WorkerpoolOrder): (workerpoolhash: bytes32)</text>
<text text-anchor="start" x="2358.4" y="-75.9" font-family="Times,serif" font-size="14.00"> &#160;&#160;&#160;hash(_requestorder: RequestOrder): (requesthash: bytes32)</text>
<text text-anchor="start" x="2358.4" y="-59.1" font-family="Times,serif" font-size="14.00"> &#160;&#160;&#160;hash(_apporderoperation: AppOrderOperation): bytes32</text>
<text text-anchor="start" x="2358.4" y="-42.3" font-family="Times,serif" font-size="14.00"> &#160;&#160;&#160;hash(_datasetorderoperation: DatasetOrderOperation): bytes32</text>
<text text-anchor="start" x="2358.4" y="-25.5" font-family="Times,serif" font-size="14.00"> &#160;&#160;&#160;hash(_workerpoolorderoperation: WorkerpoolOrderOperation): bytes32</text>
<text text-anchor="start" x="2358.4" y="-8.7" font-family="Times,serif" font-size="14.00"> &#160;&#160;&#160;hash(_requestorderoperation: RequestOrderOperation): bytes32</text>
</g>
<!-- 13 -->
<g id="node14" class="node">
<title>13</title>
<polygon fill="#f2f2f2" stroke="black" points="1728.56,-523.5 1728.56,-657.1 1951.78,-657.1 1951.78,-523.5 1728.56,-523.5"/>
<text text-anchor="middle" x="1840.17" y="-640.5" font-family="Times,serif" font-size="14.00">&lt;&lt;Struct&gt;&gt;</text>
<text text-anchor="middle" x="1840.17" y="-623.7" font-family="Times,serif" font-size="14.00">EIP712Domain</text>
<text text-anchor="middle" x="1840.17" y="-606.9" font-family="Times,serif" font-size="14.00">contracts/libs/IexecLibOrders_v5.sol</text>
<polyline fill="none" stroke="black" points="1728.56,-598.7 1951.78,-598.7 "/>
<text text-anchor="start" x="1736.56" y="-582.1" font-family="Times,serif" font-size="14.00">name: string</text>
<text text-anchor="start" x="1736.56" y="-565.3" font-family="Times,serif" font-size="14.00">version: string</text>
<text text-anchor="start" x="1736.56" y="-548.5" font-family="Times,serif" font-size="14.00">chainId: uint256</text>
<text text-anchor="start" x="1736.56" y="-531.7" font-family="Times,serif" font-size="14.00">verifyingContract: address</text>
</g>
<!-- 11&#45;&gt;13 -->
<g id="edge24" class="edge">
<title>11&#45;&gt;13</title>
<path fill="none" stroke="black" stroke-dasharray="5,2" d="M2350.27,-263.95C2227.75,-303.42 2075.89,-363.92 1957.17,-447.4 1930.54,-466.12 1905.69,-491.53 1885.74,-515.68"/>
<polygon fill="black" stroke="black" points="1883.01,-513.49 1879.44,-523.46 1888.45,-517.89 1883.01,-513.49"/>
</g>
<!-- 14 -->
<g id="node15" class="node">
<title>14</title>
<polygon fill="#f2f2f2" stroke="black" points="1877.56,-828.5 1877.56,-1046.1 2100.78,-1046.1 2100.78,-828.5 1877.56,-828.5"/>
<text text-anchor="middle" x="1989.17" y="-1029.5" font-family="Times,serif" font-size="14.00">&lt;&lt;Struct&gt;&gt;</text>
<text text-anchor="middle" x="1989.17" y="-1012.7" font-family="Times,serif" font-size="14.00">AppOrder</text>
<text text-anchor="middle" x="1989.17" y="-995.9" font-family="Times,serif" font-size="14.00">contracts/libs/IexecLibOrders_v5.sol</text>
<polyline fill="none" stroke="black" points="1877.56,-987.7 2100.78,-987.7 "/>
<text text-anchor="start" x="1885.56" y="-971.1" font-family="Times,serif" font-size="14.00">app: address</text>
<text text-anchor="start" x="1885.56" y="-954.3" font-family="Times,serif" font-size="14.00">appprice: uint256</text>
<text text-anchor="start" x="1885.56" y="-937.5" font-family="Times,serif" font-size="14.00">volume: uint256</text>
<text text-anchor="start" x="1885.56" y="-920.7" font-family="Times,serif" font-size="14.00">tag: bytes32</text>
<text text-anchor="start" x="1885.56" y="-903.9" font-family="Times,serif" font-size="14.00">datasetrestrict: address</text>
<text text-anchor="start" x="1885.56" y="-887.1" font-family="Times,serif" font-size="14.00">workerpoolrestrict: address</text>
<text text-anchor="start" x="1885.56" y="-870.3" font-family="Times,serif" font-size="14.00">requesterrestrict: address</text>
<text text-anchor="start" x="1885.56" y="-853.5" font-family="Times,serif" font-size="14.00">salt: bytes32</text>
<text text-anchor="start" x="1885.56" y="-836.7" font-family="Times,serif" font-size="14.00">sign: bytes</text>
</g>
<!-- 11&#45;&gt;14 -->
<g id="edge25" class="edge">
<title>11&#45;&gt;14</title>
<path fill="none" stroke="black" stroke-dasharray="5,2" d="M2350.15,-242.55C2228.6,-274.79 2086.21,-335.2 2008.17,-447.4 1967.93,-505.25 1968.06,-693.16 1975.6,-818.45"/>
<polygon fill="black" stroke="black" points="1972.11,-818.72 1976.22,-828.48 1979.09,-818.28 1972.11,-818.72"/>
</g>
<!-- 15 -->
<g id="node16" class="node">
<title>15</title>
<polygon fill="#f2f2f2" stroke="black" points="2455.56,-828.5 2455.56,-1046.1 2678.78,-1046.1 2678.78,-828.5 2455.56,-828.5"/>
<text text-anchor="middle" x="2567.17" y="-1029.5" font-family="Times,serif" font-size="14.00">&lt;&lt;Struct&gt;&gt;</text>
<text text-anchor="middle" x="2567.17" y="-1012.7" font-family="Times,serif" font-size="14.00">DatasetOrder</text>
<text text-anchor="middle" x="2567.17" y="-995.9" font-family="Times,serif" font-size="14.00">contracts/libs/IexecLibOrders_v5.sol</text>
<polyline fill="none" stroke="black" points="2455.56,-987.7 2678.78,-987.7 "/>
<text text-anchor="start" x="2463.56" y="-971.1" font-family="Times,serif" font-size="14.00">dataset: address</text>
<text text-anchor="start" x="2463.56" y="-954.3" font-family="Times,serif" font-size="14.00">datasetprice: uint256</text>
<text text-anchor="start" x="2463.56" y="-937.5" font-family="Times,serif" font-size="14.00">volume: uint256</text>
<text text-anchor="start" x="2463.56" y="-920.7" font-family="Times,serif" font-size="14.00">tag: bytes32</text>
<text text-anchor="start" x="2463.56" y="-903.9" font-family="Times,serif" font-size="14.00">apprestrict: address</text>
<text text-anchor="start" x="2463.56" y="-887.1" font-family="Times,serif" font-size="14.00">workerpoolrestrict: address</text>
<text text-anchor="start" x="2463.56" y="-870.3" font-family="Times,serif" font-size="14.00">requesterrestrict: address</text>
<text text-anchor="start" x="2463.56" y="-853.5" font-family="Times,serif" font-size="14.00">salt: bytes32</text>
<text text-anchor="start" x="2463.56" y="-836.7" font-family="Times,serif" font-size="14.00">sign: bytes</text>
</g>
<!-- 11&#45;&gt;15 -->
<g id="edge26" class="edge">
<title>11&#45;&gt;15</title>
<path fill="none" stroke="black" stroke-dasharray="5,2" d="M2561.04,-410.9C2559.96,-542.23 2560.29,-708.25 2562.04,-818.13"/>
<polygon fill="black" stroke="black" points="2558.54,-818.31 2562.21,-828.26 2565.54,-818.2 2558.54,-818.31"/>
</g>
<!-- 16 -->
<g id="node17" class="node">
<title>16</title>
<polygon fill="#f2f2f2" stroke="black" points="2753.56,-811.7 2753.56,-1062.9 2976.78,-1062.9 2976.78,-811.7 2753.56,-811.7"/>
<text text-anchor="middle" x="2865.17" y="-1046.3" font-family="Times,serif" font-size="14.00">&lt;&lt;Struct&gt;&gt;</text>
<text text-anchor="middle" x="2865.17" y="-1029.5" font-family="Times,serif" font-size="14.00">WorkerpoolOrder</text>
<text text-anchor="middle" x="2865.17" y="-1012.7" font-family="Times,serif" font-size="14.00">contracts/libs/IexecLibOrders_v5.sol</text>
<polyline fill="none" stroke="black" points="2753.56,-1004.5 2976.78,-1004.5 "/>
<text text-anchor="start" x="2761.56" y="-987.9" font-family="Times,serif" font-size="14.00">workerpool: address</text>
<text text-anchor="start" x="2761.56" y="-971.1" font-family="Times,serif" font-size="14.00">workerpoolprice: uint256</text>
<text text-anchor="start" x="2761.56" y="-954.3" font-family="Times,serif" font-size="14.00">volume: uint256</text>
<text text-anchor="start" x="2761.56" y="-937.5" font-family="Times,serif" font-size="14.00">tag: bytes32</text>
<text text-anchor="start" x="2761.56" y="-920.7" font-family="Times,serif" font-size="14.00">category: uint256</text>
<text text-anchor="start" x="2761.56" y="-903.9" font-family="Times,serif" font-size="14.00">trust: uint256</text>
<text text-anchor="start" x="2761.56" y="-887.1" font-family="Times,serif" font-size="14.00">apprestrict: address</text>
<text text-anchor="start" x="2761.56" y="-870.3" font-family="Times,serif" font-size="14.00">datasetrestrict: address</text>
<text text-anchor="start" x="2761.56" y="-853.5" font-family="Times,serif" font-size="14.00">requesterrestrict: address</text>
<text text-anchor="start" x="2761.56" y="-836.7" font-family="Times,serif" font-size="14.00">salt: bytes32</text>
<text text-anchor="start" x="2761.56" y="-819.9" font-family="Times,serif" font-size="14.00">sign: bytes</text>
</g>
<!-- 11&#45;&gt;16 -->
<g id="edge27" class="edge">
<title>11&#45;&gt;16</title>
<path fill="none" stroke="black" stroke-dasharray="5,2" d="M2784.13,-379.55C2801.36,-400.68 2816.56,-423.37 2828.17,-447.4 2881.53,-557.88 2883.63,-699.18 2876.91,-801.43"/>
<polygon fill="black" stroke="black" points="2873.41,-801.29 2876.21,-811.51 2880.4,-801.77 2873.41,-801.29"/>
</g>
<!-- 17 -->
<g id="node18" class="node">
<title>17</title>
<polygon fill="#f2f2f2" stroke="black" points="3051.56,-769.7 3051.56,-1104.9 3274.78,-1104.9 3274.78,-769.7 3051.56,-769.7"/>
<text text-anchor="middle" x="3163.17" y="-1088.3" font-family="Times,serif" font-size="14.00">&lt;&lt;Struct&gt;&gt;</text>
<text text-anchor="middle" x="3163.17" y="-1071.5" font-family="Times,serif" font-size="14.00">RequestOrder</text>
<text text-anchor="middle" x="3163.17" y="-1054.7" font-family="Times,serif" font-size="14.00">contracts/libs/IexecLibOrders_v5.sol</text>
<polyline fill="none" stroke="black" points="3051.56,-1046.5 3274.78,-1046.5 "/>
<text text-anchor="start" x="3059.56" y="-1029.9" font-family="Times,serif" font-size="14.00">app: address</text>
<text text-anchor="start" x="3059.56" y="-1013.1" font-family="Times,serif" font-size="14.00">appmaxprice: uint256</text>
<text text-anchor="start" x="3059.56" y="-996.3" font-family="Times,serif" font-size="14.00">dataset: address</text>
<text text-anchor="start" x="3059.56" y="-979.5" font-family="Times,serif" font-size="14.00">datasetmaxprice: uint256</text>
<text text-anchor="start" x="3059.56" y="-962.7" font-family="Times,serif" font-size="14.00">workerpool: address</text>
<text text-anchor="start" x="3059.56" y="-945.9" font-family="Times,serif" font-size="14.00">workerpoolmaxprice: uint256</text>
<text text-anchor="start" x="3059.56" y="-929.1" font-family="Times,serif" font-size="14.00">requester: address</text>
<text text-anchor="start" x="3059.56" y="-912.3" font-family="Times,serif" font-size="14.00">volume: uint256</text>
<text text-anchor="start" x="3059.56" y="-895.5" font-family="Times,serif" font-size="14.00">tag: bytes32</text>
<text text-anchor="start" x="3059.56" y="-878.7" font-family="Times,serif" font-size="14.00">category: uint256</text>
<text text-anchor="start" x="3059.56" y="-861.9" font-family="Times,serif" font-size="14.00">trust: uint256</text>
<text text-anchor="start" x="3059.56" y="-845.1" font-family="Times,serif" font-size="14.00">beneficiary: address</text>
<text text-anchor="start" x="3059.56" y="-828.3" font-family="Times,serif" font-size="14.00">callback: address</text>
<text text-anchor="start" x="3059.56" y="-811.5" font-family="Times,serif" font-size="14.00">params: string</text>
<text text-anchor="start" x="3059.56" y="-794.7" font-family="Times,serif" font-size="14.00">salt: bytes32</text>
<text text-anchor="start" x="3059.56" y="-777.9" font-family="Times,serif" font-size="14.00">sign: bytes</text>
</g>
<!-- 11&#45;&gt;17 -->
<g id="edge28" class="edge">
<title>11&#45;&gt;17</title>
<path fill="none" stroke="black" stroke-dasharray="5,2" d="M2784.09,-242.99C2905.23,-275.14 3047.23,-335.32 3126.17,-447.4 3189,-536.61 3195.87,-659.25 3188.23,-759.38"/>
<polygon fill="black" stroke="black" points="3184.72,-759.36 3187.39,-769.61 3191.69,-759.93 3184.72,-759.36"/>
</g>
<!-- 18 -->
<g id="node19" class="node">
<title>18</title>
<polygon fill="#f2f2f2" stroke="black" points="2026.56,-531.9 2026.56,-648.7 2249.78,-648.7 2249.78,-531.9 2026.56,-531.9"/>
<text text-anchor="middle" x="2138.17" y="-632.1" font-family="Times,serif" font-size="14.00">&lt;&lt;Struct&gt;&gt;</text>
<text text-anchor="middle" x="2138.17" y="-615.3" font-family="Times,serif" font-size="14.00">AppOrderOperation</text>
<text text-anchor="middle" x="2138.17" y="-598.5" font-family="Times,serif" font-size="14.00">contracts/libs/IexecLibOrders_v5.sol</text>
<polyline fill="none" stroke="black" points="2026.56,-590.3 2249.78,-590.3 "/>
<text text-anchor="start" x="2034.56" y="-573.7" font-family="Times,serif" font-size="14.00">order: AppOrder</text>
<text text-anchor="start" x="2034.56" y="-556.9" font-family="Times,serif" font-size="14.00">operation: OrderOperationEnum</text>
<text text-anchor="start" x="2034.56" y="-540.1" font-family="Times,serif" font-size="14.00">sign: bytes</text>
</g>
<!-- 11&#45;&gt;18 -->
<g id="edge29" class="edge">
<title>11&#45;&gt;18</title>
<path fill="none" stroke="black" stroke-dasharray="5,2" d="M2350.1,-364.21C2317.44,-391.05 2284.81,-419.34 2255.17,-447.4 2230.23,-471.01 2204.72,-498.91 2183.83,-523.7"/>
<polygon fill="black" stroke="black" points="2180.94,-521.71 2177.22,-531.63 2186.31,-526.19 2180.94,-521.71"/>
</g>
<!-- 19 -->
<g id="node20" class="node">
<title>19</title>
<polygon fill="#f2f2f2" stroke="black" points="2306.56,-531.9 2306.56,-648.7 2529.78,-648.7 2529.78,-531.9 2306.56,-531.9"/>
<text text-anchor="middle" x="2418.17" y="-632.1" font-family="Times,serif" font-size="14.00">&lt;&lt;Struct&gt;&gt;</text>
<text text-anchor="middle" x="2418.17" y="-615.3" font-family="Times,serif" font-size="14.00">DatasetOrderOperation</text>
<text text-anchor="middle" x="2418.17" y="-598.5" font-family="Times,serif" font-size="14.00">contracts/libs/IexecLibOrders_v5.sol</text>
<polyline fill="none" stroke="black" points="2306.56,-590.3 2529.78,-590.3 "/>
<text text-anchor="start" x="2314.56" y="-573.7" font-family="Times,serif" font-size="14.00">order: DatasetOrder</text>
<text text-anchor="start" x="2314.56" y="-556.9" font-family="Times,serif" font-size="14.00">operation: OrderOperationEnum</text>
<text text-anchor="start" x="2314.56" y="-540.1" font-family="Times,serif" font-size="14.00">sign: bytes</text>
</g>
<!-- 11&#45;&gt;19 -->
<g id="edge30" class="edge">
<title>11&#45;&gt;19</title>
<path fill="none" stroke="black" stroke-dasharray="5,2" d="M2480.81,-411.16C2465.26,-451.3 2450.42,-490.66 2439.04,-522.13"/>
<polygon fill="black" stroke="black" points="2435.72,-521.04 2435.63,-531.64 2442.3,-523.41 2435.72,-521.04"/>
</g>
<!-- 20 -->
<g id="node21" class="node">
<title>20</title>
<polygon fill="#f2f2f2" stroke="black" points="2604.56,-531.9 2604.56,-648.7 2827.78,-648.7 2827.78,-531.9 2604.56,-531.9"/>
<text text-anchor="middle" x="2716.17" y="-632.1" font-family="Times,serif" font-size="14.00">&lt;&lt;Struct&gt;&gt;</text>
<text text-anchor="middle" x="2716.17" y="-615.3" font-family="Times,serif" font-size="14.00">WorkerpoolOrderOperation</text>
<text text-anchor="middle" x="2716.17" y="-598.5" font-family="Times,serif" font-size="14.00">contracts/libs/IexecLibOrders_v5.sol</text>
<polyline fill="none" stroke="black" points="2604.56,-590.3 2827.78,-590.3 "/>
<text text-anchor="start" x="2612.56" y="-573.7" font-family="Times,serif" font-size="14.00">order: WorkerpoolOrder</text>
<text text-anchor="start" x="2612.56" y="-556.9" font-family="Times,serif" font-size="14.00">operation: OrderOperationEnum</text>
<text text-anchor="start" x="2612.56" y="-540.1" font-family="Times,serif" font-size="14.00">sign: bytes</text>
</g>
<!-- 11&#45;&gt;20 -->
<g id="edge31" class="edge">
<title>11&#45;&gt;20</title>
<path fill="none" stroke="black" stroke-dasharray="5,2" d="M2640.06,-411.16C2655.77,-451.3 2671.59,-490.66 2684.73,-522.13"/>
<polygon fill="black" stroke="black" points="2681.62,-523.77 2688.72,-531.64 2688.07,-521.06 2681.62,-523.77"/>
</g>
<!-- 21 -->
<g id="node22" class="node">
<title>21</title>
<polygon fill="#f2f2f2" stroke="black" points="2902.56,-531.9 2902.56,-648.7 3125.78,-648.7 3125.78,-531.9 2902.56,-531.9"/>
<text text-anchor="middle" x="3014.17" y="-632.1" font-family="Times,serif" font-size="14.00">&lt;&lt;Struct&gt;&gt;</text>
<text text-anchor="middle" x="3014.17" y="-615.3" font-family="Times,serif" font-size="14.00">RequestOrderOperation</text>
<text text-anchor="middle" x="3014.17" y="-598.5" font-family="Times,serif" font-size="14.00">contracts/libs/IexecLibOrders_v5.sol</text>
<polyline fill="none" stroke="black" points="2902.56,-590.3 3125.78,-590.3 "/>
<text text-anchor="start" x="2910.56" y="-573.7" font-family="Times,serif" font-size="14.00">order: RequestOrder</text>
<text text-anchor="start" x="2910.56" y="-556.9" font-family="Times,serif" font-size="14.00">operation: OrderOperationEnum</text>
<text text-anchor="start" x="2910.56" y="-540.1" font-family="Times,serif" font-size="14.00">sign: bytes</text>
</g>
<!-- 11&#45;&gt;21 -->
<g id="edge32" class="edge">
<title>11&#45;&gt;21</title>
<path fill="none" stroke="black" stroke-dasharray="5,2" d="M2783.96,-366.83C2816.71,-392.72 2849.44,-420.04 2879.17,-447.4 2904.65,-470.86 2930.45,-498.98 2952.63,-523.98"/>
<polygon fill="black" stroke="black" points="2950.15,-526.45 2959.4,-531.62 2955.4,-521.81 2950.15,-526.45"/>
</g>
<!-- 12 -->
<g id="node13" class="node">
<title>12</title>
<polygon fill="#f2f2f2" stroke="black" points="2190.56,-887.3 2190.56,-987.3 2413.78,-987.3 2413.78,-887.3 2190.56,-887.3"/>
<text text-anchor="middle" x="2302.17" y="-970.7" font-family="Times,serif" font-size="14.00">&lt;&lt;Enum&gt;&gt;</text>
<text text-anchor="middle" x="2302.17" y="-953.9" font-family="Times,serif" font-size="14.00">OrderOperationEnum</text>
<text text-anchor="middle" x="2302.17" y="-937.1" font-family="Times,serif" font-size="14.00">contracts/libs/IexecLibOrders_v5.sol</text>
<polyline fill="none" stroke="black" points="2190.56,-928.9 2413.78,-928.9 "/>
<text text-anchor="start" x="2198.56" y="-912.3" font-family="Times,serif" font-size="14.00">SIGN: 0</text>
<text text-anchor="start" x="2198.56" y="-895.5" font-family="Times,serif" font-size="14.00">CLOSE: 1</text>
</g>
<!-- 12&#45;&gt;11 -->
<g id="edge14" class="edge">
<title>12&#45;&gt;11</title>
<path fill="none" stroke="black" d="M2296.53,-887.07C2284.97,-779.05 2262.49,-524.76 2297.17,-447.4 2308.63,-421.83 2324.3,-397.86 2342.36,-375.71"/>
<polygon fill="black" stroke="black" points="2342.52,-375.51 2343.32,-368.35 2350.24,-366.32 2349.45,-373.49 2342.52,-375.51"/>
</g>
<!-- 13&#45;&gt;11 -->
<g id="edge15" class="edge">
<title>13&#45;&gt;11</title>
<path fill="none" stroke="black" d="M1896.03,-523.46C1918.34,-497.11 1945.66,-468.15 1975.17,-447.4 2085.06,-370.13 2223.34,-312.55 2338.64,-273.11"/>
<polygon fill="black" stroke="black" points="2338.71,-273.08 2343.11,-267.37 2350.07,-269.23 2345.68,-274.95 2338.71,-273.08"/>
</g>
<!-- 14&#45;&gt;11 -->
<g id="edge16" class="edge">
<title>14&#45;&gt;11</title>
<path fill="none" stroke="black" d="M1988.93,-828.48C1986.1,-703.43 1984.84,-506.81 2026.17,-447.4 2098.38,-343.58 2225.69,-284.1 2338.69,-250.26"/>
<polygon fill="black" stroke="black" points="2338.77,-250.23 2343.4,-244.71 2350.28,-246.86 2345.65,-252.39 2338.77,-250.23"/>
</g>
<!-- 15&#45;&gt;11 -->
<g id="edge17" class="edge">
<title>15&#45;&gt;11</title>
<path fill="none" stroke="black" d="M2572.13,-828.26C2573.97,-721.97 2574.39,-556.71 2573.4,-423.3"/>
<polygon fill="black" stroke="black" points="2573.39,-422.9 2569.35,-416.94 2573.3,-410.9 2577.35,-416.87 2573.39,-422.9"/>
</g>
<!-- 16&#45;&gt;11 -->
<g id="edge18" class="edge">
<title>16&#45;&gt;11</title>
<path fill="none" stroke="black" d="M2890.65,-811.51C2901.71,-708.62 2901.31,-561.56 2846.17,-447.4 2832.42,-418.94 2813.65,-392.38 2792.29,-368.05"/>
<polygon fill="black" stroke="black" points="2792.02,-367.75 2785.03,-365.97 2783.98,-358.84 2790.97,-360.62 2792.02,-367.75"/>
</g>
<!-- 17&#45;&gt;11 -->
<g id="edge19" class="edge">
<title>17&#45;&gt;11</title>
<path fill="none" stroke="black" d="M3202.88,-769.61C3214.27,-667.71 3209.15,-539.67 3144.17,-447.4 3064.41,-334.16 2920.28,-273.9 2796.01,-242"/>
<polygon fill="black" stroke="black" points="2795.68,-241.92 2788.89,-244.34 2784.04,-239 2790.84,-236.58 2795.68,-241.92"/>
</g>
<!-- 18&#45;&gt;11 -->
<g id="edge20" class="edge">
<title>18&#45;&gt;11</title>
<path fill="none" stroke="black" d="M2193.57,-531.63C2217.19,-505 2245.53,-473.56 2273.17,-447.4 2294.6,-427.12 2317.59,-406.71 2340.94,-386.81"/>
<polygon fill="black" stroke="black" points="2341.09,-386.68 2343.09,-379.75 2350.25,-378.92 2348.26,-385.85 2341.09,-386.68"/>
</g>
<!-- 18&#45;&gt;12 -->
<g id="edge34" class="edge">
<title>18&#45;&gt;12</title>
<path fill="none" stroke="black" stroke-dasharray="5,2" d="M2165.62,-649.05C2195.82,-712.58 2244.09,-814.12 2274.41,-877.91"/>
<polygon fill="black" stroke="black" points="2271.3,-879.51 2278.75,-887.04 2277.62,-876.51 2271.3,-879.51"/>
</g>
<!-- 18&#45;&gt;14 -->
<g id="edge33" class="edge">
<title>18&#45;&gt;14</title>
<path fill="none" stroke="black" stroke-dasharray="5,2" d="M2113.23,-649.05C2093.26,-695.29 2064.59,-761.67 2039.84,-818.97"/>
<polygon fill="black" stroke="black" points="2036.5,-817.89 2035.74,-828.45 2042.92,-820.66 2036.5,-817.89"/>
</g>
<!-- 19&#45;&gt;11 -->
<g id="edge21" class="edge">
<title>19&#45;&gt;11</title>
<path fill="none" stroke="black" d="M2445.62,-531.64C2458.28,-501.62 2473.96,-462.82 2489.81,-422.55"/>
<polygon fill="black" stroke="black" points="2489.89,-422.33 2488.36,-415.28 2494.28,-411.16 2495.81,-418.21 2489.89,-422.33"/>
</g>
<!-- 19&#45;&gt;12 -->
<g id="edge36" class="edge">
<title>19&#45;&gt;12</title>
<path fill="none" stroke="black" stroke-dasharray="5,2" d="M2398.75,-649.05C2377.43,-712.45 2343.39,-813.71 2321.93,-877.52"/>
<polygon fill="black" stroke="black" points="2318.6,-876.45 2318.73,-887.04 2325.23,-878.68 2318.6,-876.45"/>
</g>
<!-- 19&#45;&gt;15 -->
<g id="edge35" class="edge">
<title>19&#45;&gt;15</title>
<path fill="none" stroke="black" stroke-dasharray="5,2" d="M2443.11,-649.05C2463.08,-695.29 2491.75,-761.67 2516.5,-818.97"/>
<polygon fill="black" stroke="black" points="2513.41,-820.66 2520.59,-828.45 2519.84,-817.89 2513.41,-820.66"/>
</g>
<!-- 20&#45;&gt;11 -->
<g id="edge22" class="edge">
<title>20&#45;&gt;11</title>
<path fill="none" stroke="black" d="M2698.71,-531.64C2687.99,-501.62 2673.45,-462.82 2657.93,-422.55"/>
<polygon fill="black" stroke="black" points="2657.85,-422.36 2651.96,-418.2 2653.53,-411.16 2659.42,-415.32 2657.85,-422.36"/>
</g>
<!-- 20&#45;&gt;12 -->
<g id="edge38" class="edge">
<title>20&#45;&gt;12</title>
<path fill="none" stroke="black" stroke-dasharray="5,2" d="M2654.06,-648.92C2621.57,-676.96 2580.12,-709.61 2539.17,-733.2 2500.76,-755.32 2482.38,-743.65 2446.17,-769.2 2404.31,-798.73 2366.87,-843.03 2340.67,-878.6"/>
<polygon fill="black" stroke="black" points="2337.63,-876.82 2334.59,-886.97 2343.3,-880.94 2337.63,-876.82"/>
</g>
<!-- 20&#45;&gt;16 -->
<g id="edge37" class="edge">
<title>20&#45;&gt;16</title>
<path fill="none" stroke="black" stroke-dasharray="5,2" d="M2741.11,-649.05C2759.12,-690.76 2784.21,-748.85 2807.12,-801.89"/>
<polygon fill="black" stroke="black" points="2804.04,-803.59 2811.22,-811.38 2810.46,-800.81 2804.04,-803.59"/>
</g>
<!-- 21&#45;&gt;11 -->
<g id="edge23" class="edge">
<title>21&#45;&gt;11</title>
<path fill="none" stroke="black" d="M2975.72,-531.62C2953.79,-504.84 2925.29,-473.28 2897.17,-447.4 2865.06,-417.84 2829.44,-388.34 2793.82,-360.63"/>
<polygon fill="black" stroke="black" points="2793.77,-360.59 2786.57,-360.08 2784.28,-353.24 2791.47,-353.75 2793.77,-360.59"/>
</g>
<!-- 21&#45;&gt;12 -->
<g id="edge40" class="edge">
<title>21&#45;&gt;12</title>
<path fill="none" stroke="black" stroke-dasharray="5,2" d="M2959.96,-648.81C2927.47,-679.4 2883.55,-714.47 2837.17,-733.2 2675.35,-798.54 2601.31,-689.29 2446.17,-769.2 2398.85,-793.57 2360.46,-840.74 2335.26,-878.76"/>
<polygon fill="black" stroke="black" points="2332.28,-876.92 2329.77,-887.22 2338.15,-880.73 2332.28,-876.92"/>
</g>
<!-- 21&#45;&gt;17 -->
<g id="edge39" class="edge">
<title>21&#45;&gt;17</title>
<path fill="none" stroke="black" stroke-dasharray="5,2" d="M3039.11,-649.05C3052.48,-680.01 3069.75,-720 3087.14,-760.26"/>
<polygon fill="black" stroke="black" points="3084.02,-761.87 3091.2,-769.66 3090.45,-759.09 3084.02,-761.87"/>
</g>
</g>
</svg>
