<?xml version="1.0" encoding="UTF-8" standalone="no"?>
<!DOCTYPE svg PUBLIC "-//W3C//DTD SVG 1.1//EN"
 "http://www.w3.org/Graphics/SVG/1.1/DTD/svg11.dtd">
<!-- Generated by graphviz version 5.0.0 (20220707.1540)
 -->
<!-- Title: UmlClassDiagram Pages: 1 -->
<svg width="3053pt" height="1387pt"
 viewBox="0.00 0.00 3053.12 1386.60" xmlns="http://www.w3.org/2000/svg" xmlns:xlink="http://www.w3.org/1999/xlink">
<g id="graph0" class="graph" transform="scale(1 1) rotate(0) translate(4 1382.6)">
<title>UmlClassDiagram</title>
<polygon fill="white" stroke="transparent" points="-4,4 -4,-1382.6 3049.12,-1382.6 3049.12,4 -4,4"/>
<!-- 0 -->
<g id="node1" class="node">
<title>0</title>
<polygon fill="#f2f2f2" stroke="black" points="1005.82,-994.3 1005.82,-1094.3 1235.28,-1094.3 1235.28,-994.3 1005.82,-994.3"/>
<text text-anchor="middle" x="1120.55" y="-1077.7" font-family="Times,serif" font-size="14.00">&lt;&lt;Interface&gt;&gt;</text>
<text text-anchor="middle" x="1120.55" y="-1060.9" font-family="Times,serif" font-size="14.00">IRegistry</text>
<text text-anchor="middle" x="1120.55" y="-1044.1" font-family="Times,serif" font-size="14.00">contracts/registries/IRegistry.sol</text>
<polyline fill="none" stroke="black" points="1005.82,-1035.9 1235.28,-1035.9 "/>
<text text-anchor="start" x="1013.82" y="-1019.3" font-family="Times,serif" font-size="14.00">External:</text>
<text text-anchor="start" x="1013.82" y="-1002.5" font-family="Times,serif" font-size="14.00"> &#160;&#160;&#160;&#160;isRegistered(_entry: address): bool</text>
</g>
<!-- 1 -->
<g id="node2" class="node">
<title>1</title>
<polygon fill="#f2f2f2" stroke="black" points="933.5,-221.5 933.5,-648.7 1307.6,-648.7 1307.6,-221.5 933.5,-221.5"/>
<text text-anchor="middle" x="1120.55" y="-632.1" font-family="Times,serif" font-size="14.00">&lt;&lt;Abstract&gt;&gt;</text>
<text text-anchor="middle" x="1120.55" y="-615.3" font-family="Times,serif" font-size="14.00">Registry</text>
<text text-anchor="middle" x="1120.55" y="-598.5" font-family="Times,serif" font-size="14.00">contracts/registries/Registry.sol</text>
<polyline fill="none" stroke="black" points="933.5,-590.3 1307.6,-590.3 "/>
<text text-anchor="start" x="941.5" y="-573.7" font-family="Times,serif" font-size="14.00">Private:</text>
<text text-anchor="start" x="941.5" y="-556.9" font-family="Times,serif" font-size="14.00"> &#160;&#160;_baseUri: string</text>
<text text-anchor="start" x="941.5" y="-540.1" font-family="Times,serif" font-size="14.00">Public:</text>
<text text-anchor="start" x="941.5" y="-523.3" font-family="Times,serif" font-size="14.00"> &#160;&#160;master: address</text>
<text text-anchor="start" x="941.5" y="-506.5" font-family="Times,serif" font-size="14.00"> &#160;&#160;proxyCode: bytes</text>
<text text-anchor="start" x="941.5" y="-489.7" font-family="Times,serif" font-size="14.00"> &#160;&#160;proxyCodeHash: bytes32</text>
<text text-anchor="start" x="941.5" y="-472.9" font-family="Times,serif" font-size="14.00"> &#160;&#160;previous: IRegistry</text>
<text text-anchor="start" x="941.5" y="-456.1" font-family="Times,serif" font-size="14.00"> &#160;&#160;initialized: bool</text>
<polyline fill="none" stroke="black" points="933.5,-447.9 1307.6,-447.9 "/>
<text text-anchor="start" x="941.5" y="-431.3" font-family="Times,serif" font-size="14.00">Internal:</text>
<text text-anchor="start" x="941.5" y="-414.5" font-family="Times,serif" font-size="14.00"> &#160;&#160;&#160;_checkOwner()</text>
<text text-anchor="start" x="941.5" y="-397.7" font-family="Times,serif" font-size="14.00"> &#160;&#160;&#160;_mintCreate(_owner: address, _args: bytes): address</text>
<text text-anchor="start" x="941.5" y="-380.9" font-family="Times,serif" font-size="14.00"> &#160;&#160;&#160;_mintPredict(_owner: address, _args: bytes): address</text>
<text text-anchor="start" x="941.5" y="-364.1" font-family="Times,serif" font-size="14.00"> &#160;&#160;&#160;_baseURI(): string</text>
<text text-anchor="start" x="941.5" y="-347.3" font-family="Times,serif" font-size="14.00">External:</text>
<text text-anchor="start" x="941.5" y="-330.5" font-family="Times,serif" font-size="14.00"> &#160;&#160;&#160;initialize(_previous: address) &lt;&lt;onlyOwner&gt;&gt;</text>
<text text-anchor="start" x="941.5" y="-313.7" font-family="Times,serif" font-size="14.00"> &#160;&#160;&#160;setBaseURI(baseUri: string) &lt;&lt;onlyOwner&gt;&gt;</text>
<text text-anchor="start" x="941.5" y="-296.9" font-family="Times,serif" font-size="14.00"> &#160;&#160;&#160;isRegistered(_entry: address): bool</text>
<text text-anchor="start" x="941.5" y="-280.1" font-family="Times,serif" font-size="14.00"> &#160;&#160;&#160;setName(address, string) &lt;&lt;onlyOwner&gt;&gt;</text>
<text text-anchor="start" x="941.5" y="-263.3" font-family="Times,serif" font-size="14.00">Public:</text>
<text text-anchor="start" x="941.5" y="-246.5" font-family="Times,serif" font-size="14.00"> &#160;&#160;&#160;constructor(_master: address, _name: string, _symbol: string)</text>
<text text-anchor="start" x="941.5" y="-229.7" font-family="Times,serif" font-size="14.00"> &#160;&#160;&#160;baseURI(): string</text>
</g>
<!-- 1&#45;&gt;0 -->
<g id="edge1" class="edge">
<title>1&#45;&gt;0</title>
<path fill="none" stroke="black" stroke-dasharray="5,2" d="M1120.55,-648.9C1120.55,-757.96 1120.55,-884.25 1120.55,-963.94"/>
<polygon fill="none" stroke="black" points="1110.05,-964.06 1120.55,-994.06 1131.05,-964.06 1110.05,-964.06"/>
</g>
<!-- 11 -->
<g id="node12" class="node">
<title>11</title>
<polygon fill="#f2f2f2" stroke="black" points="641.4,-756.9 641.4,-840.1 1007.7,-840.1 1007.7,-756.9 641.4,-756.9"/>
<text text-anchor="middle" x="824.55" y="-823.5" font-family="Times,serif" font-size="14.00">InitializableUpgradeabilityProxy</text>
<text text-anchor="middle" x="824.55" y="-806.7" font-family="Times,serif" font-size="14.00">contracts/registries/proxy/InitializableUpgradeabilityProxy.sol</text>
<polyline fill="none" stroke="black" points="641.4,-798.5 1007.7,-798.5 "/>
<text text-anchor="start" x="649.4" y="-781.9" font-family="Times,serif" font-size="14.00">Public:</text>
<text text-anchor="start" x="649.4" y="-765.1" font-family="Times,serif" font-size="14.00"> &#160;&#160;&#160;&lt;&lt;payable&gt;&gt; initialize(_logic: address, _data: bytes)</text>
</g>
<!-- 1&#45;&gt;11 -->
<g id="edge2" class="edge">
<title>1&#45;&gt;11</title>
<path fill="none" stroke="black" stroke-dasharray="5,2" d="M946.23,-648.94C915.63,-686.3 886.59,-721.76 864.55,-748.66"/>
<polygon fill="black" stroke="black" points="861.57,-746.77 857.94,-756.73 866.99,-751.21 861.57,-746.77"/>
</g>
<!-- 2 -->
<g id="node3" class="node">
<title>2</title>
<polygon fill="#f2f2f2" stroke="black" points="1449.93,-685.7 1449.93,-911.3 1717.17,-911.3 1717.17,-685.7 1449.93,-685.7"/>
<text text-anchor="middle" x="1583.55" y="-894.7" font-family="Times,serif" font-size="14.00">&lt;&lt;Abstract&gt;&gt;</text>
<text text-anchor="middle" x="1583.55" y="-877.9" font-family="Times,serif" font-size="14.00">RegistryEntry</text>
<text text-anchor="middle" x="1583.55" y="-861.1" font-family="Times,serif" font-size="14.00">contracts/registries/RegistryEntry.sol</text>
<polyline fill="none" stroke="black" points="1449.93,-852.9 1717.17,-852.9 "/>
<text text-anchor="start" x="1457.93" y="-836.3" font-family="Times,serif" font-size="14.00">Public:</text>
<text text-anchor="start" x="1457.93" y="-819.5" font-family="Times,serif" font-size="14.00"> &#160;&#160;registry: IRegistry</text>
<polyline fill="none" stroke="black" points="1449.93,-811.3 1717.17,-811.3 "/>
<text text-anchor="start" x="1457.93" y="-794.7" font-family="Times,serif" font-size="14.00">Internal:</text>
<text text-anchor="start" x="1457.93" y="-777.9" font-family="Times,serif" font-size="14.00"> &#160;&#160;&#160;_initialize(_registry: address)</text>
<text text-anchor="start" x="1457.93" y="-761.1" font-family="Times,serif" font-size="14.00">External:</text>
<text text-anchor="start" x="1457.93" y="-744.3" font-family="Times,serif" font-size="14.00"> &#160;&#160;&#160;setName(address, string) &lt;&lt;onlyOwner&gt;&gt;</text>
<text text-anchor="start" x="1457.93" y="-727.5" font-family="Times,serif" font-size="14.00">Public:</text>
<text text-anchor="start" x="1457.93" y="-710.7" font-family="Times,serif" font-size="14.00"> &#160;&#160;&#160;&lt;&lt;modifier&gt;&gt; onlyOwner()</text>
<text text-anchor="start" x="1457.93" y="-693.9" font-family="Times,serif" font-size="14.00"> &#160;&#160;&#160;owner(): address</text>
</g>
<!-- 2&#45;&gt;0 -->
<g id="edge3" class="edge">
<title>2&#45;&gt;0</title>
<path fill="none" stroke="black" d="M1449.63,-870.02C1377.3,-908.11 1289.41,-954.39 1222.66,-989.53"/>
<polygon fill="black" stroke="black" points="1221.02,-986.44 1213.8,-994.2 1224.28,-992.64 1221.02,-986.44"/>
</g>
<!-- 3 -->
<g id="node4" class="node">
<title>3</title>
<polygon fill="#f2f2f2" stroke="black" points="215.59,-339.1 215.59,-531.1 915.51,-531.1 915.51,-339.1 215.59,-339.1"/>
<text text-anchor="middle" x="565.55" y="-514.5" font-family="Times,serif" font-size="14.00">App</text>
<text text-anchor="middle" x="565.55" y="-497.7" font-family="Times,serif" font-size="14.00">contracts/registries/apps/App.sol</text>
<polyline fill="none" stroke="black" points="215.59,-489.5 915.51,-489.5 "/>
<text text-anchor="start" x="223.59" y="-472.9" font-family="Times,serif" font-size="14.00">Public:</text>
<text text-anchor="start" x="223.59" y="-456.1" font-family="Times,serif" font-size="14.00"> &#160;&#160;m_appName: string</text>
<text text-anchor="start" x="223.59" y="-439.3" font-family="Times,serif" font-size="14.00"> &#160;&#160;m_appType: string</text>
<text text-anchor="start" x="223.59" y="-422.5" font-family="Times,serif" font-size="14.00"> &#160;&#160;m_appMultiaddr: bytes</text>
<text text-anchor="start" x="223.59" y="-405.7" font-family="Times,serif" font-size="14.00"> &#160;&#160;m_appChecksum: bytes32</text>
<text text-anchor="start" x="223.59" y="-388.9" font-family="Times,serif" font-size="14.00"> &#160;&#160;m_appMREnclave: bytes</text>
<polyline fill="none" stroke="black" points="215.59,-380.7 915.51,-380.7 "/>
<text text-anchor="start" x="223.59" y="-364.1" font-family="Times,serif" font-size="14.00">Public:</text>
<text text-anchor="start" x="223.59" y="-347.3" font-family="Times,serif" font-size="14.00"> &#160;&#160;&#160;initialize(_appName: string, _appType: string, _appMultiaddr: bytes, _appChecksum: bytes32, _appMREnclave: bytes)</text>
</g>
<!-- 3&#45;&gt;2 -->
<g id="edge4" class="edge">
<title>3&#45;&gt;2</title>
<path fill="none" stroke="black" d="M702.66,-531.33C767.49,-572.67 847.44,-618.53 924.55,-649.2 1087.15,-713.87 1284.09,-753.53 1420.09,-775.37"/>
<polygon fill="none" stroke="black" points="1418.6,-785.77 1449.86,-780.02 1421.85,-765.02 1418.6,-785.77"/>
</g>
<!-- 4 -->
<g id="node5" class="node">
<title>4</title>
<polygon fill="#f2f2f2" stroke="black" points="0,-8.9 0,-176.1 867.1,-176.1 867.1,-8.9 0,-8.9"/>
<text text-anchor="middle" x="433.55" y="-159.5" font-family="Times,serif" font-size="14.00">AppRegistry</text>
<text text-anchor="middle" x="433.55" y="-142.7" font-family="Times,serif" font-size="14.00">contracts/registries/apps/AppRegistry.sol</text>
<polyline fill="none" stroke="black" points="0,-134.5 867.1,-134.5 "/>
<text text-anchor="start" x="8" y="-117.9" font-family="Times,serif" font-size="14.00">Internal:</text>
<text text-anchor="start" x="8" y="-101.1" font-family="Times,serif" font-size="14.00"> &#160;&#160;&#160;encodeInitializer(_appName: string, _appType: string, _appMultiaddr: bytes, _appChecksum: bytes32, _appMREnclave: bytes): bytes</text>
<text text-anchor="start" x="8" y="-84.3" font-family="Times,serif" font-size="14.00">External:</text>
<text text-anchor="start" x="8" y="-67.5" font-family="Times,serif" font-size="14.00"> &#160;&#160;&#160;createApp(_appOwner: address, _appName: string, _appType: string, _appMultiaddr: bytes, _appChecksum: bytes32, _appMREnclave: bytes): App</text>
<text text-anchor="start" x="8" y="-50.7" font-family="Times,serif" font-size="14.00"> &#160;&#160;&#160;predictApp(_appOwner: address, _appName: string, _appType: string, _appMultiaddr: bytes, _appChecksum: bytes32, _appMREnclave: bytes): App</text>
<text text-anchor="start" x="8" y="-33.9" font-family="Times,serif" font-size="14.00">Public:</text>
<text text-anchor="start" x="8" y="-17.1" font-family="Times,serif" font-size="14.00"> &#160;&#160;&#160;constructor()</text>
</g>
<!-- 4&#45;&gt;1 -->
<g id="edge5" class="edge">
<title>4&#45;&gt;1</title>
<path fill="none" stroke="black" d="M833.51,-176.19C857.58,-185.94 881.08,-196.82 907.23,-211.32"/>
<polygon fill="none" stroke="black" points="902.01,-220.42 933.23,-226.4 912.55,-202.26 902.01,-220.42"/>
</g>
<!-- 4&#45;&gt;3 -->
<g id="edge6" class="edge">
<title>4&#45;&gt;3</title>
<path fill="none" stroke="black" stroke-dasharray="5,2" d="M465.67,-176.38C483.56,-222.54 506,-280.45 525.08,-329.67"/>
<polygon fill="black" stroke="black" points="521.85,-331.02 528.72,-339.08 528.37,-328.49 521.85,-331.02"/>
</g>
<!-- 5 -->
<g id="node6" class="node">
<title>5</title>
<polygon fill="#f2f2f2" stroke="black" points="2220.91,-0.5 2220.91,-184.5 2442.2,-184.5 2442.2,-0.5 2220.91,-0.5"/>
<text text-anchor="middle" x="2331.55" y="-167.9" font-family="Times,serif" font-size="14.00">&lt;&lt;Interface&gt;&gt;</text>
<text text-anchor="middle" x="2331.55" y="-151.1" font-family="Times,serif" font-size="14.00">IApp</text>
<text text-anchor="middle" x="2331.55" y="-134.3" font-family="Times,serif" font-size="14.00">contracts/registries/apps/IApp.v8.sol</text>
<polyline fill="none" stroke="black" points="2220.91,-126.1 2442.2,-126.1 "/>
<text text-anchor="start" x="2228.91" y="-109.5" font-family="Times,serif" font-size="14.00">External:</text>
<text text-anchor="start" x="2228.91" y="-92.7" font-family="Times,serif" font-size="14.00"> &#160;&#160;&#160;&#160;owner(): address</text>
<text text-anchor="start" x="2228.91" y="-75.9" font-family="Times,serif" font-size="14.00"> &#160;&#160;&#160;&#160;m_appName(): string</text>
<text text-anchor="start" x="2228.91" y="-59.1" font-family="Times,serif" font-size="14.00"> &#160;&#160;&#160;&#160;m_appType(): string</text>
<text text-anchor="start" x="2228.91" y="-42.3" font-family="Times,serif" font-size="14.00"> &#160;&#160;&#160;&#160;m_appMultiaddr(): bytes</text>
<text text-anchor="start" x="2228.91" y="-25.5" font-family="Times,serif" font-size="14.00"> &#160;&#160;&#160;&#160;m_appChecksum(): bytes32</text>
<text text-anchor="start" x="2228.91" y="-8.7" font-family="Times,serif" font-size="14.00"> &#160;&#160;&#160;&#160;m_appMREnclave(): bytes</text>
</g>
<!-- 6 -->
<g id="node7" class="node">
<title>6</title>
<polygon fill="#f2f2f2" stroke="black" points="1325.75,-355.9 1325.75,-514.3 1841.35,-514.3 1841.35,-355.9 1325.75,-355.9"/>
<text text-anchor="middle" x="1583.55" y="-497.7" font-family="Times,serif" font-size="14.00">Dataset</text>
<text text-anchor="middle" x="1583.55" y="-480.9" font-family="Times,serif" font-size="14.00">contracts/registries/datasets/Dataset.sol</text>
<polyline fill="none" stroke="black" points="1325.75,-472.7 1841.35,-472.7 "/>
<text text-anchor="start" x="1333.75" y="-456.1" font-family="Times,serif" font-size="14.00">Public:</text>
<text text-anchor="start" x="1333.75" y="-439.3" font-family="Times,serif" font-size="14.00"> &#160;&#160;m_datasetName: string</text>
<text text-anchor="start" x="1333.75" y="-422.5" font-family="Times,serif" font-size="14.00"> &#160;&#160;m_datasetMultiaddr: bytes</text>
<text text-anchor="start" x="1333.75" y="-405.7" font-family="Times,serif" font-size="14.00"> &#160;&#160;m_datasetChecksum: bytes32</text>
<polyline fill="none" stroke="black" points="1325.75,-397.5 1841.35,-397.5 "/>
<text text-anchor="start" x="1333.75" y="-380.9" font-family="Times,serif" font-size="14.00">Public:</text>
<text text-anchor="start" x="1333.75" y="-364.1" font-family="Times,serif" font-size="14.00"> &#160;&#160;&#160;initialize(_datasetName: string, _datasetMultiaddr: bytes, _datasetChecksum: bytes32)</text>
</g>
<!-- 6&#45;&gt;2 -->
<g id="edge7" class="edge">
<title>6&#45;&gt;2</title>
<path fill="none" stroke="black" d="M1583.55,-514.52C1583.55,-555.76 1583.55,-607.59 1583.55,-655.59"/>
<polygon fill="none" stroke="black" points="1573.05,-655.64 1583.55,-685.64 1594.05,-655.64 1573.05,-655.64"/>
</g>
<!-- 7 -->
<g id="node8" class="node">
<title>7</title>
<polygon fill="#f2f2f2" stroke="black" points="884.96,-8.9 884.96,-176.1 1622.14,-176.1 1622.14,-8.9 884.96,-8.9"/>
<text text-anchor="middle" x="1253.55" y="-159.5" font-family="Times,serif" font-size="14.00">DatasetRegistry</text>
<text text-anchor="middle" x="1253.55" y="-142.7" font-family="Times,serif" font-size="14.00">contracts/registries/datasets/DatasetRegistry.sol</text>
<polyline fill="none" stroke="black" points="884.96,-134.5 1622.14,-134.5 "/>
<text text-anchor="start" x="892.96" y="-117.9" font-family="Times,serif" font-size="14.00">Internal:</text>
<text text-anchor="start" x="892.96" y="-101.1" font-family="Times,serif" font-size="14.00"> &#160;&#160;&#160;encodeInitializer(_datasetName: string, _datasetMultiaddr: bytes, _datasetChecksum: bytes32): bytes</text>
<text text-anchor="start" x="892.96" y="-84.3" font-family="Times,serif" font-size="14.00">External:</text>
<text text-anchor="start" x="892.96" y="-67.5" font-family="Times,serif" font-size="14.00"> &#160;&#160;&#160;createDataset(_datasetOwner: address, _datasetName: string, _datasetMultiaddr: bytes, _datasetChecksum: bytes32): Dataset</text>
<text text-anchor="start" x="892.96" y="-50.7" font-family="Times,serif" font-size="14.00"> &#160;&#160;&#160;predictDataset(_datasetOwner: address, _datasetName: string, _datasetMultiaddr: bytes, _datasetChecksum: bytes32): Dataset</text>
<text text-anchor="start" x="892.96" y="-33.9" font-family="Times,serif" font-size="14.00">Public:</text>
<text text-anchor="start" x="892.96" y="-17.1" font-family="Times,serif" font-size="14.00"> &#160;&#160;&#160;constructor()</text>
</g>
<!-- 7&#45;&gt;1 -->
<g id="edge8" class="edge">
<title>7&#45;&gt;1</title>
<path fill="none" stroke="black" d="M1221.19,-176.38C1219.04,-181.88 1216.83,-187.55 1214.56,-193.35"/>
<polygon fill="none" stroke="black" points="1204.77,-189.56 1203.64,-221.32 1224.33,-197.2 1204.77,-189.56"/>
</g>
<!-- 7&#45;&gt;6 -->
<g id="edge9" class="edge">
<title>7&#45;&gt;6</title>
<path fill="none" stroke="black" stroke-dasharray="5,2" d="M1333.86,-176.38C1384.42,-228.57 1449.54,-295.79 1500.6,-348.49"/>
<polygon fill="black" stroke="black" points="1498.24,-351.08 1507.71,-355.82 1503.27,-346.21 1498.24,-351.08"/>
</g>
<!-- 8 -->
<g id="node9" class="node">
<title>8</title>
<polygon fill="#f2f2f2" stroke="black" points="2460.64,-17.3 2460.64,-167.7 2718.46,-167.7 2718.46,-17.3 2460.64,-17.3"/>
<text text-anchor="middle" x="2589.55" y="-151.1" font-family="Times,serif" font-size="14.00">&lt;&lt;Interface&gt;&gt;</text>
<text text-anchor="middle" x="2589.55" y="-134.3" font-family="Times,serif" font-size="14.00">IDataset</text>
<text text-anchor="middle" x="2589.55" y="-117.5" font-family="Times,serif" font-size="14.00">contracts/registries/datasets/IDataset.v8.sol</text>
<polyline fill="none" stroke="black" points="2460.64,-109.3 2718.46,-109.3 "/>
<text text-anchor="start" x="2468.64" y="-92.7" font-family="Times,serif" font-size="14.00">External:</text>
<text text-anchor="start" x="2468.64" y="-75.9" font-family="Times,serif" font-size="14.00"> &#160;&#160;&#160;&#160;owner(): address</text>
<text text-anchor="start" x="2468.64" y="-59.1" font-family="Times,serif" font-size="14.00"> &#160;&#160;&#160;&#160;m_datasetName(): string</text>
<text text-anchor="start" x="2468.64" y="-42.3" font-family="Times,serif" font-size="14.00"> &#160;&#160;&#160;&#160;m_datasetMultiaddr(): bytes</text>
<text text-anchor="start" x="2468.64" y="-25.5" font-family="Times,serif" font-size="14.00"> &#160;&#160;&#160;&#160;m_datasetChecksum(): bytes32</text>
</g>
<!-- 9 -->
<g id="node10" class="node">
<title>9</title>
<polygon fill="#f2f2f2" stroke="black" points="426.6,-1227.7 426.6,-1327.7 654.5,-1327.7 654.5,-1227.7 426.6,-1227.7"/>
<text text-anchor="middle" x="540.55" y="-1311.1" font-family="Times,serif" font-size="14.00">&lt;&lt;Library&gt;&gt;</text>
<text text-anchor="middle" x="540.55" y="-1294.3" font-family="Times,serif" font-size="14.00">Address</text>
<text text-anchor="middle" x="540.55" y="-1277.5" font-family="Times,serif" font-size="14.00">contracts/registries/proxy/Address.sol</text>
<polyline fill="none" stroke="black" points="426.6,-1269.3 654.5,-1269.3 "/>
<text text-anchor="start" x="434.6" y="-1252.7" font-family="Times,serif" font-size="14.00">Internal:</text>
<text text-anchor="start" x="434.6" y="-1235.9" font-family="Times,serif" font-size="14.00"> &#160;&#160;&#160;isContract(account: address): bool</text>
</g>
<!-- 10 -->
<g id="node11" class="node">
<title>10</title>
<polygon fill="#f2f2f2" stroke="black" points="661.22,-948.3 661.22,-1140.3 987.88,-1140.3 987.88,-948.3 661.22,-948.3"/>
<text text-anchor="middle" x="824.55" y="-1123.7" font-family="Times,serif" font-size="14.00">BaseUpgradeabilityProxy</text>
<text text-anchor="middle" x="824.55" y="-1106.9" font-family="Times,serif" font-size="14.00">contracts/registries/proxy/BaseUpgradeabilityProxy.sol</text>
<polyline fill="none" stroke="black" points="661.22,-1098.7 987.88,-1098.7 "/>
<text text-anchor="start" x="669.22" y="-1082.1" font-family="Times,serif" font-size="14.00">Internal:</text>
<text text-anchor="start" x="669.22" y="-1065.3" font-family="Times,serif" font-size="14.00"> &#160;&#160;IMPLEMENTATION_SLOT: bytes32</text>
<polyline fill="none" stroke="black" points="661.22,-1057.1 987.88,-1057.1 "/>
<text text-anchor="start" x="669.22" y="-1040.5" font-family="Times,serif" font-size="14.00">Internal:</text>
<text text-anchor="start" x="669.22" y="-1023.7" font-family="Times,serif" font-size="14.00"> &#160;&#160;&#160;_implementation(): (impl: address)</text>
<text text-anchor="start" x="669.22" y="-1006.9" font-family="Times,serif" font-size="14.00"> &#160;&#160;&#160;_upgradeTo(newImplementation: address)</text>
<text text-anchor="start" x="669.22" y="-990.1" font-family="Times,serif" font-size="14.00"> &#160;&#160;&#160;_setImplementation(newImplementation: address)</text>
<text text-anchor="start" x="669.22" y="-973.3" font-family="Times,serif" font-size="14.00">Public:</text>
<text text-anchor="start" x="669.22" y="-956.5" font-family="Times,serif" font-size="14.00"> &#160;&#160;&#160;&lt;&lt;event&gt;&gt; Upgraded(implementation: address)</text>
</g>
<!-- 10&#45;&gt;9 -->
<g id="edge11" class="edge">
<title>10&#45;&gt;9</title>
<path fill="none" stroke="black" stroke-dasharray="5,2" d="M707.81,-1140.42C674.1,-1167.88 638.43,-1196.95 608.73,-1221.14"/>
<polygon fill="black" stroke="black" points="606.46,-1218.48 600.92,-1227.51 610.88,-1223.91 606.46,-1218.48"/>
</g>
<!-- 12 -->
<g id="node13" class="node">
<title>12</title>
<polygon fill="#f2f2f2" stroke="black" points="672.27,-1177.3 672.27,-1378.1 976.83,-1378.1 976.83,-1177.3 672.27,-1177.3"/>
<text text-anchor="middle" x="824.55" y="-1361.5" font-family="Times,serif" font-size="14.00">&lt;&lt;Abstract&gt;&gt;</text>
<text text-anchor="middle" x="824.55" y="-1344.7" font-family="Times,serif" font-size="14.00">Proxy</text>
<text text-anchor="middle" x="824.55" y="-1327.9" font-family="Times,serif" font-size="14.00">contracts/registries/proxy/Proxy.sol</text>
<polyline fill="none" stroke="black" points="672.27,-1319.7 976.83,-1319.7 "/>
<text text-anchor="start" x="680.27" y="-1303.1" font-family="Times,serif" font-size="14.00">Internal:</text>
<text text-anchor="start" x="680.27" y="-1286.3" font-family="Times,serif" font-size="14.00"> &#160;&#160;&#160;&lt;&lt;abstract&gt;&gt; _implementation(): (impl: address)</text>
<text text-anchor="start" x="680.27" y="-1269.5" font-family="Times,serif" font-size="14.00"> &#160;&#160;&#160;_delegate(implementation: address)</text>
<text text-anchor="start" x="680.27" y="-1252.7" font-family="Times,serif" font-size="14.00"> &#160;&#160;&#160;_willFallback()</text>
<text text-anchor="start" x="680.27" y="-1235.9" font-family="Times,serif" font-size="14.00"> &#160;&#160;&#160;_fallback()</text>
<text text-anchor="start" x="680.27" y="-1219.1" font-family="Times,serif" font-size="14.00">External:</text>
<text text-anchor="start" x="680.27" y="-1202.3" font-family="Times,serif" font-size="14.00"> &#160;&#160;&#160;&lt;&lt;payable&gt;&gt; null()</text>
<text text-anchor="start" x="680.27" y="-1185.5" font-family="Times,serif" font-size="14.00"> &#160;&#160;&#160;&lt;&lt;payable&gt;&gt; null()</text>
</g>
<!-- 10&#45;&gt;12 -->
<g id="edge10" class="edge">
<title>10&#45;&gt;12</title>
<path fill="none" stroke="black" d="M824.55,-1140.42C824.55,-1142.59 824.55,-1144.78 824.55,-1146.97"/>
<polygon fill="none" stroke="black" points="814.05,-1147.07 824.55,-1177.07 835.05,-1147.07 814.05,-1147.07"/>
</g>
<!-- 11&#45;&gt;10 -->
<g id="edge12" class="edge">
<title>11&#45;&gt;10</title>
<path fill="none" stroke="black" d="M824.55,-840.31C824.55,-861.91 824.55,-889.73 824.55,-917.8"/>
<polygon fill="none" stroke="black" points="814.05,-918.08 824.55,-948.08 835.05,-918.08 814.05,-918.08"/>
</g>
<!-- 13 -->
<g id="node14" class="node">
<title>13</title>
<polygon fill="#f2f2f2" stroke="black" points="2735.98,-17.3 2735.98,-167.7 3045.12,-167.7 3045.12,-17.3 2735.98,-17.3"/>
<text text-anchor="middle" x="2890.55" y="-151.1" font-family="Times,serif" font-size="14.00">&lt;&lt;Interface&gt;&gt;</text>
<text text-anchor="middle" x="2890.55" y="-134.3" font-family="Times,serif" font-size="14.00">IWorkerpool</text>
<text text-anchor="middle" x="2890.55" y="-117.5" font-family="Times,serif" font-size="14.00">contracts/registries/workerpools/IWorkerpool.v8.sol</text>
<polyline fill="none" stroke="black" points="2735.98,-109.3 3045.12,-109.3 "/>
<text text-anchor="start" x="2743.98" y="-92.7" font-family="Times,serif" font-size="14.00">External:</text>
<text text-anchor="start" x="2743.98" y="-75.9" font-family="Times,serif" font-size="14.00"> &#160;&#160;&#160;&#160;owner(): address</text>
<text text-anchor="start" x="2743.98" y="-59.1" font-family="Times,serif" font-size="14.00"> &#160;&#160;&#160;&#160;m_workerpoolDescription(): string</text>
<text text-anchor="start" x="2743.98" y="-42.3" font-family="Times,serif" font-size="14.00"> &#160;&#160;&#160;&#160;m_schedulerRewardRatioPolicy(): uint256</text>
<text text-anchor="start" x="2743.98" y="-25.5" font-family="Times,serif" font-size="14.00"> &#160;&#160;&#160;&#160;m_workerStakeRatioPolicy(): uint256</text>
</g>
<!-- 14 -->
<g id="node15" class="node">
<title>14</title>
<polygon fill="#f2f2f2" stroke="black" points="1859.44,-330.7 1859.44,-539.5 2955.66,-539.5 2955.66,-330.7 1859.44,-330.7"/>
<text text-anchor="middle" x="2407.55" y="-522.9" font-family="Times,serif" font-size="14.00">Workerpool</text>
<text text-anchor="middle" x="2407.55" y="-506.1" font-family="Times,serif" font-size="14.00">contracts/registries/workerpools/Workerpool.sol</text>
<polyline fill="none" stroke="black" points="1859.44,-497.9 2955.66,-497.9 "/>
<text text-anchor="start" x="1867.44" y="-481.3" font-family="Times,serif" font-size="14.00">Public:</text>
<text text-anchor="start" x="1867.44" y="-464.5" font-family="Times,serif" font-size="14.00"> &#160;&#160;m_workerpoolDescription: string</text>
<text text-anchor="start" x="1867.44" y="-447.7" font-family="Times,serif" font-size="14.00"> &#160;&#160;m_workerStakeRatioPolicy: uint256</text>
<text text-anchor="start" x="1867.44" y="-430.9" font-family="Times,serif" font-size="14.00"> &#160;&#160;m_schedulerRewardRatioPolicy: uint256</text>
<polyline fill="none" stroke="black" points="1859.44,-422.7 2955.66,-422.7 "/>
<text text-anchor="start" x="1867.44" y="-406.1" font-family="Times,serif" font-size="14.00">External:</text>
<text text-anchor="start" x="1867.44" y="-389.3" font-family="Times,serif" font-size="14.00"> &#160;&#160;&#160;changePolicy(_newWorkerStakeRatioPolicy: uint256, _newSchedulerRewardRatioPolicy: uint256) &lt;&lt;onlyOwner&gt;&gt;</text>
<text text-anchor="start" x="1867.44" y="-372.5" font-family="Times,serif" font-size="14.00">Public:</text>
<text text-anchor="start" x="1867.44" y="-355.7" font-family="Times,serif" font-size="14.00"> &#160;&#160;&#160;&lt;&lt;event&gt;&gt; PolicyUpdate(oldWorkerStakeRatioPolicy: uint256, newWorkerStakeRatioPolicy: uint256, oldSchedulerRewardRatioPolicy: uint256, newSchedulerRewardRatioPolicy: uint256)</text>
<text text-anchor="start" x="1867.44" y="-338.9" font-family="Times,serif" font-size="14.00"> &#160;&#160;&#160;initialize(_workerpoolDescription: string)</text>
</g>
<!-- 14&#45;&gt;2 -->
<g id="edge13" class="edge">
<title>14&#45;&gt;2</title>
<path fill="none" stroke="black" d="M2171.7,-539.54C2035.03,-599.48 1866.5,-673.4 1744.93,-726.72"/>
<polygon fill="none" stroke="black" points="1740.66,-717.13 1717.41,-738.79 1749.1,-736.36 1740.66,-717.13"/>
</g>
<!-- 15 -->
<g id="node16" class="node">
<title>15</title>
<polygon fill="#f2f2f2" stroke="black" points="1640.04,-8.9 1640.04,-176.1 2203.06,-176.1 2203.06,-8.9 1640.04,-8.9"/>
<text text-anchor="middle" x="1921.55" y="-159.5" font-family="Times,serif" font-size="14.00">WorkerpoolRegistry</text>
<text text-anchor="middle" x="1921.55" y="-142.7" font-family="Times,serif" font-size="14.00">contracts/registries/workerpools/WorkerpoolRegistry.sol</text>
<polyline fill="none" stroke="black" points="1640.04,-134.5 2203.06,-134.5 "/>
<text text-anchor="start" x="1648.04" y="-117.9" font-family="Times,serif" font-size="14.00">Internal:</text>
<text text-anchor="start" x="1648.04" y="-101.1" font-family="Times,serif" font-size="14.00"> &#160;&#160;&#160;encodeInitializer(_workerpoolDescription: string): bytes</text>
<text text-anchor="start" x="1648.04" y="-84.3" font-family="Times,serif" font-size="14.00">External:</text>
<text text-anchor="start" x="1648.04" y="-67.5" font-family="Times,serif" font-size="14.00"> &#160;&#160;&#160;createWorkerpool(_workerpoolOwner: address, _workerpoolDescription: string): Workerpool</text>
<text text-anchor="start" x="1648.04" y="-50.7" font-family="Times,serif" font-size="14.00"> &#160;&#160;&#160;predictWorkerpool(_workerpoolOwner: address, _workerpoolDescription: string): Workerpool</text>
<text text-anchor="start" x="1648.04" y="-33.9" font-family="Times,serif" font-size="14.00">Public:</text>
<text text-anchor="start" x="1648.04" y="-17.1" font-family="Times,serif" font-size="14.00"> &#160;&#160;&#160;constructor()</text>
</g>
<!-- 15&#45;&gt;1 -->
<g id="edge14" class="edge">
<title>15&#45;&gt;1</title>
<path fill="none" stroke="black" d="M1669.65,-176.14C1656.82,-179.35 1644.07,-182.33 1631.55,-185 1503.55,-212.24 1449.94,-164.84 1335.4,-212.81"/>
<polygon fill="none" stroke="black" points="1330.64,-203.44 1307.88,-225.63 1339.51,-222.48 1330.64,-203.44"/>
</g>
<!-- 15&#45;&gt;14 -->
<g id="edge15" class="edge">
<title>15&#45;&gt;14</title>
<path fill="none" stroke="black" stroke-dasharray="5,2" d="M2039.51,-176.17C2103.22,-220.82 2182.7,-276.52 2251.48,-324.72"/>
<polygon fill="black" stroke="black" points="2249.61,-327.69 2259.81,-330.56 2253.63,-321.95 2249.61,-327.69"/>
</g>
</g>
</svg>
