<?xml version="1.0" encoding="UTF-8" standalone="no"?>
<!DOCTYPE svg PUBLIC "-//W3C//DTD SVG 1.1//EN"
 "http://www.w3.org/Graphics/SVG/1.1/DTD/svg11.dtd">
<!-- Generated by graphviz version 5.0.0 (20220707.1540)
 -->
<!-- Title: UmlClassDiagram Pages: 1 -->
<svg width="2946pt" height="1318pt"
 viewBox="0.00 0.00 2945.78 1317.60" xmlns="http://www.w3.org/2000/svg" xmlns:xlink="http://www.w3.org/1999/xlink">
<g id="graph0" class="graph" transform="scale(1 1) rotate(0) translate(4 1313.6)">
<title>UmlClassDiagram</title>
<polygon fill="white" stroke="transparent" points="-4,4 -4,-1313.6 2941.78,-1313.6 2941.78,4 -4,4"/>
<!-- 1 -->
<g id="node1" class="node">
<title>1</title>
<polygon fill="#f2f2f2" stroke="black" points="0,-511.1 0,-611.1 212.33,-611.1 212.33,-511.1 0,-511.1"/>
<text text-anchor="middle" x="106.17" y="-594.5" font-family="Times,serif" font-size="14.00">&lt;&lt;Struct&gt;&gt;</text>
<text text-anchor="middle" x="106.17" y="-577.7" font-family="Times,serif" font-size="14.00">Account</text>
<text text-anchor="middle" x="106.17" y="-560.9" font-family="Times,serif" font-size="14.00">contracts/libs/IexecLibCore_v5.sol</text>
<polyline fill="none" stroke="black" points="0,-552.7 212.33,-552.7 "/>
<text text-anchor="start" x="8" y="-536.1" font-family="Times,serif" font-size="14.00">stake: uint256</text>
<text text-anchor="start" x="8" y="-519.3" font-family="Times,serif" font-size="14.00">locked: uint256</text>
</g>
<!-- 0 -->
<g id="node11" class="node">
<title>0</title>
<polygon fill="#f2f2f2" stroke="black" points="843,-840.9 843,-899.3 1055.33,-899.3 1055.33,-840.9 843,-840.9"/>
<text text-anchor="middle" x="949.17" y="-882.7" font-family="Times,serif" font-size="14.00">&lt;&lt;Library&gt;&gt;</text>
<text text-anchor="middle" x="949.17" y="-865.9" font-family="Times,serif" font-size="14.00">IexecLibCore_v5</text>
<text text-anchor="middle" x="949.17" y="-849.1" font-family="Times,serif" font-size="14.00">contracts/libs/IexecLibCore_v5.sol</text>
</g>
<!-- 1&#45;&gt;0 -->
<g id="edge6" class="edge">
<title>1&#45;&gt;0</title>
<path fill="none" stroke="black" d="M119.83,-611.35C135.85,-659.25 167.31,-730.01 221.17,-766.8 317.94,-832.91 650.54,-856.81 830.8,-865.05"/>
<polygon fill="black" stroke="black" points="830.99,-865.05 837.16,-861.33 842.98,-865.59 836.8,-869.32 830.99,-865.05"/>
</g>
<!-- 2 -->
<g id="node2" class="node">
<title>2</title>
<polygon fill="#f2f2f2" stroke="black" points="230,-502.7 230,-619.5 442.33,-619.5 442.33,-502.7 230,-502.7"/>
<text text-anchor="middle" x="336.17" y="-602.9" font-family="Times,serif" font-size="14.00">&lt;&lt;Struct&gt;&gt;</text>
<text text-anchor="middle" x="336.17" y="-586.1" font-family="Times,serif" font-size="14.00">Category</text>
<text text-anchor="middle" x="336.17" y="-569.3" font-family="Times,serif" font-size="14.00">contracts/libs/IexecLibCore_v5.sol</text>
<polyline fill="none" stroke="black" points="230,-561.1 442.33,-561.1 "/>
<text text-anchor="start" x="238" y="-544.5" font-family="Times,serif" font-size="14.00">name: string</text>
<text text-anchor="start" x="238" y="-527.7" font-family="Times,serif" font-size="14.00">description: string</text>
<text text-anchor="start" x="238" y="-510.9" font-family="Times,serif" font-size="14.00">workClockTimeRef: uint256</text>
</g>
<!-- 2&#45;&gt;0 -->
<g id="edge7" class="edge">
<title>2&#45;&gt;0</title>
<path fill="none" stroke="black" d="M353.59,-619.78C370.79,-666.66 401.79,-730.74 451.17,-766.8 510.47,-810.11 703.05,-840.33 830.61,-856.19"/>
<polygon fill="black" stroke="black" points="830.84,-856.22 837.28,-852.98 842.75,-857.68 836.3,-860.92 830.84,-856.22"/>
</g>
<!-- 3 -->
<g id="node3" class="node">
<title>3</title>
<polygon fill="#f2f2f2" stroke="black" points="460,-502.7 460,-619.5 672.33,-619.5 672.33,-502.7 460,-502.7"/>
<text text-anchor="middle" x="566.17" y="-602.9" font-family="Times,serif" font-size="14.00">&lt;&lt;Struct&gt;&gt;</text>
<text text-anchor="middle" x="566.17" y="-586.1" font-family="Times,serif" font-size="14.00">Resource</text>
<text text-anchor="middle" x="566.17" y="-569.3" font-family="Times,serif" font-size="14.00">contracts/libs/IexecLibCore_v5.sol</text>
<polyline fill="none" stroke="black" points="460,-561.1 672.33,-561.1 "/>
<text text-anchor="start" x="468" y="-544.5" font-family="Times,serif" font-size="14.00">pointer: address</text>
<text text-anchor="start" x="468" y="-527.7" font-family="Times,serif" font-size="14.00">owner: address</text>
<text text-anchor="start" x="468" y="-510.9" font-family="Times,serif" font-size="14.00">price: uint256</text>
</g>
<!-- 3&#45;&gt;0 -->
<g id="edge8" class="edge">
<title>3&#45;&gt;0</title>
<path fill="none" stroke="black" d="M587.44,-619.54C606.91,-665.02 639.76,-727.26 686.17,-766.8 727.51,-802.03 782.36,-825.93 831.28,-841.71"/>
<polygon fill="black" stroke="black" points="831.46,-841.77 838.39,-839.74 842.92,-845.35 836,-847.38 831.46,-841.77"/>
</g>
<!-- 4 -->
<g id="node4" class="node">
<title>4</title>
<polygon fill="#f2f2f2" stroke="black" points="594,-0.5 594,-318.9 806.33,-318.9 806.33,-0.5 594,-0.5"/>
<text text-anchor="middle" x="700.17" y="-302.3" font-family="Times,serif" font-size="14.00">&lt;&lt;Struct&gt;&gt;</text>
<text text-anchor="middle" x="700.17" y="-285.5" font-family="Times,serif" font-size="14.00">Deal</text>
<text text-anchor="middle" x="700.17" y="-268.7" font-family="Times,serif" font-size="14.00">contracts/libs/IexecLibCore_v5.sol</text>
<polyline fill="none" stroke="black" points="594,-260.5 806.33,-260.5 "/>
<text text-anchor="start" x="602" y="-243.9" font-family="Times,serif" font-size="14.00">app: Resource</text>
<text text-anchor="start" x="602" y="-227.1" font-family="Times,serif" font-size="14.00">dataset: Resource</text>
<text text-anchor="start" x="602" y="-210.3" font-family="Times,serif" font-size="14.00">workerpool: Resource</text>
<text text-anchor="start" x="602" y="-193.5" font-family="Times,serif" font-size="14.00">trust: uint256</text>
<text text-anchor="start" x="602" y="-176.7" font-family="Times,serif" font-size="14.00">category: uint256</text>
<text text-anchor="start" x="602" y="-159.9" font-family="Times,serif" font-size="14.00">tag: bytes32</text>
<text text-anchor="start" x="602" y="-143.1" font-family="Times,serif" font-size="14.00">requester: address</text>
<text text-anchor="start" x="602" y="-126.3" font-family="Times,serif" font-size="14.00">beneficiary: address</text>
<text text-anchor="start" x="602" y="-109.5" font-family="Times,serif" font-size="14.00">callback: address</text>
<text text-anchor="start" x="602" y="-92.7" font-family="Times,serif" font-size="14.00">params: string</text>
<text text-anchor="start" x="602" y="-75.9" font-family="Times,serif" font-size="14.00">startTime: uint256</text>
<text text-anchor="start" x="602" y="-59.1" font-family="Times,serif" font-size="14.00">botFirst: uint256</text>
<text text-anchor="start" x="602" y="-42.3" font-family="Times,serif" font-size="14.00">botSize: uint256</text>
<text text-anchor="start" x="602" y="-25.5" font-family="Times,serif" font-size="14.00">workerStake: uint256</text>
<text text-anchor="start" x="602" y="-8.7" font-family="Times,serif" font-size="14.00">schedulerRewardRatio: uint256</text>
</g>
<!-- 4&#45;&gt;3 -->
<g id="edge1" class="edge">
<title>4&#45;&gt;3</title>
<path fill="none" stroke="black" stroke-dasharray="5,2" d="M647.01,-319.13C626.71,-379.64 604.63,-445.45 588.69,-492.97"/>
<polygon fill="black" stroke="black" points="585.35,-491.94 585.48,-502.53 591.98,-494.16 585.35,-491.94"/>
</g>
<!-- 4&#45;&gt;0 -->
<g id="edge9" class="edge">
<title>4&#45;&gt;0</title>
<path fill="none" stroke="black" d="M696.53,-318.94C694.04,-486.09 694.78,-730.51 719.17,-766.8 744.96,-805.17 788.72,-829.3 831.19,-844.41"/>
<polygon fill="black" stroke="black" points="831.45,-844.49 838.42,-842.63 842.82,-848.34 835.86,-850.2 831.45,-844.49"/>
</g>
<!-- 5 -->
<g id="node5" class="node">
<title>5</title>
<polygon fill="#f2f2f2" stroke="black" points="728,-418.7 728,-703.5 940.33,-703.5 940.33,-418.7 728,-418.7"/>
<text text-anchor="middle" x="834.17" y="-686.9" font-family="Times,serif" font-size="14.00">&lt;&lt;Struct&gt;&gt;</text>
<text text-anchor="middle" x="834.17" y="-670.1" font-family="Times,serif" font-size="14.00">DealBoost</text>
<text text-anchor="middle" x="834.17" y="-653.3" font-family="Times,serif" font-size="14.00">contracts/libs/IexecLibCore_v5.sol</text>
<polyline fill="none" stroke="black" points="728,-645.1 940.33,-645.1 "/>
<text text-anchor="start" x="736" y="-628.5" font-family="Times,serif" font-size="14.00">appOwner: address</text>
<text text-anchor="start" x="736" y="-611.7" font-family="Times,serif" font-size="14.00">appPrice: uint96</text>
<text text-anchor="start" x="736" y="-594.9" font-family="Times,serif" font-size="14.00">datasetOwner: address</text>
<text text-anchor="start" x="736" y="-578.1" font-family="Times,serif" font-size="14.00">datasetPrice: uint96</text>
<text text-anchor="start" x="736" y="-561.3" font-family="Times,serif" font-size="14.00">workerpoolOwner: address</text>
<text text-anchor="start" x="736" y="-544.5" font-family="Times,serif" font-size="14.00">workerpoolPrice: uint96</text>
<text text-anchor="start" x="736" y="-527.7" font-family="Times,serif" font-size="14.00">requester: address</text>
<text text-anchor="start" x="736" y="-510.9" font-family="Times,serif" font-size="14.00">workerReward: uint96</text>
<text text-anchor="start" x="736" y="-494.1" font-family="Times,serif" font-size="14.00">callback: address</text>
<text text-anchor="start" x="736" y="-477.3" font-family="Times,serif" font-size="14.00">deadline: uint40</text>
<text text-anchor="start" x="736" y="-460.5" font-family="Times,serif" font-size="14.00">botFirst: uint16</text>
<text text-anchor="start" x="736" y="-443.7" font-family="Times,serif" font-size="14.00">botSize: uint16</text>
<text text-anchor="start" x="736" y="-426.9" font-family="Times,serif" font-size="14.00">shortTag: bytes3</text>
</g>
<!-- 5&#45;&gt;0 -->
<g id="edge10" class="edge">
<title>5&#45;&gt;0</title>
<path fill="none" stroke="black" d="M887.29,-703.92C904.46,-749.75 922.15,-796.98 934.2,-829.14"/>
<polygon fill="black" stroke="black" points="934.32,-829.45 940.17,-833.67 938.52,-840.69 932.67,-836.47 934.32,-829.45"/>
</g>
<!-- 6 -->
<g id="node6" class="node">
<title>6</title>
<polygon fill="#f2f2f2" stroke="black" points="958,-485.9 958,-636.3 1170.33,-636.3 1170.33,-485.9 958,-485.9"/>
<text text-anchor="middle" x="1064.17" y="-619.7" font-family="Times,serif" font-size="14.00">&lt;&lt;Enum&gt;&gt;</text>
<text text-anchor="middle" x="1064.17" y="-602.9" font-family="Times,serif" font-size="14.00">TaskStatusEnum</text>
<text text-anchor="middle" x="1064.17" y="-586.1" font-family="Times,serif" font-size="14.00">contracts/libs/IexecLibCore_v5.sol</text>
<polyline fill="none" stroke="black" points="958,-577.9 1170.33,-577.9 "/>
<text text-anchor="start" x="966" y="-561.3" font-family="Times,serif" font-size="14.00">UNSET: 0</text>
<text text-anchor="start" x="966" y="-544.5" font-family="Times,serif" font-size="14.00">ACTIVE: 1</text>
<text text-anchor="start" x="966" y="-527.7" font-family="Times,serif" font-size="14.00">REVEALING: 2</text>
<text text-anchor="start" x="966" y="-510.9" font-family="Times,serif" font-size="14.00">COMPLETED: 3</text>
<text text-anchor="start" x="966" y="-494.1" font-family="Times,serif" font-size="14.00">FAILED: 4</text>
</g>
<!-- 6&#45;&gt;0 -->
<g id="edge4" class="edge">
<title>6&#45;&gt;0</title>
<path fill="none" stroke="black" d="M1036.33,-636.42C1013.55,-697.24 982.21,-780.9 963.98,-829.57"/>
<polygon fill="black" stroke="black" points="963.96,-829.62 965.6,-836.64 959.75,-840.86 958.11,-833.84 963.96,-829.62"/>
</g>
<!-- 7 -->
<g id="node7" class="node">
<title>7</title>
<polygon fill="#f2f2f2" stroke="black" points="1092,-0.5 1092,-318.9 1304.33,-318.9 1304.33,-0.5 1092,-0.5"/>
<text text-anchor="middle" x="1198.17" y="-302.3" font-family="Times,serif" font-size="14.00">&lt;&lt;Struct&gt;&gt;</text>
<text text-anchor="middle" x="1198.17" y="-285.5" font-family="Times,serif" font-size="14.00">Task</text>
<text text-anchor="middle" x="1198.17" y="-268.7" font-family="Times,serif" font-size="14.00">contracts/libs/IexecLibCore_v5.sol</text>
<polyline fill="none" stroke="black" points="1092,-260.5 1304.33,-260.5 "/>
<text text-anchor="start" x="1100" y="-243.9" font-family="Times,serif" font-size="14.00">status: TaskStatusEnum</text>
<text text-anchor="start" x="1100" y="-227.1" font-family="Times,serif" font-size="14.00">dealid: bytes32</text>
<text text-anchor="start" x="1100" y="-210.3" font-family="Times,serif" font-size="14.00">idx: uint256</text>
<text text-anchor="start" x="1100" y="-193.5" font-family="Times,serif" font-size="14.00">timeref: uint256</text>
<text text-anchor="start" x="1100" y="-176.7" font-family="Times,serif" font-size="14.00">contributionDeadline: uint256</text>
<text text-anchor="start" x="1100" y="-159.9" font-family="Times,serif" font-size="14.00">revealDeadline: uint256</text>
<text text-anchor="start" x="1100" y="-143.1" font-family="Times,serif" font-size="14.00">finalDeadline: uint256</text>
<text text-anchor="start" x="1100" y="-126.3" font-family="Times,serif" font-size="14.00">consensusValue: bytes32</text>
<text text-anchor="start" x="1100" y="-109.5" font-family="Times,serif" font-size="14.00">revealCounter: uint256</text>
<text text-anchor="start" x="1100" y="-92.7" font-family="Times,serif" font-size="14.00">winnerCounter: uint256</text>
<text text-anchor="start" x="1100" y="-75.9" font-family="Times,serif" font-size="14.00">contributors: address[]</text>
<text text-anchor="start" x="1100" y="-59.1" font-family="Times,serif" font-size="14.00">resultDigest: bytes32</text>
<text text-anchor="start" x="1100" y="-42.3" font-family="Times,serif" font-size="14.00">results: bytes</text>
<text text-anchor="start" x="1100" y="-25.5" font-family="Times,serif" font-size="14.00">resultsTimestamp: uint256</text>
<text text-anchor="start" x="1100" y="-8.7" font-family="Times,serif" font-size="14.00">resultsCallback: bytes</text>
</g>
<!-- 7&#45;&gt;6 -->
<g id="edge2" class="edge">
<title>7&#45;&gt;6</title>
<path fill="none" stroke="black" stroke-dasharray="5,2" d="M1145.01,-319.13C1127.01,-372.81 1107.6,-430.65 1092.32,-476.2"/>
<polygon fill="black" stroke="black" points="1088.98,-475.14 1089.12,-485.73 1095.62,-477.36 1088.98,-475.14"/>
</g>
<!-- 7&#45;&gt;0 -->
<g id="edge11" class="edge">
<title>7&#45;&gt;0</title>
<path fill="none" stroke="black" d="M1201.81,-318.94C1204.3,-486.09 1203.56,-730.51 1179.17,-766.8 1153.37,-805.17 1109.62,-829.3 1067.15,-844.41"/>
<polygon fill="black" stroke="black" points="1066.88,-844.49 1062.48,-850.2 1055.51,-848.34 1059.92,-842.63 1066.88,-844.49"/>
</g>
<!-- 8 -->
<g id="node8" class="node">
<title>8</title>
<polygon fill="#f2f2f2" stroke="black" points="1225.92,-511.1 1225.92,-611.1 1442.41,-611.1 1442.41,-511.1 1225.92,-511.1"/>
<text text-anchor="middle" x="1334.17" y="-594.5" font-family="Times,serif" font-size="14.00">&lt;&lt;Struct&gt;&gt;</text>
<text text-anchor="middle" x="1334.17" y="-577.7" font-family="Times,serif" font-size="14.00">Consensus</text>
<text text-anchor="middle" x="1334.17" y="-560.9" font-family="Times,serif" font-size="14.00">contracts/libs/IexecLibCore_v5.sol</text>
<polyline fill="none" stroke="black" points="1225.92,-552.7 1442.41,-552.7 "/>
<text text-anchor="start" x="1233.92" y="-536.1" font-family="Times,serif" font-size="14.00">group: mapping(bytes32=&gt;uint256)</text>
<text text-anchor="start" x="1233.92" y="-519.3" font-family="Times,serif" font-size="14.00">total: uint256</text>
</g>
<!-- 8&#45;&gt;0 -->
<g id="edge12" class="edge">
<title>8&#45;&gt;0</title>
<path fill="none" stroke="black" d="M1315.79,-611.44C1296.41,-657.36 1261.76,-724.85 1212.17,-766.8 1170.79,-801.81 1116.06,-825.66 1067.24,-841.47"/>
<polygon fill="black" stroke="black" points="1067.07,-841.52 1062.55,-847.13 1055.62,-845.11 1060.15,-839.5 1067.07,-841.52"/>
</g>
<!-- 9 -->
<g id="node9" class="node">
<title>9</title>
<polygon fill="#f2f2f2" stroke="black" points="1460,-494.3 1460,-627.9 1672.33,-627.9 1672.33,-494.3 1460,-494.3"/>
<text text-anchor="middle" x="1566.17" y="-611.3" font-family="Times,serif" font-size="14.00">&lt;&lt;Enum&gt;&gt;</text>
<text text-anchor="middle" x="1566.17" y="-594.5" font-family="Times,serif" font-size="14.00">ContributionStatusEnum</text>
<text text-anchor="middle" x="1566.17" y="-577.7" font-family="Times,serif" font-size="14.00">contracts/libs/IexecLibCore_v5.sol</text>
<polyline fill="none" stroke="black" points="1460,-569.5 1672.33,-569.5 "/>
<text text-anchor="start" x="1468" y="-552.9" font-family="Times,serif" font-size="14.00">UNSET: 0</text>
<text text-anchor="start" x="1468" y="-536.1" font-family="Times,serif" font-size="14.00">CONTRIBUTED: 1</text>
<text text-anchor="start" x="1468" y="-519.3" font-family="Times,serif" font-size="14.00">PROVED: 2</text>
<text text-anchor="start" x="1468" y="-502.5" font-family="Times,serif" font-size="14.00">REJECTED: 3</text>
</g>
<!-- 9&#45;&gt;0 -->
<g id="edge5" class="edge">
<title>9&#45;&gt;0</title>
<path fill="none" stroke="black" d="M1545.7,-627.92C1527.99,-673.86 1497.77,-732.82 1451.17,-766.8 1391.25,-810.49 1196.41,-840.66 1067.83,-856.4"/>
<polygon fill="black" stroke="black" points="1067.51,-856.44 1062.04,-861.13 1055.6,-857.87 1061.08,-853.18 1067.51,-856.44"/>
</g>
<!-- 10 -->
<g id="node10" class="node">
<title>10</title>
<polygon fill="#f2f2f2" stroke="black" points="1594,-84.5 1594,-234.9 1806.33,-234.9 1806.33,-84.5 1594,-84.5"/>
<text text-anchor="middle" x="1700.17" y="-218.3" font-family="Times,serif" font-size="14.00">&lt;&lt;Struct&gt;&gt;</text>
<text text-anchor="middle" x="1700.17" y="-201.5" font-family="Times,serif" font-size="14.00">Contribution</text>
<text text-anchor="middle" x="1700.17" y="-184.7" font-family="Times,serif" font-size="14.00">contracts/libs/IexecLibCore_v5.sol</text>
<polyline fill="none" stroke="black" points="1594,-176.5 1806.33,-176.5 "/>
<text text-anchor="start" x="1602" y="-159.9" font-family="Times,serif" font-size="14.00">status: ContributionStatusEnum</text>
<text text-anchor="start" x="1602" y="-143.1" font-family="Times,serif" font-size="14.00">resultHash: bytes32</text>
<text text-anchor="start" x="1602" y="-126.3" font-family="Times,serif" font-size="14.00">resultSeal: bytes32</text>
<text text-anchor="start" x="1602" y="-109.5" font-family="Times,serif" font-size="14.00">enclaveChallenge: address</text>
<text text-anchor="start" x="1602" y="-92.7" font-family="Times,serif" font-size="14.00">weight: uint256</text>
</g>
<!-- 10&#45;&gt;9 -->
<g id="edge3" class="edge">
<title>10&#45;&gt;9</title>
<path fill="none" stroke="black" stroke-dasharray="5,2" d="M1675.12,-235.36C1651.28,-306.41 1615.59,-412.8 1591.62,-484.25"/>
<polygon fill="black" stroke="black" points="1588.18,-483.5 1588.31,-494.09 1594.81,-485.72 1588.18,-483.5"/>
</g>
<!-- 10&#45;&gt;0 -->
<g id="edge13" class="edge">
<title>10&#45;&gt;0</title>
<path fill="none" stroke="black" d="M1703.08,-235.13C1708.35,-388.38 1715.9,-728.12 1681.17,-766.8 1660.86,-789.42 1269.5,-834.61 1067.57,-856.56"/>
<polygon fill="black" stroke="black" points="1067.36,-856.58 1061.83,-861.2 1055.43,-857.87 1060.96,-853.25 1067.36,-856.58"/>
</g>
<!-- 12 -->
<g id="node12" class="node">
<title>12</title>
<polygon fill="#f2f2f2" stroke="black" points="2026.56,-109.7 2026.56,-209.7 2249.78,-209.7 2249.78,-109.7 2026.56,-109.7"/>
<text text-anchor="middle" x="2138.17" y="-193.1" font-family="Times,serif" font-size="14.00">&lt;&lt;Enum&gt;&gt;</text>
<text text-anchor="middle" x="2138.17" y="-176.3" font-family="Times,serif" font-size="14.00">OrderOperationEnum</text>
<text text-anchor="middle" x="2138.17" y="-159.5" font-family="Times,serif" font-size="14.00">contracts/libs/IexecLibOrders_v5.sol</text>
<polyline fill="none" stroke="black" points="2026.56,-151.3 2249.78,-151.3 "/>
<text text-anchor="start" x="2034.56" y="-134.7" font-family="Times,serif" font-size="14.00">SIGN: 0</text>
<text text-anchor="start" x="2034.56" y="-117.9" font-family="Times,serif" font-size="14.00">CLOSE: 1</text>
</g>
<!-- 11 -->
<g id="node22" class="node">
<title>11</title>
<polygon fill="#f2f2f2" stroke="black" points="1921.4,-355.9 1921.4,-766.3 2354.93,-766.3 2354.93,-355.9 1921.4,-355.9"/>
<text text-anchor="middle" x="2138.17" y="-749.7" font-family="Times,serif" font-size="14.00">&lt;&lt;Library&gt;&gt;</text>
<text text-anchor="middle" x="2138.17" y="-732.9" font-family="Times,serif" font-size="14.00">IexecLibOrders_v5</text>
<text text-anchor="middle" x="2138.17" y="-716.1" font-family="Times,serif" font-size="14.00">contracts/libs/IexecLibOrders_v5.sol</text>
<polyline fill="none" stroke="black" points="1921.4,-707.9 2354.93,-707.9 "/>
<text text-anchor="start" x="1929.4" y="-691.3" font-family="Times,serif" font-size="14.00">Public:</text>
<text text-anchor="start" x="1929.4" y="-674.5" font-family="Times,serif" font-size="14.00"> &#160;&#160;EIP712DOMAIN_TYPEHASH: bytes32</text>
<text text-anchor="start" x="1929.4" y="-657.7" font-family="Times,serif" font-size="14.00"> &#160;&#160;APPORDER_TYPEHASH: bytes32</text>
<text text-anchor="start" x="1929.4" y="-640.9" font-family="Times,serif" font-size="14.00"> &#160;&#160;DATASETORDER_TYPEHASH: bytes32</text>
<text text-anchor="start" x="1929.4" y="-624.1" font-family="Times,serif" font-size="14.00"> &#160;&#160;WORKERPOOLORDER_TYPEHASH: bytes32</text>
<text text-anchor="start" x="1929.4" y="-607.3" font-family="Times,serif" font-size="14.00"> &#160;&#160;REQUESTORDER_TYPEHASH: bytes32</text>
<text text-anchor="start" x="1929.4" y="-590.5" font-family="Times,serif" font-size="14.00"> &#160;&#160;APPORDEROPERATION_TYPEHASH: bytes32</text>
<text text-anchor="start" x="1929.4" y="-573.7" font-family="Times,serif" font-size="14.00"> &#160;&#160;DATASETORDEROPERATION_TYPEHASH: bytes32</text>
<text text-anchor="start" x="1929.4" y="-556.9" font-family="Times,serif" font-size="14.00"> &#160;&#160;WORKERPOOLORDEROPERATION_TYPEHASH: bytes32</text>
<text text-anchor="start" x="1929.4" y="-540.1" font-family="Times,serif" font-size="14.00"> &#160;&#160;REQUESTORDEROPERATION_TYPEHASH: bytes32</text>
<polyline fill="none" stroke="black" points="1921.4,-531.9 2354.93,-531.9 "/>
<text text-anchor="start" x="1929.4" y="-515.3" font-family="Times,serif" font-size="14.00">Public:</text>
<text text-anchor="start" x="1929.4" y="-498.5" font-family="Times,serif" font-size="14.00"> &#160;&#160;&#160;hash(_domain: EIP712Domain): (domainhash: bytes32)</text>
<text text-anchor="start" x="1929.4" y="-481.7" font-family="Times,serif" font-size="14.00"> &#160;&#160;&#160;hash(_apporder: AppOrder): (apphash: bytes32)</text>
<text text-anchor="start" x="1929.4" y="-464.9" font-family="Times,serif" font-size="14.00"> &#160;&#160;&#160;hash(_datasetorder: DatasetOrder): (datasethash: bytes32)</text>
<text text-anchor="start" x="1929.4" y="-448.1" font-family="Times,serif" font-size="14.00"> &#160;&#160;&#160;hash(_workerpoolorder: WorkerpoolOrder): (workerpoolhash: bytes32)</text>
<text text-anchor="start" x="1929.4" y="-431.3" font-family="Times,serif" font-size="14.00"> &#160;&#160;&#160;hash(_requestorder: RequestOrder): (requesthash: bytes32)</text>
<text text-anchor="start" x="1929.4" y="-414.5" font-family="Times,serif" font-size="14.00"> &#160;&#160;&#160;hash(_apporderoperation: AppOrderOperation): bytes32</text>
<text text-anchor="start" x="1929.4" y="-397.7" font-family="Times,serif" font-size="14.00"> &#160;&#160;&#160;hash(_datasetorderoperation: DatasetOrderOperation): bytes32</text>
<text text-anchor="start" x="1929.4" y="-380.9" font-family="Times,serif" font-size="14.00"> &#160;&#160;&#160;hash(_workerpoolorderoperation: WorkerpoolOrderOperation): bytes32</text>
<text text-anchor="start" x="1929.4" y="-364.1" font-family="Times,serif" font-size="14.00"> &#160;&#160;&#160;hash(_requestorderoperation: RequestOrderOperation): bytes32</text>
</g>
<!-- 12&#45;&gt;11 -->
<g id="edge22" class="edge">
<title>12&#45;&gt;11</title>
<path fill="none" stroke="black" d="M2138.17,-210.07C2138.17,-244.56 2138.17,-293.25 2138.17,-343.38"/>
<polygon fill="black" stroke="black" points="2138.17,-343.46 2142.17,-349.46 2138.17,-355.46 2134.17,-349.46 2138.17,-343.46"/>
</g>
<!-- 13 -->
<g id="node13" class="node">
<title>13</title>
<polygon fill="#f2f2f2" stroke="black" points="2175.56,-803.3 2175.56,-936.9 2398.78,-936.9 2398.78,-803.3 2175.56,-803.3"/>
<text text-anchor="middle" x="2287.17" y="-920.3" font-family="Times,serif" font-size="14.00">&lt;&lt;Struct&gt;&gt;</text>
<text text-anchor="middle" x="2287.17" y="-903.5" font-family="Times,serif" font-size="14.00">EIP712Domain</text>
<text text-anchor="middle" x="2287.17" y="-886.7" font-family="Times,serif" font-size="14.00">contracts/libs/IexecLibOrders_v5.sol</text>
<polyline fill="none" stroke="black" points="2175.56,-878.5 2398.78,-878.5 "/>
<text text-anchor="start" x="2183.56" y="-861.9" font-family="Times,serif" font-size="14.00">name: string</text>
<text text-anchor="start" x="2183.56" y="-845.1" font-family="Times,serif" font-size="14.00">version: string</text>
<text text-anchor="start" x="2183.56" y="-828.3" font-family="Times,serif" font-size="14.00">chainId: uint256</text>
<text text-anchor="start" x="2183.56" y="-811.5" font-family="Times,serif" font-size="14.00">verifyingContract: address</text>
</g>
<!-- 13&#45;&gt;11 -->
<g id="edge23" class="edge">
<title>13&#45;&gt;11</title>
<path fill="none" stroke="black" d="M2260.81,-803.14C2257.11,-795.03 2253.13,-786.43 2248.95,-777.5"/>
<polygon fill="black" stroke="black" points="2248.86,-777.31 2242.69,-773.58 2243.75,-766.45 2249.93,-770.18 2248.86,-777.31"/>
</g>
<!-- 14 -->
<g id="node14" class="node">
<title>14</title>
<polygon fill="#f2f2f2" stroke="black" points="1665.56,-1032.7 1665.56,-1250.3 1888.78,-1250.3 1888.78,-1032.7 1665.56,-1032.7"/>
<text text-anchor="middle" x="1777.17" y="-1233.7" font-family="Times,serif" font-size="14.00">&lt;&lt;Struct&gt;&gt;</text>
<text text-anchor="middle" x="1777.17" y="-1216.9" font-family="Times,serif" font-size="14.00">AppOrder</text>
<text text-anchor="middle" x="1777.17" y="-1200.1" font-family="Times,serif" font-size="14.00">contracts/libs/IexecLibOrders_v5.sol</text>
<polyline fill="none" stroke="black" points="1665.56,-1191.9 1888.78,-1191.9 "/>
<text text-anchor="start" x="1673.56" y="-1175.3" font-family="Times,serif" font-size="14.00">app: address</text>
<text text-anchor="start" x="1673.56" y="-1158.5" font-family="Times,serif" font-size="14.00">appprice: uint256</text>
<text text-anchor="start" x="1673.56" y="-1141.7" font-family="Times,serif" font-size="14.00">volume: uint256</text>
<text text-anchor="start" x="1673.56" y="-1124.9" font-family="Times,serif" font-size="14.00">tag: bytes32</text>
<text text-anchor="start" x="1673.56" y="-1108.1" font-family="Times,serif" font-size="14.00">datasetrestrict: address</text>
<text text-anchor="start" x="1673.56" y="-1091.3" font-family="Times,serif" font-size="14.00">workerpoolrestrict: address</text>
<text text-anchor="start" x="1673.56" y="-1074.5" font-family="Times,serif" font-size="14.00">requesterrestrict: address</text>
<text text-anchor="start" x="1673.56" y="-1057.7" font-family="Times,serif" font-size="14.00">salt: bytes32</text>
<text text-anchor="start" x="1673.56" y="-1040.9" font-family="Times,serif" font-size="14.00">sign: bytes</text>
</g>
<!-- 14&#45;&gt;11 -->
<g id="edge24" class="edge">
<title>14&#45;&gt;11</title>
<path fill="none" stroke="black" d="M1848.65,-1032.61C1865.35,-1010.8 1884.62,-989.62 1906.17,-973.4 1944.24,-944.74 1973.22,-970.85 2007.17,-937.4 2020.65,-924.11 2048,-854.2 2074.29,-778.26"/>
<polygon fill="black" stroke="black" points="2074.42,-777.87 2072.59,-770.89 2078.32,-766.52 2080.16,-773.5 2074.42,-777.87"/>
</g>
<!-- 15 -->
<g id="node15" class="node">
<title>15</title>
<polygon fill="#f2f2f2" stroke="black" points="2147.56,-1032.7 2147.56,-1250.3 2370.78,-1250.3 2370.78,-1032.7 2147.56,-1032.7"/>
<text text-anchor="middle" x="2259.17" y="-1233.7" font-family="Times,serif" font-size="14.00">&lt;&lt;Struct&gt;&gt;</text>
<text text-anchor="middle" x="2259.17" y="-1216.9" font-family="Times,serif" font-size="14.00">DatasetOrder</text>
<text text-anchor="middle" x="2259.17" y="-1200.1" font-family="Times,serif" font-size="14.00">contracts/libs/IexecLibOrders_v5.sol</text>
<polyline fill="none" stroke="black" points="2147.56,-1191.9 2370.78,-1191.9 "/>
<text text-anchor="start" x="2155.56" y="-1175.3" font-family="Times,serif" font-size="14.00">dataset: address</text>
<text text-anchor="start" x="2155.56" y="-1158.5" font-family="Times,serif" font-size="14.00">datasetprice: uint256</text>
<text text-anchor="start" x="2155.56" y="-1141.7" font-family="Times,serif" font-size="14.00">volume: uint256</text>
<text text-anchor="start" x="2155.56" y="-1124.9" font-family="Times,serif" font-size="14.00">tag: bytes32</text>
<text text-anchor="start" x="2155.56" y="-1108.1" font-family="Times,serif" font-size="14.00">apprestrict: address</text>
<text text-anchor="start" x="2155.56" y="-1091.3" font-family="Times,serif" font-size="14.00">workerpoolrestrict: address</text>
<text text-anchor="start" x="2155.56" y="-1074.5" font-family="Times,serif" font-size="14.00">requesterrestrict: address</text>
<text text-anchor="start" x="2155.56" y="-1057.7" font-family="Times,serif" font-size="14.00">salt: bytes32</text>
<text text-anchor="start" x="2155.56" y="-1040.9" font-family="Times,serif" font-size="14.00">sign: bytes</text>
</g>
<!-- 15&#45;&gt;11 -->
<g id="edge25" class="edge">
<title>15&#45;&gt;11</title>
<path fill="none" stroke="black" d="M2209.91,-1032.7C2196.47,-1002.63 2183.41,-969.42 2175.17,-937.4 2162.13,-886.77 2154.51,-831.12 2149.92,-778.54"/>
<polygon fill="black" stroke="black" points="2149.9,-778.28 2145.41,-772.63 2148.9,-766.32 2153.38,-771.96 2149.9,-778.28"/>
</g>
<!-- 16 -->
<g id="node16" class="node">
<title>16</title>
<polygon fill="#f2f2f2" stroke="black" points="1906.56,-1015.9 1906.56,-1267.1 2129.78,-1267.1 2129.78,-1015.9 1906.56,-1015.9"/>
<text text-anchor="middle" x="2018.17" y="-1250.5" font-family="Times,serif" font-size="14.00">&lt;&lt;Struct&gt;&gt;</text>
<text text-anchor="middle" x="2018.17" y="-1233.7" font-family="Times,serif" font-size="14.00">WorkerpoolOrder</text>
<text text-anchor="middle" x="2018.17" y="-1216.9" font-family="Times,serif" font-size="14.00">contracts/libs/IexecLibOrders_v5.sol</text>
<polyline fill="none" stroke="black" points="1906.56,-1208.7 2129.78,-1208.7 "/>
<text text-anchor="start" x="1914.56" y="-1192.1" font-family="Times,serif" font-size="14.00">workerpool: address</text>
<text text-anchor="start" x="1914.56" y="-1175.3" font-family="Times,serif" font-size="14.00">workerpoolprice: uint256</text>
<text text-anchor="start" x="1914.56" y="-1158.5" font-family="Times,serif" font-size="14.00">volume: uint256</text>
<text text-anchor="start" x="1914.56" y="-1141.7" font-family="Times,serif" font-size="14.00">tag: bytes32</text>
<text text-anchor="start" x="1914.56" y="-1124.9" font-family="Times,serif" font-size="14.00">category: uint256</text>
<text text-anchor="start" x="1914.56" y="-1108.1" font-family="Times,serif" font-size="14.00">trust: uint256</text>
<text text-anchor="start" x="1914.56" y="-1091.3" font-family="Times,serif" font-size="14.00">apprestrict: address</text>
<text text-anchor="start" x="1914.56" y="-1074.5" font-family="Times,serif" font-size="14.00">datasetrestrict: address</text>
<text text-anchor="start" x="1914.56" y="-1057.7" font-family="Times,serif" font-size="14.00">requesterrestrict: address</text>
<text text-anchor="start" x="1914.56" y="-1040.9" font-family="Times,serif" font-size="14.00">salt: bytes32</text>
<text text-anchor="start" x="1914.56" y="-1024.1" font-family="Times,serif" font-size="14.00">sign: bytes</text>
</g>
<!-- 16&#45;&gt;11 -->
<g id="edge26" class="edge">
<title>16&#45;&gt;11</title>
<path fill="none" stroke="black" d="M2049.69,-1015.89C2065.09,-946.58 2083.69,-858.38 2099.89,-778.2"/>
<polygon fill="black" stroke="black" points="2099.89,-778.19 2097.15,-771.52 2102.26,-766.43 2105,-773.1 2099.89,-778.19"/>
</g>
<!-- 17 -->
<g id="node17" class="node">
<title>17</title>
<polygon fill="#f2f2f2" stroke="black" points="2388.56,-973.9 2388.56,-1309.1 2611.78,-1309.1 2611.78,-973.9 2388.56,-973.9"/>
<text text-anchor="middle" x="2500.17" y="-1292.5" font-family="Times,serif" font-size="14.00">&lt;&lt;Struct&gt;&gt;</text>
<text text-anchor="middle" x="2500.17" y="-1275.7" font-family="Times,serif" font-size="14.00">RequestOrder</text>
<text text-anchor="middle" x="2500.17" y="-1258.9" font-family="Times,serif" font-size="14.00">contracts/libs/IexecLibOrders_v5.sol</text>
<polyline fill="none" stroke="black" points="2388.56,-1250.7 2611.78,-1250.7 "/>
<text text-anchor="start" x="2396.56" y="-1234.1" font-family="Times,serif" font-size="14.00">app: address</text>
<text text-anchor="start" x="2396.56" y="-1217.3" font-family="Times,serif" font-size="14.00">appmaxprice: uint256</text>
<text text-anchor="start" x="2396.56" y="-1200.5" font-family="Times,serif" font-size="14.00">dataset: address</text>
<text text-anchor="start" x="2396.56" y="-1183.7" font-family="Times,serif" font-size="14.00">datasetmaxprice: uint256</text>
<text text-anchor="start" x="2396.56" y="-1166.9" font-family="Times,serif" font-size="14.00">workerpool: address</text>
<text text-anchor="start" x="2396.56" y="-1150.1" font-family="Times,serif" font-size="14.00">workerpoolmaxprice: uint256</text>
<text text-anchor="start" x="2396.56" y="-1133.3" font-family="Times,serif" font-size="14.00">requester: address</text>
<text text-anchor="start" x="2396.56" y="-1116.5" font-family="Times,serif" font-size="14.00">volume: uint256</text>
<text text-anchor="start" x="2396.56" y="-1099.7" font-family="Times,serif" font-size="14.00">tag: bytes32</text>
<text text-anchor="start" x="2396.56" y="-1082.9" font-family="Times,serif" font-size="14.00">category: uint256</text>
<text text-anchor="start" x="2396.56" y="-1066.1" font-family="Times,serif" font-size="14.00">trust: uint256</text>
<text text-anchor="start" x="2396.56" y="-1049.3" font-family="Times,serif" font-size="14.00">beneficiary: address</text>
<text text-anchor="start" x="2396.56" y="-1032.5" font-family="Times,serif" font-size="14.00">callback: address</text>
<text text-anchor="start" x="2396.56" y="-1015.7" font-family="Times,serif" font-size="14.00">params: string</text>
<text text-anchor="start" x="2396.56" y="-998.9" font-family="Times,serif" font-size="14.00">salt: bytes32</text>
<text text-anchor="start" x="2396.56" y="-982.1" font-family="Times,serif" font-size="14.00">sign: bytes</text>
</g>
<!-- 17&#45;&gt;11 -->
<g id="edge27" class="edge">
<title>17&#45;&gt;11</title>
<path fill="none" stroke="black" d="M2472.21,-973.5C2456.08,-903.98 2435.6,-832.57 2417.17,-802.8 2401.99,-778.28 2383.57,-754.81 2363.5,-732.81"/>
<polygon fill="black" stroke="black" points="2363.29,-732.58 2356.28,-730.91 2355.12,-723.8 2362.13,-725.46 2363.29,-732.58"/>
</g>
<!-- 18 -->
<g id="node18" class="node">
<title>18</title>
<polygon fill="#f2f2f2" stroke="black" points="1524.56,-811.7 1524.56,-928.5 1747.78,-928.5 1747.78,-811.7 1524.56,-811.7"/>
<text text-anchor="middle" x="1636.17" y="-911.9" font-family="Times,serif" font-size="14.00">&lt;&lt;Struct&gt;&gt;</text>
<text text-anchor="middle" x="1636.17" y="-895.1" font-family="Times,serif" font-size="14.00">AppOrderOperation</text>
<text text-anchor="middle" x="1636.17" y="-878.3" font-family="Times,serif" font-size="14.00">contracts/libs/IexecLibOrders_v5.sol</text>
<polyline fill="none" stroke="black" points="1524.56,-870.1 1747.78,-870.1 "/>
<text text-anchor="start" x="1532.56" y="-853.5" font-family="Times,serif" font-size="14.00">order: AppOrder</text>
<text text-anchor="start" x="1532.56" y="-836.7" font-family="Times,serif" font-size="14.00">operation: OrderOperationEnum</text>
<text text-anchor="start" x="1532.56" y="-819.9" font-family="Times,serif" font-size="14.00">sign: bytes</text>
</g>
<!-- 18&#45;&gt;12 -->
<g id="edge15" class="edge">
<title>18&#45;&gt;12</title>
<path fill="none" stroke="black" stroke-dasharray="5,2" d="M1685.22,-811.55C1695.71,-797.5 1706.06,-782.09 1714.17,-766.8 1804.51,-596.41 1735.7,-509.12 1852.17,-355.4 1897.37,-295.74 1966.32,-248.03 2025.2,-214.78"/>
<polygon fill="black" stroke="black" points="2027.15,-217.69 2034.18,-209.77 2023.74,-211.58 2027.15,-217.69"/>
</g>
<!-- 18&#45;&gt;14 -->
<g id="edge14" class="edge">
<title>18&#45;&gt;14</title>
<path fill="none" stroke="black" stroke-dasharray="5,2" d="M1666.24,-928.56C1680.73,-956.25 1698.66,-990.51 1715.85,-1023.35"/>
<polygon fill="black" stroke="black" points="1712.94,-1025.33 1720.68,-1032.57 1719.14,-1022.09 1712.94,-1025.33"/>
</g>
<!-- 18&#45;&gt;11 -->
<g id="edge28" class="edge">
<title>18&#45;&gt;11</title>
<path fill="none" stroke="black" d="M1735.45,-811.69C1785.84,-781.48 1849.27,-742.96 1910.79,-705.27"/>
<polygon fill="black" stroke="black" points="1910.81,-705.26 1913.84,-698.71 1921.04,-698.99 1918.02,-705.54 1910.81,-705.26"/>
</g>
<!-- 19 -->
<g id="node19" class="node">
<title>19</title>
<polygon fill="#f2f2f2" stroke="black" points="2473.56,-811.7 2473.56,-928.5 2696.78,-928.5 2696.78,-811.7 2473.56,-811.7"/>
<text text-anchor="middle" x="2585.17" y="-911.9" font-family="Times,serif" font-size="14.00">&lt;&lt;Struct&gt;&gt;</text>
<text text-anchor="middle" x="2585.17" y="-895.1" font-family="Times,serif" font-size="14.00">DatasetOrderOperation</text>
<text text-anchor="middle" x="2585.17" y="-878.3" font-family="Times,serif" font-size="14.00">contracts/libs/IexecLibOrders_v5.sol</text>
<polyline fill="none" stroke="black" points="2473.56,-870.1 2696.78,-870.1 "/>
<text text-anchor="start" x="2481.56" y="-853.5" font-family="Times,serif" font-size="14.00">order: DatasetOrder</text>
<text text-anchor="start" x="2481.56" y="-836.7" font-family="Times,serif" font-size="14.00">operation: OrderOperationEnum</text>
<text text-anchor="start" x="2481.56" y="-819.9" font-family="Times,serif" font-size="14.00">sign: bytes</text>
</g>
<!-- 19&#45;&gt;12 -->
<g id="edge17" class="edge">
<title>19&#45;&gt;12</title>
<path fill="none" stroke="black" stroke-dasharray="5,2" d="M2569.76,-811.57C2541.08,-711.73 2472.42,-502.96 2364.17,-355.4 2324.13,-300.83 2266.07,-251.23 2218.83,-215.76"/>
<polygon fill="black" stroke="black" points="2220.85,-212.9 2210.74,-209.74 2216.68,-218.52 2220.85,-212.9"/>
</g>
<!-- 19&#45;&gt;15 -->
<g id="edge16" class="edge">
<title>19&#45;&gt;15</title>
<path fill="none" stroke="black" stroke-dasharray="5,2" d="M2473.52,-914.35C2441.08,-930.03 2406.93,-949.8 2379.17,-973.4 2361.94,-988.04 2345.89,-1005.66 2331.5,-1023.89"/>
<polygon fill="black" stroke="black" points="2328.35,-1022.25 2325,-1032.3 2333.89,-1026.52 2328.35,-1022.25"/>
</g>
<!-- 19&#45;&gt;11 -->
<g id="edge29" class="edge">
<title>19&#45;&gt;11</title>
<path fill="none" stroke="black" d="M2506.8,-811.57C2466.91,-783.54 2416.17,-748.38 2365.19,-713.38"/>
<polygon fill="black" stroke="black" points="2364.89,-713.18 2357.68,-713.08 2354.99,-706.39 2362.2,-706.48 2364.89,-713.18"/>
</g>
<!-- 20 -->
<g id="node20" class="node">
<title>20</title>
<polygon fill="#f2f2f2" stroke="black" points="1765.56,-811.7 1765.56,-928.5 1988.78,-928.5 1988.78,-811.7 1765.56,-811.7"/>
<text text-anchor="middle" x="1877.17" y="-911.9" font-family="Times,serif" font-size="14.00">&lt;&lt;Struct&gt;&gt;</text>
<text text-anchor="middle" x="1877.17" y="-895.1" font-family="Times,serif" font-size="14.00">WorkerpoolOrderOperation</text>
<text text-anchor="middle" x="1877.17" y="-878.3" font-family="Times,serif" font-size="14.00">contracts/libs/IexecLibOrders_v5.sol</text>
<polyline fill="none" stroke="black" points="1765.56,-870.1 1988.78,-870.1 "/>
<text text-anchor="start" x="1773.56" y="-853.5" font-family="Times,serif" font-size="14.00">order: WorkerpoolOrder</text>
<text text-anchor="start" x="1773.56" y="-836.7" font-family="Times,serif" font-size="14.00">operation: OrderOperationEnum</text>
<text text-anchor="start" x="1773.56" y="-819.9" font-family="Times,serif" font-size="14.00">sign: bytes</text>
</g>
<!-- 20&#45;&gt;12 -->
<g id="edge19" class="edge">
<title>20&#45;&gt;12</title>
<path fill="none" stroke="black" stroke-dasharray="5,2" d="M1867.35,-811.43C1853.35,-712.29 1836.98,-505.7 1912.17,-355.4 1941.24,-297.28 1996.12,-249.35 2044.51,-215.59"/>
<polygon fill="black" stroke="black" points="2046.58,-218.42 2052.84,-209.88 2042.62,-212.65 2046.58,-218.42"/>
</g>
<!-- 20&#45;&gt;16 -->
<g id="edge18" class="edge">
<title>20&#45;&gt;16</title>
<path fill="none" stroke="black" stroke-dasharray="5,2" d="M1907.24,-928.56C1919.32,-951.64 1933.79,-979.29 1948.23,-1006.87"/>
<polygon fill="black" stroke="black" points="1945.17,-1008.58 1952.91,-1015.82 1951.38,-1005.34 1945.17,-1008.58"/>
</g>
<!-- 20&#45;&gt;11 -->
<g id="edge30" class="edge">
<title>20&#45;&gt;11</title>
<path fill="none" stroke="black" d="M1931.61,-811.43C1941.27,-800.49 1951.77,-788.46 1962.77,-775.79"/>
<polygon fill="black" stroke="black" points="1963,-775.52 1963.9,-768.37 1970.85,-766.45 1969.95,-773.6 1963,-775.52"/>
</g>
<!-- 21 -->
<g id="node21" class="node">
<title>21</title>
<polygon fill="#f2f2f2" stroke="black" points="2714.56,-811.7 2714.56,-928.5 2937.78,-928.5 2937.78,-811.7 2714.56,-811.7"/>
<text text-anchor="middle" x="2826.17" y="-911.9" font-family="Times,serif" font-size="14.00">&lt;&lt;Struct&gt;&gt;</text>
<text text-anchor="middle" x="2826.17" y="-895.1" font-family="Times,serif" font-size="14.00">RequestOrderOperation</text>
<text text-anchor="middle" x="2826.17" y="-878.3" font-family="Times,serif" font-size="14.00">contracts/libs/IexecLibOrders_v5.sol</text>
<polyline fill="none" stroke="black" points="2714.56,-870.1 2937.78,-870.1 "/>
<text text-anchor="start" x="2722.56" y="-853.5" font-family="Times,serif" font-size="14.00">order: RequestOrder</text>
<text text-anchor="start" x="2722.56" y="-836.7" font-family="Times,serif" font-size="14.00">operation: OrderOperationEnum</text>
<text text-anchor="start" x="2722.56" y="-819.9" font-family="Times,serif" font-size="14.00">sign: bytes</text>
</g>
<!-- 21&#45;&gt;12 -->
<g id="edge21" class="edge">
<title>21&#45;&gt;12</title>
<path fill="none" stroke="black" stroke-dasharray="5,2" d="M2797.38,-811.37C2744.34,-709.38 2622.68,-494.94 2472.17,-355.4 2409.16,-296.99 2325.66,-248.31 2257.91,-214.24"/>
<polygon fill="black" stroke="black" points="2259.4,-211.07 2248.88,-209.74 2256.27,-217.33 2259.4,-211.07"/>
</g>
<!-- 21&#45;&gt;17 -->
<g id="edge20" class="edge">
<title>21&#45;&gt;17</title>
<path fill="none" stroke="black" stroke-dasharray="5,2" d="M2756.63,-928.56C2716.86,-961.43 2665.87,-1003.57 2619.85,-1041.6"/>
<polygon fill="black" stroke="black" points="2617.4,-1039.08 2611.92,-1048.15 2621.86,-1044.48 2617.4,-1039.08"/>
</g>
<!-- 21&#45;&gt;11 -->
<g id="edge31" class="edge">
<title>21&#45;&gt;11</title>
<path fill="none" stroke="black" d="M2732.75,-811.61C2726.84,-808.57 2720.95,-805.61 2715.17,-802.8 2602.27,-747.87 2473.67,-692.78 2366.55,-649.19"/>
<polygon fill="black" stroke="black" points="2366.38,-649.12 2359.31,-650.57 2355.26,-644.6 2362.32,-643.16 2366.38,-649.12"/>
</g>
<!-- 11&#45;&gt;13 -->
<g id="edge32" class="edge">
<title>11&#45;&gt;13</title>
<path fill="none" stroke="black" stroke-dasharray="5,2" d="M2230.94,-766.45C2235.72,-776.03 2240.4,-785.32 2244.89,-794.13"/>
<polygon fill="black" stroke="black" points="2241.82,-795.83 2249.49,-803.14 2248.06,-792.64 2241.82,-795.83"/>
</g>
<!-- 11&#45;&gt;14 -->
<g id="edge33" class="edge">
<title>11&#45;&gt;14</title>
<path fill="none" stroke="black" stroke-dasharray="5,2" d="M2061.94,-766.52C2032.85,-846.88 2003.35,-923.43 1989.17,-937.4 1955.22,-970.85 1926.24,-944.74 1888.17,-973.4 1869.32,-987.59 1852.2,-1005.58 1837.34,-1024.47"/>
<polygon fill="black" stroke="black" points="1834.41,-1022.55 1831.11,-1032.61 1839.97,-1026.8 1834.41,-1022.55"/>
</g>
<!-- 11&#45;&gt;15 -->
<g id="edge34" class="edge">
<title>11&#45;&gt;15</title>
<path fill="none" stroke="black" stroke-dasharray="5,2" d="M2131.59,-766.32C2135.36,-822.42 2143.12,-882.83 2157.17,-937.4 2164.57,-966.17 2175.87,-995.9 2188.31,-1023.45"/>
<polygon fill="black" stroke="black" points="2185.21,-1025.08 2192.57,-1032.7 2191.57,-1022.15 2185.21,-1025.08"/>
</g>
<!-- 11&#45;&gt;16 -->
<g id="edge35" class="edge">
<title>11&#45;&gt;16</title>
<path fill="none" stroke="black" stroke-dasharray="5,2" d="M2089.29,-766.43C2072.29,-845.92 2054.08,-934.79 2040.27,-1005.96"/>
<polygon fill="black" stroke="black" points="2036.82,-1005.4 2038.36,-1015.89 2043.69,-1006.73 2036.82,-1005.4"/>
</g>
<!-- 11&#45;&gt;17 -->
<g id="edge36" class="edge">
<title>11&#45;&gt;17</title>
<path fill="none" stroke="black" stroke-dasharray="5,2" d="M2355.16,-743.59C2371.44,-762.43 2386.44,-782.24 2399.17,-802.8 2416.74,-831.18 2436.17,-897.38 2453.34,-963.72"/>
<polygon fill="black" stroke="black" points="2449.97,-964.69 2455.85,-973.5 2456.75,-962.95 2449.97,-964.69"/>
</g>
<!-- 11&#45;&gt;18 -->
<g id="edge37" class="edge">
<title>11&#45;&gt;18</title>
<path fill="none" stroke="black" stroke-dasharray="5,2" d="M1921.15,-690.74C1855.66,-730.64 1787.02,-772.83 1733.51,-806.16"/>
<polygon fill="black" stroke="black" points="1731.35,-803.38 1724.71,-811.65 1735.05,-809.32 1731.35,-803.38"/>
</g>
<!-- 11&#45;&gt;19 -->
<g id="edge38" class="edge">
<title>11&#45;&gt;19</title>
<path fill="none" stroke="black" stroke-dasharray="5,2" d="M2355.24,-715.82C2401.57,-747.64 2448.26,-779.44 2487.36,-805.76"/>
<polygon fill="black" stroke="black" points="2485.84,-808.96 2496.1,-811.64 2489.75,-803.15 2485.84,-808.96"/>
</g>
<!-- 11&#45;&gt;20 -->
<g id="edge39" class="edge">
<title>11&#45;&gt;20</title>
<path fill="none" stroke="black" stroke-dasharray="5,2" d="M1958.03,-766.45C1947.08,-779.54 1936.68,-792.08 1927.2,-803.61"/>
<polygon fill="black" stroke="black" points="1924.42,-801.48 1920.79,-811.43 1929.83,-805.92 1924.42,-801.48"/>
</g>
<!-- 11&#45;&gt;21 -->
<g id="edge40" class="edge">
<title>11&#45;&gt;21</title>
<path fill="none" stroke="black" stroke-dasharray="5,2" d="M2354.95,-651.12C2459.45,-694.4 2585.93,-748.68 2697.17,-802.8 2699.97,-804.16 2702.79,-805.56 2705.64,-806.98"/>
<polygon fill="black" stroke="black" points="2704.27,-810.21 2714.77,-811.61 2707.43,-803.97 2704.27,-810.21"/>
</g>
</g>
</svg>
