<?xml version="1.0" encoding="UTF-8" standalone="no"?>
<!DOCTYPE svg PUBLIC "-//W3C//DTD SVG 1.1//EN"
 "http://www.w3.org/Graphics/SVG/1.1/DTD/svg11.dtd">
<!-- Generated by graphviz version 5.0.0 (20220707.1540)
 -->
<!-- Title: UmlClassDiagram Pages: 1 -->
<svg width="3053pt" height="836pt"
 viewBox="0.00 0.00 3053.12 835.80" xmlns="http://www.w3.org/2000/svg" xmlns:xlink="http://www.w3.org/1999/xlink">
<g id="graph0" class="graph" transform="scale(1 1) rotate(0) translate(4 831.8)">
<title>UmlClassDiagram</title>
<polygon fill="white" stroke="transparent" points="-4,4 -4,-831.8 3049.12,-831.8 3049.12,4 -4,4"/>
<!-- 0 -->
<g id="node1" class="node">
<title>0</title>
<polygon fill="#f2f2f2" stroke="black" points="1005.82,-664.5 1005.82,-764.5 1235.28,-764.5 1235.28,-664.5 1005.82,-664.5"/>
<text text-anchor="middle" x="1120.55" y="-747.9" font-family="Times,serif" font-size="14.00">&lt;&lt;Interface&gt;&gt;</text>
<text text-anchor="middle" x="1120.55" y="-731.1" font-family="Times,serif" font-size="14.00">IRegistry</text>
<text text-anchor="middle" x="1120.55" y="-714.3" font-family="Times,serif" font-size="14.00">contracts/registries/IRegistry.sol</text>
<polyline fill="none" stroke="black" points="1005.82,-706.1 1235.28,-706.1 "/>
<text text-anchor="start" x="1013.82" y="-689.5" font-family="Times,serif" font-size="14.00">External:</text>
<text text-anchor="start" x="1013.82" y="-672.7" font-family="Times,serif" font-size="14.00"> &#160;&#160;&#160;&#160;isRegistered(_entry: address): bool</text>
</g>
<!-- 1 -->
<g id="node2" class="node">
<title>1</title>
<polygon fill="#f2f2f2" stroke="black" points="933.5,-221.5 933.5,-564.7 1307.6,-564.7 1307.6,-221.5 933.5,-221.5"/>
<text text-anchor="middle" x="1120.55" y="-548.1" font-family="Times,serif" font-size="14.00">&lt;&lt;Abstract&gt;&gt;</text>
<text text-anchor="middle" x="1120.55" y="-531.3" font-family="Times,serif" font-size="14.00">Registry</text>
<text text-anchor="middle" x="1120.55" y="-514.5" font-family="Times,serif" font-size="14.00">contracts/registries/Registry.sol</text>
<polyline fill="none" stroke="black" points="933.5,-506.3 1307.6,-506.3 "/>
<text text-anchor="start" x="941.5" y="-489.7" font-family="Times,serif" font-size="14.00">Public:</text>
<text text-anchor="start" x="941.5" y="-472.9" font-family="Times,serif" font-size="14.00"> &#160;&#160;master: address</text>
<text text-anchor="start" x="941.5" y="-456.1" font-family="Times,serif" font-size="14.00"> &#160;&#160;proxyCode: bytes</text>
<text text-anchor="start" x="941.5" y="-439.3" font-family="Times,serif" font-size="14.00"> &#160;&#160;proxyCodeHash: bytes32</text>
<text text-anchor="start" x="941.5" y="-422.5" font-family="Times,serif" font-size="14.00"> &#160;&#160;previous: IRegistry</text>
<text text-anchor="start" x="941.5" y="-405.7" font-family="Times,serif" font-size="14.00"> &#160;&#160;initialized: bool</text>
<polyline fill="none" stroke="black" points="933.5,-397.5 1307.6,-397.5 "/>
<text text-anchor="start" x="941.5" y="-380.9" font-family="Times,serif" font-size="14.00">Internal:</text>
<text text-anchor="start" x="941.5" y="-364.1" font-family="Times,serif" font-size="14.00"> &#160;&#160;&#160;_mintCreate(_owner: address, _args: bytes): uint256</text>
<text text-anchor="start" x="941.5" y="-347.3" font-family="Times,serif" font-size="14.00"> &#160;&#160;&#160;_mintPredict(_owner: address, _args: bytes): uint256</text>
<text text-anchor="start" x="941.5" y="-330.5" font-family="Times,serif" font-size="14.00">External:</text>
<text text-anchor="start" x="941.5" y="-313.7" font-family="Times,serif" font-size="14.00"> &#160;&#160;&#160;initialize(_previous: address) &lt;&lt;onlyOwner&gt;&gt;</text>
<text text-anchor="start" x="941.5" y="-296.9" font-family="Times,serif" font-size="14.00"> &#160;&#160;&#160;setBaseURI(_baseURI: string) &lt;&lt;onlyOwner&gt;&gt;</text>
<text text-anchor="start" x="941.5" y="-280.1" font-family="Times,serif" font-size="14.00"> &#160;&#160;&#160;isRegistered(_entry: address): bool</text>
<text text-anchor="start" x="941.5" y="-263.3" font-family="Times,serif" font-size="14.00"> &#160;&#160;&#160;setName(address, string) &lt;&lt;onlyOwner&gt;&gt;</text>
<text text-anchor="start" x="941.5" y="-246.5" font-family="Times,serif" font-size="14.00">Public:</text>
<text text-anchor="start" x="941.5" y="-229.7" font-family="Times,serif" font-size="14.00"> &#160;&#160;&#160;constructor(_master: address, _name: string, _symbol: string)</text>
</g>
<!-- 1&#45;&gt;0 -->
<g id="edge1" class="edge">
<title>1&#45;&gt;0</title>
<path fill="none" stroke="black" stroke-dasharray="5,2" d="M1120.55,-565.02C1120.55,-589.25 1120.55,-613.13 1120.55,-634.42"/>
<polygon fill="none" stroke="black" points="1110.05,-634.46 1120.55,-664.46 1131.05,-634.46 1110.05,-634.46"/>
</g>
<!-- 2 -->
<g id="node3" class="node">
<title>2</title>
<polygon fill="#f2f2f2" stroke="black" points="1449.93,-601.7 1449.93,-827.3 1717.17,-827.3 1717.17,-601.7 1449.93,-601.7"/>
<text text-anchor="middle" x="1583.55" y="-810.7" font-family="Times,serif" font-size="14.00">&lt;&lt;Abstract&gt;&gt;</text>
<text text-anchor="middle" x="1583.55" y="-793.9" font-family="Times,serif" font-size="14.00">RegistryEntry</text>
<text text-anchor="middle" x="1583.55" y="-777.1" font-family="Times,serif" font-size="14.00">contracts/registries/RegistryEntry.sol</text>
<polyline fill="none" stroke="black" points="1449.93,-768.9 1717.17,-768.9 "/>
<text text-anchor="start" x="1457.93" y="-752.3" font-family="Times,serif" font-size="14.00">Public:</text>
<text text-anchor="start" x="1457.93" y="-735.5" font-family="Times,serif" font-size="14.00"> &#160;&#160;registry: IRegistry</text>
<polyline fill="none" stroke="black" points="1449.93,-727.3 1717.17,-727.3 "/>
<text text-anchor="start" x="1457.93" y="-710.7" font-family="Times,serif" font-size="14.00">Internal:</text>
<text text-anchor="start" x="1457.93" y="-693.9" font-family="Times,serif" font-size="14.00"> &#160;&#160;&#160;_initialize(_registry: address)</text>
<text text-anchor="start" x="1457.93" y="-677.1" font-family="Times,serif" font-size="14.00">External:</text>
<text text-anchor="start" x="1457.93" y="-660.3" font-family="Times,serif" font-size="14.00"> &#160;&#160;&#160;setName(address, string) &lt;&lt;onlyOwner&gt;&gt;</text>
<text text-anchor="start" x="1457.93" y="-643.5" font-family="Times,serif" font-size="14.00">Public:</text>
<text text-anchor="start" x="1457.93" y="-626.7" font-family="Times,serif" font-size="14.00"> &#160;&#160;&#160;&lt;&lt;modifier&gt;&gt; onlyOwner()</text>
<text text-anchor="start" x="1457.93" y="-609.9" font-family="Times,serif" font-size="14.00"> &#160;&#160;&#160;owner(): address</text>
</g>
<!-- 3 -->
<g id="node4" class="node">
<title>3</title>
<polygon fill="#f2f2f2" stroke="black" points="215.59,-297.1 215.59,-489.1 915.51,-489.1 915.51,-297.1 215.59,-297.1"/>
<text text-anchor="middle" x="565.55" y="-472.5" font-family="Times,serif" font-size="14.00">App</text>
<text text-anchor="middle" x="565.55" y="-455.7" font-family="Times,serif" font-size="14.00">contracts/registries/apps/App.sol</text>
<polyline fill="none" stroke="black" points="215.59,-447.5 915.51,-447.5 "/>
<text text-anchor="start" x="223.59" y="-430.9" font-family="Times,serif" font-size="14.00">Public:</text>
<text text-anchor="start" x="223.59" y="-414.1" font-family="Times,serif" font-size="14.00"> &#160;&#160;m_appName: string</text>
<text text-anchor="start" x="223.59" y="-397.3" font-family="Times,serif" font-size="14.00"> &#160;&#160;m_appType: string</text>
<text text-anchor="start" x="223.59" y="-380.5" font-family="Times,serif" font-size="14.00"> &#160;&#160;m_appMultiaddr: bytes</text>
<text text-anchor="start" x="223.59" y="-363.7" font-family="Times,serif" font-size="14.00"> &#160;&#160;m_appChecksum: bytes32</text>
<text text-anchor="start" x="223.59" y="-346.9" font-family="Times,serif" font-size="14.00"> &#160;&#160;m_appMREnclave: bytes</text>
<polyline fill="none" stroke="black" points="215.59,-338.7 915.51,-338.7 "/>
<text text-anchor="start" x="223.59" y="-322.1" font-family="Times,serif" font-size="14.00">Public:</text>
<text text-anchor="start" x="223.59" y="-305.3" font-family="Times,serif" font-size="14.00"> &#160;&#160;&#160;initialize(_appName: string, _appType: string, _appMultiaddr: bytes, _appChecksum: bytes32, _appMREnclave: bytes)</text>
</g>
<!-- 3&#45;&gt;2 -->
<g id="edge2" class="edge">
<title>3&#45;&gt;2</title>
<path fill="none" stroke="black" d="M735.37,-489.27C793.71,-518.07 860.49,-546.89 924.55,-565.2 1062.16,-604.53 1104.76,-570.53 1244.55,-601.2 1303.08,-614.04 1365.73,-633.19 1421.05,-652.06"/>
<polygon fill="none" stroke="black" points="1417.89,-662.07 1449.67,-662.01 1424.78,-642.24 1417.89,-662.07"/>
</g>
<!-- 4 -->
<g id="node5" class="node">
<title>4</title>
<polygon fill="#f2f2f2" stroke="black" points="0,-8.9 0,-176.1 867.1,-176.1 867.1,-8.9 0,-8.9"/>
<text text-anchor="middle" x="433.55" y="-159.5" font-family="Times,serif" font-size="14.00">AppRegistry</text>
<text text-anchor="middle" x="433.55" y="-142.7" font-family="Times,serif" font-size="14.00">contracts/registries/apps/AppRegistry.sol</text>
<polyline fill="none" stroke="black" points="0,-134.5 867.1,-134.5 "/>
<text text-anchor="start" x="8" y="-117.9" font-family="Times,serif" font-size="14.00">Internal:</text>
<text text-anchor="start" x="8" y="-101.1" font-family="Times,serif" font-size="14.00"> &#160;&#160;&#160;encodeInitializer(_appName: string, _appType: string, _appMultiaddr: bytes, _appChecksum: bytes32, _appMREnclave: bytes): bytes</text>
<text text-anchor="start" x="8" y="-84.3" font-family="Times,serif" font-size="14.00">External:</text>
<text text-anchor="start" x="8" y="-67.5" font-family="Times,serif" font-size="14.00"> &#160;&#160;&#160;createApp(_appOwner: address, _appName: string, _appType: string, _appMultiaddr: bytes, _appChecksum: bytes32, _appMREnclave: bytes): App</text>
<text text-anchor="start" x="8" y="-50.7" font-family="Times,serif" font-size="14.00"> &#160;&#160;&#160;predictApp(_appOwner: address, _appName: string, _appType: string, _appMultiaddr: bytes, _appChecksum: bytes32, _appMREnclave: bytes): App</text>
<text text-anchor="start" x="8" y="-33.9" font-family="Times,serif" font-size="14.00">Public:</text>
<text text-anchor="start" x="8" y="-17.1" font-family="Times,serif" font-size="14.00"> &#160;&#160;&#160;constructor()</text>
</g>
<!-- 4&#45;&gt;1 -->
<g id="edge3" class="edge">
<title>4&#45;&gt;1</title>
<path fill="none" stroke="black" d="M822.28,-176.2C849.67,-186.21 876.6,-197.35 906.31,-211.96"/>
<polygon fill="none" stroke="black" points="901.73,-221.41 933.22,-225.74 911.3,-202.72 901.73,-221.41"/>
</g>
<!-- 4&#45;&gt;3 -->
<g id="edge4" class="edge">
<title>4&#45;&gt;3</title>
<path fill="none" stroke="black" stroke-dasharray="5,2" d="M470.14,-176.28C485.41,-210.81 503.31,-251.3 519.46,-287.83"/>
<polygon fill="black" stroke="black" points="516.28,-289.29 523.52,-297.02 522.68,-286.46 516.28,-289.29"/>
</g>
<!-- 5 -->
<g id="node6" class="node">
<title>5</title>
<polygon fill="#f2f2f2" stroke="black" points="2220.91,-0.5 2220.91,-184.5 2442.2,-184.5 2442.2,-0.5 2220.91,-0.5"/>
<text text-anchor="middle" x="2331.55" y="-167.9" font-family="Times,serif" font-size="14.00">&lt;&lt;Interface&gt;&gt;</text>
<text text-anchor="middle" x="2331.55" y="-151.1" font-family="Times,serif" font-size="14.00">IApp</text>
<text text-anchor="middle" x="2331.55" y="-134.3" font-family="Times,serif" font-size="14.00">contracts/registries/apps/IApp.v8.sol</text>
<polyline fill="none" stroke="black" points="2220.91,-126.1 2442.2,-126.1 "/>
<text text-anchor="start" x="2228.91" y="-109.5" font-family="Times,serif" font-size="14.00">External:</text>
<text text-anchor="start" x="2228.91" y="-92.7" font-family="Times,serif" font-size="14.00"> &#160;&#160;&#160;&#160;owner(): address</text>
<text text-anchor="start" x="2228.91" y="-75.9" font-family="Times,serif" font-size="14.00"> &#160;&#160;&#160;&#160;m_appName(): string</text>
<text text-anchor="start" x="2228.91" y="-59.1" font-family="Times,serif" font-size="14.00"> &#160;&#160;&#160;&#160;m_appType(): string</text>
<text text-anchor="start" x="2228.91" y="-42.3" font-family="Times,serif" font-size="14.00"> &#160;&#160;&#160;&#160;m_appMultiaddr(): bytes</text>
<text text-anchor="start" x="2228.91" y="-25.5" font-family="Times,serif" font-size="14.00"> &#160;&#160;&#160;&#160;m_appChecksum(): bytes32</text>
<text text-anchor="start" x="2228.91" y="-8.7" font-family="Times,serif" font-size="14.00"> &#160;&#160;&#160;&#160;m_appMREnclave(): bytes</text>
</g>
<!-- 6 -->
<g id="node7" class="node">
<title>6</title>
<polygon fill="#f2f2f2" stroke="black" points="1325.75,-313.9 1325.75,-472.3 1841.35,-472.3 1841.35,-313.9 1325.75,-313.9"/>
<text text-anchor="middle" x="1583.55" y="-455.7" font-family="Times,serif" font-size="14.00">Dataset</text>
<text text-anchor="middle" x="1583.55" y="-438.9" font-family="Times,serif" font-size="14.00">contracts/registries/datasets/Dataset.sol</text>
<polyline fill="none" stroke="black" points="1325.75,-430.7 1841.35,-430.7 "/>
<text text-anchor="start" x="1333.75" y="-414.1" font-family="Times,serif" font-size="14.00">Public:</text>
<text text-anchor="start" x="1333.75" y="-397.3" font-family="Times,serif" font-size="14.00"> &#160;&#160;m_datasetName: string</text>
<text text-anchor="start" x="1333.75" y="-380.5" font-family="Times,serif" font-size="14.00"> &#160;&#160;m_datasetMultiaddr: bytes</text>
<text text-anchor="start" x="1333.75" y="-363.7" font-family="Times,serif" font-size="14.00"> &#160;&#160;m_datasetChecksum: bytes32</text>
<polyline fill="none" stroke="black" points="1325.75,-355.5 1841.35,-355.5 "/>
<text text-anchor="start" x="1333.75" y="-338.9" font-family="Times,serif" font-size="14.00">Public:</text>
<text text-anchor="start" x="1333.75" y="-322.1" font-family="Times,serif" font-size="14.00"> &#160;&#160;&#160;initialize(_datasetName: string, _datasetMultiaddr: bytes, _datasetChecksum: bytes32)</text>
</g>
<!-- 6&#45;&gt;2 -->
<g id="edge5" class="edge">
<title>6&#45;&gt;2</title>
<path fill="none" stroke="black" d="M1583.55,-472.64C1583.55,-502.49 1583.55,-537.49 1583.55,-571.42"/>
<polygon fill="none" stroke="black" points="1573.05,-571.45 1583.55,-601.45 1594.05,-571.45 1573.05,-571.45"/>
</g>
<!-- 7 -->
<g id="node8" class="node">
<title>7</title>
<polygon fill="#f2f2f2" stroke="black" points="884.96,-8.9 884.96,-176.1 1622.14,-176.1 1622.14,-8.9 884.96,-8.9"/>
<text text-anchor="middle" x="1253.55" y="-159.5" font-family="Times,serif" font-size="14.00">DatasetRegistry</text>
<text text-anchor="middle" x="1253.55" y="-142.7" font-family="Times,serif" font-size="14.00">contracts/registries/datasets/DatasetRegistry.sol</text>
<polyline fill="none" stroke="black" points="884.96,-134.5 1622.14,-134.5 "/>
<text text-anchor="start" x="892.96" y="-117.9" font-family="Times,serif" font-size="14.00">Internal:</text>
<text text-anchor="start" x="892.96" y="-101.1" font-family="Times,serif" font-size="14.00"> &#160;&#160;&#160;encodeInitializer(_datasetName: string, _datasetMultiaddr: bytes, _datasetChecksum: bytes32): bytes</text>
<text text-anchor="start" x="892.96" y="-84.3" font-family="Times,serif" font-size="14.00">External:</text>
<text text-anchor="start" x="892.96" y="-67.5" font-family="Times,serif" font-size="14.00"> &#160;&#160;&#160;createDataset(_datasetOwner: address, _datasetName: string, _datasetMultiaddr: bytes, _datasetChecksum: bytes32): Dataset</text>
<text text-anchor="start" x="892.96" y="-50.7" font-family="Times,serif" font-size="14.00"> &#160;&#160;&#160;predictDataset(_datasetOwner: address, _datasetName: string, _datasetMultiaddr: bytes, _datasetChecksum: bytes32): Dataset</text>
<text text-anchor="start" x="892.96" y="-33.9" font-family="Times,serif" font-size="14.00">Public:</text>
<text text-anchor="start" x="892.96" y="-17.1" font-family="Times,serif" font-size="14.00"> &#160;&#160;&#160;constructor()</text>
</g>
<!-- 7&#45;&gt;1 -->
<g id="edge6" class="edge">
<title>7&#45;&gt;1</title>
<path fill="none" stroke="black" d="M1216.68,-176.28C1214.15,-181.95 1211.55,-187.79 1208.9,-193.74"/>
<polygon fill="none" stroke="black" points="1199.22,-189.67 1196.61,-221.35 1218.4,-198.21 1199.22,-189.67"/>
</g>
<!-- 7&#45;&gt;6 -->
<g id="edge7" class="edge">
<title>7&#45;&gt;6</title>
<path fill="none" stroke="black" stroke-dasharray="5,2" d="M1345.04,-176.28C1390.03,-216.99 1444.18,-265.99 1489.51,-307.01"/>
<polygon fill="black" stroke="black" points="1487.24,-309.67 1497,-313.78 1491.93,-304.48 1487.24,-309.67"/>
</g>
<!-- 8 -->
<g id="node9" class="node">
<title>8</title>
<polygon fill="#f2f2f2" stroke="black" points="2460.64,-17.3 2460.64,-167.7 2718.46,-167.7 2718.46,-17.3 2460.64,-17.3"/>
<text text-anchor="middle" x="2589.55" y="-151.1" font-family="Times,serif" font-size="14.00">&lt;&lt;Interface&gt;&gt;</text>
<text text-anchor="middle" x="2589.55" y="-134.3" font-family="Times,serif" font-size="14.00">IDataset</text>
<text text-anchor="middle" x="2589.55" y="-117.5" font-family="Times,serif" font-size="14.00">contracts/registries/datasets/IDataset.v8.sol</text>
<polyline fill="none" stroke="black" points="2460.64,-109.3 2718.46,-109.3 "/>
<text text-anchor="start" x="2468.64" y="-92.7" font-family="Times,serif" font-size="14.00">External:</text>
<text text-anchor="start" x="2468.64" y="-75.9" font-family="Times,serif" font-size="14.00"> &#160;&#160;&#160;&#160;owner(): address</text>
<text text-anchor="start" x="2468.64" y="-59.1" font-family="Times,serif" font-size="14.00"> &#160;&#160;&#160;&#160;m_datasetName(): string</text>
<text text-anchor="start" x="2468.64" y="-42.3" font-family="Times,serif" font-size="14.00"> &#160;&#160;&#160;&#160;m_datasetMultiaddr(): bytes</text>
<text text-anchor="start" x="2468.64" y="-25.5" font-family="Times,serif" font-size="14.00"> &#160;&#160;&#160;&#160;m_datasetChecksum(): bytes32</text>
</g>
<!-- 9 -->
<g id="node10" class="node">
<title>9</title>
<polygon fill="#f2f2f2" stroke="black" points="2735.98,-17.3 2735.98,-167.7 3045.12,-167.7 3045.12,-17.3 2735.98,-17.3"/>
<text text-anchor="middle" x="2890.55" y="-151.1" font-family="Times,serif" font-size="14.00">&lt;&lt;Interface&gt;&gt;</text>
<text text-anchor="middle" x="2890.55" y="-134.3" font-family="Times,serif" font-size="14.00">IWorkerpool</text>
<text text-anchor="middle" x="2890.55" y="-117.5" font-family="Times,serif" font-size="14.00">contracts/registries/workerpools/IWorkerpool.v8.sol</text>
<polyline fill="none" stroke="black" points="2735.98,-109.3 3045.12,-109.3 "/>
<text text-anchor="start" x="2743.98" y="-92.7" font-family="Times,serif" font-size="14.00">External:</text>
<text text-anchor="start" x="2743.98" y="-75.9" font-family="Times,serif" font-size="14.00"> &#160;&#160;&#160;&#160;owner(): address</text>
<text text-anchor="start" x="2743.98" y="-59.1" font-family="Times,serif" font-size="14.00"> &#160;&#160;&#160;&#160;m_workerpoolDescription(): string</text>
<text text-anchor="start" x="2743.98" y="-42.3" font-family="Times,serif" font-size="14.00"> &#160;&#160;&#160;&#160;m_schedulerRewardRatioPolicy(): uint256</text>
<text text-anchor="start" x="2743.98" y="-25.5" font-family="Times,serif" font-size="14.00"> &#160;&#160;&#160;&#160;m_workerStakeRatioPolicy(): uint256</text>
</g>
<!-- 10 -->
<g id="node11" class="node">
<title>10</title>
<polygon fill="#f2f2f2" stroke="black" points="1859.44,-288.7 1859.44,-497.5 2955.66,-497.5 2955.66,-288.7 1859.44,-288.7"/>
<text text-anchor="middle" x="2407.55" y="-480.9" font-family="Times,serif" font-size="14.00">Workerpool</text>
<text text-anchor="middle" x="2407.55" y="-464.1" font-family="Times,serif" font-size="14.00">contracts/registries/workerpools/Workerpool.sol</text>
<polyline fill="none" stroke="black" points="1859.44,-455.9 2955.66,-455.9 "/>
<text text-anchor="start" x="1867.44" y="-439.3" font-family="Times,serif" font-size="14.00">Public:</text>
<text text-anchor="start" x="1867.44" y="-422.5" font-family="Times,serif" font-size="14.00"> &#160;&#160;m_workerpoolDescription: string</text>
<text text-anchor="start" x="1867.44" y="-405.7" font-family="Times,serif" font-size="14.00"> &#160;&#160;m_workerStakeRatioPolicy: uint256</text>
<text text-anchor="start" x="1867.44" y="-388.9" font-family="Times,serif" font-size="14.00"> &#160;&#160;m_schedulerRewardRatioPolicy: uint256</text>
<polyline fill="none" stroke="black" points="1859.44,-380.7 2955.66,-380.7 "/>
<text text-anchor="start" x="1867.44" y="-364.1" font-family="Times,serif" font-size="14.00">External:</text>
<text text-anchor="start" x="1867.44" y="-347.3" font-family="Times,serif" font-size="14.00"> &#160;&#160;&#160;changePolicy(_newWorkerStakeRatioPolicy: uint256, _newSchedulerRewardRatioPolicy: uint256) &lt;&lt;onlyOwner&gt;&gt;</text>
<text text-anchor="start" x="1867.44" y="-330.5" font-family="Times,serif" font-size="14.00">Public:</text>
<text text-anchor="start" x="1867.44" y="-313.7" font-family="Times,serif" font-size="14.00"> &#160;&#160;&#160;&lt;&lt;event&gt;&gt; PolicyUpdate(oldWorkerStakeRatioPolicy: uint256, newWorkerStakeRatioPolicy: uint256, oldSchedulerRewardRatioPolicy: uint256, newSchedulerRewardRatioPolicy: uint256)</text>
<text text-anchor="start" x="1867.44" y="-296.9" font-family="Times,serif" font-size="14.00"> &#160;&#160;&#160;initialize(_workerpoolDescription: string)</text>
</g>
<!-- 10&#45;&gt;2 -->
<g id="edge8" class="edge">
<title>10&#45;&gt;2</title>
<path fill="none" stroke="black" d="M2140.59,-497.58C2010.29,-548.09 1857.81,-607.19 1745.35,-650.78"/>
<polygon fill="none" stroke="black" points="1741.48,-641.02 1717.3,-661.66 1749.07,-660.6 1741.48,-641.02"/>
</g>
<!-- 11 -->
<g id="node12" class="node">
<title>11</title>
<polygon fill="#f2f2f2" stroke="black" points="1640.04,-8.9 1640.04,-176.1 2203.06,-176.1 2203.06,-8.9 1640.04,-8.9"/>
<text text-anchor="middle" x="1921.55" y="-159.5" font-family="Times,serif" font-size="14.00">WorkerpoolRegistry</text>
<text text-anchor="middle" x="1921.55" y="-142.7" font-family="Times,serif" font-size="14.00">contracts/registries/workerpools/WorkerpoolRegistry.sol</text>
<polyline fill="none" stroke="black" points="1640.04,-134.5 2203.06,-134.5 "/>
<text text-anchor="start" x="1648.04" y="-117.9" font-family="Times,serif" font-size="14.00">Internal:</text>
<text text-anchor="start" x="1648.04" y="-101.1" font-family="Times,serif" font-size="14.00"> &#160;&#160;&#160;encodeInitializer(_workerpoolDescription: string): bytes</text>
<text text-anchor="start" x="1648.04" y="-84.3" font-family="Times,serif" font-size="14.00">External:</text>
<text text-anchor="start" x="1648.04" y="-67.5" font-family="Times,serif" font-size="14.00"> &#160;&#160;&#160;createWorkerpool(_workerpoolOwner: address, _workerpoolDescription: string): Workerpool</text>
<text text-anchor="start" x="1648.04" y="-50.7" font-family="Times,serif" font-size="14.00"> &#160;&#160;&#160;predictWorkerpool(_workerpoolOwner: address, _workerpoolDescription: string): Workerpool</text>
<text text-anchor="start" x="1648.04" y="-33.9" font-family="Times,serif" font-size="14.00">Public:</text>
<text text-anchor="start" x="1648.04" y="-17.1" font-family="Times,serif" font-size="14.00"> &#160;&#160;&#160;constructor()</text>
</g>
<!-- 11&#45;&gt;1 -->
<g id="edge9" class="edge">
<title>11&#45;&gt;1</title>
<path fill="none" stroke="black" d="M1669.65,-176.14C1656.82,-179.35 1644.07,-182.33 1631.55,-185 1503.42,-212.27 1452.69,-170.76 1335.42,-213.85"/>
<polygon fill="none" stroke="black" points="1331.45,-204.13 1307.6,-225.15 1339.35,-223.59 1331.45,-204.13"/>
</g>
<!-- 11&#45;&gt;10 -->
<g id="edge10" class="edge">
<title>11&#45;&gt;10</title>
<path fill="none" stroke="black" stroke-dasharray="5,2" d="M2056.28,-176.28C2110.12,-209.36 2172.88,-247.92 2230.33,-283.21"/>
<polygon fill="black" stroke="black" points="2228.78,-286.37 2239.13,-288.62 2232.44,-280.41 2228.78,-286.37"/>
</g>
</g>
</svg>
