<?xml version="1.0" encoding="UTF-8" standalone="no"?>
<!DOCTYPE svg PUBLIC "-//W3C//DTD SVG 1.1//EN"
 "http://www.w3.org/Graphics/SVG/1.1/DTD/svg11.dtd">
<!-- Generated by graphviz version 5.0.0 (20220707.1540)
 -->
<!-- Title: UmlClassDiagram Pages: 1 -->
<svg width="3283pt" height="1130pt"
 viewBox="0.00 0.00 3282.78 1130.20" xmlns="http://www.w3.org/2000/svg" xmlns:xlink="http://www.w3.org/1999/xlink">
<g id="graph0" class="graph" transform="scale(1 1) rotate(0) translate(4 1126.2)">
<title>UmlClassDiagram</title>
<polygon fill="white" stroke="transparent" points="-4,4 -4,-1126.2 3278.78,-1126.2 3278.78,4 -4,4"/>
<!-- 0 -->
<g id="node1" class="node">
<title>0</title>
<polygon fill="#f2f2f2" stroke="black" points="795,-924.9 795,-983.3 1007.33,-983.3 1007.33,-924.9 795,-924.9"/>
<text text-anchor="middle" x="901.17" y="-966.7" font-family="Times,serif" font-size="14.00">&lt;&lt;Library&gt;&gt;</text>
<text text-anchor="middle" x="901.17" y="-949.9" font-family="Times,serif" font-size="14.00">IexecLibCore_v5</text>
<text text-anchor="middle" x="901.17" y="-933.1" font-family="Times,serif" font-size="14.00">contracts/libs/IexecLibCore_v5.sol</text>
</g>
<!-- 1 -->
<g id="node2" class="node">
<title>1</title>
<polygon fill="#f2f2f2" stroke="black" points="0,-548.7 0,-648.7 212.33,-648.7 212.33,-548.7 0,-548.7"/>
<text text-anchor="middle" x="106.17" y="-632.1" font-family="Times,serif" font-size="14.00">&lt;&lt;Struct&gt;&gt;</text>
<text text-anchor="middle" x="106.17" y="-615.3" font-family="Times,serif" font-size="14.00">Account</text>
<text text-anchor="middle" x="106.17" y="-598.5" font-family="Times,serif" font-size="14.00">contracts/libs/IexecLibCore_v5.sol</text>
<polyline fill="none" stroke="black" points="0,-590.3 212.33,-590.3 "/>
<text text-anchor="start" x="8" y="-573.7" font-family="Times,serif" font-size="14.00">stake: uint256</text>
<text text-anchor="start" x="8" y="-556.9" font-family="Times,serif" font-size="14.00">locked: uint256</text>
</g>
<!-- 1&#45;&gt;0 -->
<g id="edge3" class="edge">
<title>1&#45;&gt;0</title>
<path fill="none" stroke="black" d="M132.72,-648.93C152.9,-681.98 183.58,-724.06 221.17,-750 394.23,-869.41 638.73,-919.87 782.52,-940.24"/>
<polygon fill="black" stroke="black" points="782.95,-940.3 789.44,-937.16 794.84,-941.95 788.34,-945.09 782.95,-940.3"/>
</g>
<!-- 2 -->
<g id="node3" class="node">
<title>2</title>
<polygon fill="#f2f2f2" stroke="black" points="230,-540.3 230,-657.1 442.33,-657.1 442.33,-540.3 230,-540.3"/>
<text text-anchor="middle" x="336.17" y="-640.5" font-family="Times,serif" font-size="14.00">&lt;&lt;Struct&gt;&gt;</text>
<text text-anchor="middle" x="336.17" y="-623.7" font-family="Times,serif" font-size="14.00">Category</text>
<text text-anchor="middle" x="336.17" y="-606.9" font-family="Times,serif" font-size="14.00">contracts/libs/IexecLibCore_v5.sol</text>
<polyline fill="none" stroke="black" points="230,-598.7 442.33,-598.7 "/>
<text text-anchor="start" x="238" y="-582.1" font-family="Times,serif" font-size="14.00">name: string</text>
<text text-anchor="start" x="238" y="-565.3" font-family="Times,serif" font-size="14.00">description: string</text>
<text text-anchor="start" x="238" y="-548.5" font-family="Times,serif" font-size="14.00">workClockTimeRef: uint256</text>
</g>
<!-- 2&#45;&gt;0 -->
<g id="edge4" class="edge">
<title>2&#45;&gt;0</title>
<path fill="none" stroke="black" d="M372.43,-657.32C393.88,-687.89 423.26,-724.32 456.17,-750 559.91,-830.95 701.1,-888.31 796.39,-920.99"/>
<polygon fill="black" stroke="black" points="796.42,-920.99 803.38,-919.13 807.78,-924.85 800.82,-926.71 796.42,-920.99"/>
</g>
<!-- 3 -->
<g id="node4" class="node">
<title>3</title>
<polygon fill="#f2f2f2" stroke="black" points="498,-540.3 498,-657.1 710.33,-657.1 710.33,-540.3 498,-540.3"/>
<text text-anchor="middle" x="604.17" y="-640.5" font-family="Times,serif" font-size="14.00">&lt;&lt;Struct&gt;&gt;</text>
<text text-anchor="middle" x="604.17" y="-623.7" font-family="Times,serif" font-size="14.00">Resource</text>
<text text-anchor="middle" x="604.17" y="-606.9" font-family="Times,serif" font-size="14.00">contracts/libs/IexecLibCore_v5.sol</text>
<polyline fill="none" stroke="black" points="498,-598.7 710.33,-598.7 "/>
<text text-anchor="start" x="506" y="-582.1" font-family="Times,serif" font-size="14.00">pointer: address</text>
<text text-anchor="start" x="506" y="-565.3" font-family="Times,serif" font-size="14.00">owner: address</text>
<text text-anchor="start" x="506" y="-548.5" font-family="Times,serif" font-size="14.00">price: uint256</text>
</g>
<!-- 3&#45;&gt;0 -->
<g id="edge5" class="edge">
<title>3&#45;&gt;0</title>
<path fill="none" stroke="black" d="M646.56,-657.25C667.84,-685.59 694.33,-720.02 719.17,-750 768.49,-809.53 828.93,-875.74 866.25,-915.9"/>
<polygon fill="black" stroke="black" points="866.35,-916.01 873.37,-917.68 874.53,-924.79 867.51,-923.13 866.35,-916.01"/>
</g>
<!-- 4 -->
<g id="node5" class="node">
<title>4</title>
<polygon fill="#f2f2f2" stroke="black" points="364,-38.1 364,-373.3 576.33,-373.3 576.33,-38.1 364,-38.1"/>
<text text-anchor="middle" x="470.17" y="-356.7" font-family="Times,serif" font-size="14.00">&lt;&lt;Struct&gt;&gt;</text>
<text text-anchor="middle" x="470.17" y="-339.9" font-family="Times,serif" font-size="14.00">Deal</text>
<text text-anchor="middle" x="470.17" y="-323.1" font-family="Times,serif" font-size="14.00">contracts/libs/IexecLibCore_v5.sol</text>
<polyline fill="none" stroke="black" points="364,-314.9 576.33,-314.9 "/>
<text text-anchor="start" x="372" y="-298.3" font-family="Times,serif" font-size="14.00">app: Resource</text>
<text text-anchor="start" x="372" y="-281.5" font-family="Times,serif" font-size="14.00">dataset: Resource</text>
<text text-anchor="start" x="372" y="-264.7" font-family="Times,serif" font-size="14.00">workerpool: Resource</text>
<text text-anchor="start" x="372" y="-247.9" font-family="Times,serif" font-size="14.00">trust: uint256</text>
<text text-anchor="start" x="372" y="-231.1" font-family="Times,serif" font-size="14.00">category: uint256</text>
<text text-anchor="start" x="372" y="-214.3" font-family="Times,serif" font-size="14.00">tag: bytes32</text>
<text text-anchor="start" x="372" y="-197.5" font-family="Times,serif" font-size="14.00">requester: address</text>
<text text-anchor="start" x="372" y="-180.7" font-family="Times,serif" font-size="14.00">beneficiary: address</text>
<text text-anchor="start" x="372" y="-163.9" font-family="Times,serif" font-size="14.00">callback: address</text>
<text text-anchor="start" x="372" y="-147.1" font-family="Times,serif" font-size="14.00">params: string</text>
<text text-anchor="start" x="372" y="-130.3" font-family="Times,serif" font-size="14.00">startTime: uint256</text>
<text text-anchor="start" x="372" y="-113.5" font-family="Times,serif" font-size="14.00">botFirst: uint256</text>
<text text-anchor="start" x="372" y="-96.7" font-family="Times,serif" font-size="14.00">botSize: uint256</text>
<text text-anchor="start" x="372" y="-79.9" font-family="Times,serif" font-size="14.00">workerStake: uint256</text>
<text text-anchor="start" x="372" y="-63.1" font-family="Times,serif" font-size="14.00">schedulerRewardRatio: uint256</text>
<text text-anchor="start" x="372" y="-46.3" font-family="Times,serif" font-size="14.00">sponsor: address</text>
</g>
<!-- 4&#45;&gt;0 -->
<g id="edge6" class="edge">
<title>4&#45;&gt;0</title>
<path fill="none" stroke="black" d="M457.73,-373.36C450.83,-509.82 450.26,-689.81 489.17,-750 554.59,-851.2 686.32,-903.69 783.29,-929.72"/>
<polygon fill="black" stroke="black" points="783.33,-929.73 790.15,-927.38 794.94,-932.76 788.12,-935.12 783.33,-929.73"/>
</g>
<!-- 4&#45;&gt;3 -->
<g id="edge11" class="edge">
<title>4&#45;&gt;3</title>
<path fill="none" stroke="black" stroke-dasharray="5,2" d="M527.29,-373.37C546.21,-428.6 566.22,-486.96 581.07,-530.31"/>
<polygon fill="black" stroke="black" points="577.8,-531.56 584.35,-539.88 584.42,-529.29 577.8,-531.56"/>
</g>
<!-- 5 -->
<g id="node6" class="node">
<title>5</title>
<polygon fill="#f2f2f2" stroke="black" points="728,-447.9 728,-749.5 940.33,-749.5 940.33,-447.9 728,-447.9"/>
<text text-anchor="middle" x="834.17" y="-732.9" font-family="Times,serif" font-size="14.00">&lt;&lt;Struct&gt;&gt;</text>
<text text-anchor="middle" x="834.17" y="-716.1" font-family="Times,serif" font-size="14.00">DealBoost</text>
<text text-anchor="middle" x="834.17" y="-699.3" font-family="Times,serif" font-size="14.00">contracts/libs/IexecLibCore_v5.sol</text>
<polyline fill="none" stroke="black" points="728,-691.1 940.33,-691.1 "/>
<text text-anchor="start" x="736" y="-674.5" font-family="Times,serif" font-size="14.00">appOwner: address</text>
<text text-anchor="start" x="736" y="-657.7" font-family="Times,serif" font-size="14.00">appPrice: uint96</text>
<text text-anchor="start" x="736" y="-640.9" font-family="Times,serif" font-size="14.00">datasetOwner: address</text>
<text text-anchor="start" x="736" y="-624.1" font-family="Times,serif" font-size="14.00">datasetPrice: uint96</text>
<text text-anchor="start" x="736" y="-607.3" font-family="Times,serif" font-size="14.00">workerpoolOwner: address</text>
<text text-anchor="start" x="736" y="-590.5" font-family="Times,serif" font-size="14.00">workerpoolPrice: uint96</text>
<text text-anchor="start" x="736" y="-573.7" font-family="Times,serif" font-size="14.00">requester: address</text>
<text text-anchor="start" x="736" y="-556.9" font-family="Times,serif" font-size="14.00">workerReward: uint96</text>
<text text-anchor="start" x="736" y="-540.1" font-family="Times,serif" font-size="14.00">callback: address</text>
<text text-anchor="start" x="736" y="-523.3" font-family="Times,serif" font-size="14.00">deadline: uint40</text>
<text text-anchor="start" x="736" y="-506.5" font-family="Times,serif" font-size="14.00">botFirst: uint16</text>
<text text-anchor="start" x="736" y="-489.7" font-family="Times,serif" font-size="14.00">botSize: uint16</text>
<text text-anchor="start" x="736" y="-472.9" font-family="Times,serif" font-size="14.00">shortTag: bytes3</text>
<text text-anchor="start" x="736" y="-456.1" font-family="Times,serif" font-size="14.00">sponsor: address</text>
</g>
<!-- 5&#45;&gt;0 -->
<g id="edge7" class="edge">
<title>5&#45;&gt;0</title>
<path fill="none" stroke="black" d="M862.58,-749.57C873.87,-809.12 885.95,-872.82 893.52,-912.78"/>
<polygon fill="black" stroke="black" points="893.54,-912.85 898.58,-918 895.77,-924.64 890.72,-919.49 893.54,-912.85"/>
</g>
<!-- 6 -->
<g id="node7" class="node">
<title>6</title>
<polygon fill="#f2f2f2" stroke="black" points="996,-523.5 996,-673.9 1208.33,-673.9 1208.33,-523.5 996,-523.5"/>
<text text-anchor="middle" x="1102.17" y="-657.3" font-family="Times,serif" font-size="14.00">&lt;&lt;Enum&gt;&gt;</text>
<text text-anchor="middle" x="1102.17" y="-640.5" font-family="Times,serif" font-size="14.00">TaskStatusEnum</text>
<text text-anchor="middle" x="1102.17" y="-623.7" font-family="Times,serif" font-size="14.00">contracts/libs/IexecLibCore_v5.sol</text>
<polyline fill="none" stroke="black" points="996,-615.5 1208.33,-615.5 "/>
<text text-anchor="start" x="1004" y="-598.9" font-family="Times,serif" font-size="14.00">UNSET: 0</text>
<text text-anchor="start" x="1004" y="-582.1" font-family="Times,serif" font-size="14.00">ACTIVE: 1</text>
<text text-anchor="start" x="1004" y="-565.3" font-family="Times,serif" font-size="14.00">REVEALING: 2</text>
<text text-anchor="start" x="1004" y="-548.5" font-family="Times,serif" font-size="14.00">COMPLETED: 3</text>
<text text-anchor="start" x="1004" y="-531.7" font-family="Times,serif" font-size="14.00">FAILED: 4</text>
</g>
<!-- 6&#45;&gt;0 -->
<g id="edge1" class="edge">
<title>6&#45;&gt;0</title>
<path fill="none" stroke="black" d="M1059.79,-674.22C1018.13,-747.46 956.17,-856.39 923.38,-914.04"/>
<polygon fill="black" stroke="black" points="923.35,-914.1 923.86,-921.29 917.42,-924.53 916.91,-917.33 923.35,-914.1"/>
</g>
<!-- 7 -->
<g id="node8" class="node">
<title>7</title>
<polygon fill="#f2f2f2" stroke="black" points="862,-46.5 862,-364.9 1074.33,-364.9 1074.33,-46.5 862,-46.5"/>
<text text-anchor="middle" x="968.17" y="-348.3" font-family="Times,serif" font-size="14.00">&lt;&lt;Struct&gt;&gt;</text>
<text text-anchor="middle" x="968.17" y="-331.5" font-family="Times,serif" font-size="14.00">Task</text>
<text text-anchor="middle" x="968.17" y="-314.7" font-family="Times,serif" font-size="14.00">contracts/libs/IexecLibCore_v5.sol</text>
<polyline fill="none" stroke="black" points="862,-306.5 1074.33,-306.5 "/>
<text text-anchor="start" x="870" y="-289.9" font-family="Times,serif" font-size="14.00">status: TaskStatusEnum</text>
<text text-anchor="start" x="870" y="-273.1" font-family="Times,serif" font-size="14.00">dealid: bytes32</text>
<text text-anchor="start" x="870" y="-256.3" font-family="Times,serif" font-size="14.00">idx: uint256</text>
<text text-anchor="start" x="870" y="-239.5" font-family="Times,serif" font-size="14.00">timeref: uint256</text>
<text text-anchor="start" x="870" y="-222.7" font-family="Times,serif" font-size="14.00">contributionDeadline: uint256</text>
<text text-anchor="start" x="870" y="-205.9" font-family="Times,serif" font-size="14.00">revealDeadline: uint256</text>
<text text-anchor="start" x="870" y="-189.1" font-family="Times,serif" font-size="14.00">finalDeadline: uint256</text>
<text text-anchor="start" x="870" y="-172.3" font-family="Times,serif" font-size="14.00">consensusValue: bytes32</text>
<text text-anchor="start" x="870" y="-155.5" font-family="Times,serif" font-size="14.00">revealCounter: uint256</text>
<text text-anchor="start" x="870" y="-138.7" font-family="Times,serif" font-size="14.00">winnerCounter: uint256</text>
<text text-anchor="start" x="870" y="-121.9" font-family="Times,serif" font-size="14.00">contributors: address[]</text>
<text text-anchor="start" x="870" y="-105.1" font-family="Times,serif" font-size="14.00">resultDigest: bytes32</text>
<text text-anchor="start" x="870" y="-88.3" font-family="Times,serif" font-size="14.00">results: bytes</text>
<text text-anchor="start" x="870" y="-71.5" font-family="Times,serif" font-size="14.00">resultsTimestamp: uint256</text>
<text text-anchor="start" x="870" y="-54.7" font-family="Times,serif" font-size="14.00">resultsCallback: bytes</text>
</g>
<!-- 7&#45;&gt;0 -->
<g id="edge8" class="edge">
<title>7&#45;&gt;0</title>
<path fill="none" stroke="black" d="M970.83,-365.19C970.65,-473.93 966.46,-621.26 949.17,-750 941.44,-807.56 924.57,-872.67 913.03,-913.3"/>
<polygon fill="black" stroke="black" points="913.03,-913.31 915.22,-920.18 909.72,-924.84 907.53,-917.97 913.03,-913.31"/>
</g>
<!-- 7&#45;&gt;6 -->
<g id="edge12" class="edge">
<title>7&#45;&gt;6</title>
<path fill="none" stroke="black" stroke-dasharray="5,2" d="M1022.48,-365.17C1039.91,-416.04 1058.54,-470.39 1073.39,-513.74"/>
<polygon fill="black" stroke="black" points="1070.14,-515.06 1076.7,-523.38 1076.77,-512.79 1070.14,-515.06"/>
</g>
<!-- 8 -->
<g id="node9" class="node">
<title>8</title>
<polygon fill="#f2f2f2" stroke="black" points="1225.92,-548.7 1225.92,-648.7 1442.41,-648.7 1442.41,-548.7 1225.92,-548.7"/>
<text text-anchor="middle" x="1334.17" y="-632.1" font-family="Times,serif" font-size="14.00">&lt;&lt;Struct&gt;&gt;</text>
<text text-anchor="middle" x="1334.17" y="-615.3" font-family="Times,serif" font-size="14.00">Consensus</text>
<text text-anchor="middle" x="1334.17" y="-598.5" font-family="Times,serif" font-size="14.00">contracts/libs/IexecLibCore_v5.sol</text>
<polyline fill="none" stroke="black" points="1225.92,-590.3 1442.41,-590.3 "/>
<text text-anchor="start" x="1233.92" y="-573.7" font-family="Times,serif" font-size="14.00">group: mapping(bytes32=&gt;uint256)</text>
<text text-anchor="start" x="1233.92" y="-556.9" font-family="Times,serif" font-size="14.00">total: uint256</text>
</g>
<!-- 8&#45;&gt;0 -->
<g id="edge9" class="edge">
<title>8&#45;&gt;0</title>
<path fill="none" stroke="black" d="M1302.31,-648.86C1280.63,-680.04 1250,-720 1217.17,-750 1139.75,-820.73 1034.91,-882.74 967.65,-919.07"/>
<polygon fill="black" stroke="black" points="967.35,-919.23 963.95,-925.59 956.77,-924.9 960.17,-918.54 967.35,-919.23"/>
</g>
<!-- 9 -->
<g id="node10" class="node">
<title>9</title>
<polygon fill="#f2f2f2" stroke="black" points="1498,-531.9 1498,-665.5 1710.33,-665.5 1710.33,-531.9 1498,-531.9"/>
<text text-anchor="middle" x="1604.17" y="-648.9" font-family="Times,serif" font-size="14.00">&lt;&lt;Enum&gt;&gt;</text>
<text text-anchor="middle" x="1604.17" y="-632.1" font-family="Times,serif" font-size="14.00">ContributionStatusEnum</text>
<text text-anchor="middle" x="1604.17" y="-615.3" font-family="Times,serif" font-size="14.00">contracts/libs/IexecLibCore_v5.sol</text>
<polyline fill="none" stroke="black" points="1498,-607.1 1710.33,-607.1 "/>
<text text-anchor="start" x="1506" y="-590.5" font-family="Times,serif" font-size="14.00">UNSET: 0</text>
<text text-anchor="start" x="1506" y="-573.7" font-family="Times,serif" font-size="14.00">CONTRIBUTED: 1</text>
<text text-anchor="start" x="1506" y="-556.9" font-family="Times,serif" font-size="14.00">PROVED: 2</text>
<text text-anchor="start" x="1506" y="-540.1" font-family="Times,serif" font-size="14.00">REJECTED: 3</text>
</g>
<!-- 9&#45;&gt;0 -->
<g id="edge2" class="edge">
<title>9&#45;&gt;0</title>
<path fill="none" stroke="black" d="M1563.85,-665.68C1543.14,-694.94 1515.64,-727.71 1484.17,-750 1341.49,-851.03 1143.94,-905.77 1019.38,-932.19"/>
<polygon fill="black" stroke="black" points="1019.3,-932.21 1014.24,-937.35 1007.55,-934.66 1012.61,-929.52 1019.3,-932.21"/>
</g>
<!-- 10 -->
<g id="node11" class="node">
<title>10</title>
<polygon fill="#f2f2f2" stroke="black" points="1364,-130.5 1364,-280.9 1576.33,-280.9 1576.33,-130.5 1364,-130.5"/>
<text text-anchor="middle" x="1470.17" y="-264.3" font-family="Times,serif" font-size="14.00">&lt;&lt;Struct&gt;&gt;</text>
<text text-anchor="middle" x="1470.17" y="-247.5" font-family="Times,serif" font-size="14.00">Contribution</text>
<text text-anchor="middle" x="1470.17" y="-230.7" font-family="Times,serif" font-size="14.00">contracts/libs/IexecLibCore_v5.sol</text>
<polyline fill="none" stroke="black" points="1364,-222.5 1576.33,-222.5 "/>
<text text-anchor="start" x="1372" y="-205.9" font-family="Times,serif" font-size="14.00">status: ContributionStatusEnum</text>
<text text-anchor="start" x="1372" y="-189.1" font-family="Times,serif" font-size="14.00">resultHash: bytes32</text>
<text text-anchor="start" x="1372" y="-172.3" font-family="Times,serif" font-size="14.00">resultSeal: bytes32</text>
<text text-anchor="start" x="1372" y="-155.5" font-family="Times,serif" font-size="14.00">enclaveChallenge: address</text>
<text text-anchor="start" x="1372" y="-138.7" font-family="Times,serif" font-size="14.00">weight: uint256</text>
</g>
<!-- 10&#45;&gt;0 -->
<g id="edge10" class="edge">
<title>10&#45;&gt;0</title>
<path fill="none" stroke="black" d="M1477.44,-281.15C1488.66,-412.22 1503.81,-677.2 1451.17,-750 1351.94,-887.24 1149.37,-931.88 1019.7,-946.31"/>
<polygon fill="black" stroke="black" points="1019.32,-946.35 1013.77,-950.96 1007.38,-947.62 1012.93,-943.01 1019.32,-946.35"/>
</g>
<!-- 10&#45;&gt;9 -->
<g id="edge13" class="edge">
<title>10&#45;&gt;9</title>
<path fill="none" stroke="black" stroke-dasharray="5,2" d="M1495.69,-281.16C1519.37,-350.26 1554.44,-452.6 1578.25,-522.07"/>
<polygon fill="black" stroke="black" points="1574.98,-523.32 1581.53,-531.65 1581.6,-521.05 1574.98,-523.32"/>
</g>
<!-- 11 -->
<g id="node12" class="node">
<title>11</title>
<polygon fill="#f2f2f2" stroke="black" points="2350.4,-0.5 2350.4,-410.9 2783.93,-410.9 2783.93,-0.5 2350.4,-0.5"/>
<text text-anchor="middle" x="2567.17" y="-394.3" font-family="Times,serif" font-size="14.00">&lt;&lt;Library&gt;&gt;</text>
<text text-anchor="middle" x="2567.17" y="-377.5" font-family="Times,serif" font-size="14.00">IexecLibOrders_v5</text>
<text text-anchor="middle" x="2567.17" y="-360.7" font-family="Times,serif" font-size="14.00">contracts/libs/IexecLibOrders_v5.sol</text>
<polyline fill="none" stroke="black" points="2350.4,-352.5 2783.93,-352.5 "/>
<text text-anchor="start" x="2358.4" y="-335.9" font-family="Times,serif" font-size="14.00">Public:</text>
<text text-anchor="start" x="2358.4" y="-319.1" font-family="Times,serif" font-size="14.00"> &#160;&#160;EIP712DOMAIN_TYPEHASH: bytes32</text>
<text text-anchor="start" x="2358.4" y="-302.3" font-family="Times,serif" font-size="14.00"> &#160;&#160;APPORDER_TYPEHASH: bytes32</text>
<text text-anchor="start" x="2358.4" y="-285.5" font-family="Times,serif" font-size="14.00"> &#160;&#160;DATASETORDER_TYPEHASH: bytes32</text>
<text text-anchor="start" x="2358.4" y="-268.7" font-family="Times,serif" font-size="14.00"> &#160;&#160;WORKERPOOLORDER_TYPEHASH: bytes32</text>
<text text-anchor="start" x="2358.4" y="-251.9" font-family="Times,serif" font-size="14.00"> &#160;&#160;REQUESTORDER_TYPEHASH: bytes32</text>
<text text-anchor="start" x="2358.4" y="-235.1" font-family="Times,serif" font-size="14.00"> &#160;&#160;APPORDEROPERATION_TYPEHASH: bytes32</text>
<text text-anchor="start" x="2358.4" y="-218.3" font-family="Times,serif" font-size="14.00"> &#160;&#160;DATASETORDEROPERATION_TYPEHASH: bytes32</text>
<text text-anchor="start" x="2358.4" y="-201.5" font-family="Times,serif" font-size="14.00"> &#160;&#160;WORKERPOOLORDEROPERATION_TYPEHASH: bytes32</text>
<text text-anchor="start" x="2358.4" y="-184.7" font-family="Times,serif" font-size="14.00"> &#160;&#160;REQUESTORDEROPERATION_TYPEHASH: bytes32</text>
<polyline fill="none" stroke="black" points="2350.4,-176.5 2783.93,-176.5 "/>
<text text-anchor="start" x="2358.4" y="-159.9" font-family="Times,serif" font-size="14.00">Public:</text>
<text text-anchor="start" x="2358.4" y="-143.1" font-family="Times,serif" font-size="14.00"> &#160;&#160;&#160;hash(_domain: EIP712Domain): (domainhash: bytes32)</text>
<text text-anchor="start" x="2358.4" y="-126.3" font-family="Times,serif" font-size="14.00"> &#160;&#160;&#160;hash(_apporder: AppOrder): (apphash: bytes32)</text>
<text text-anchor="start" x="2358.4" y="-109.5" font-family="Times,serif" font-size="14.00"> &#160;&#160;&#160;hash(_datasetorder: DatasetOrder): (datasethash: bytes32)</text>
<text text-anchor="start" x="2358.4" y="-92.7" font-family="Times,serif" font-size="14.00"> &#160;&#160;&#160;hash(_workerpoolorder: WorkerpoolOrder): (workerpoolhash: bytes32)</text>
<text text-anchor="start" x="2358.4" y="-75.9" font-family="Times,serif" font-size="14.00"> &#160;&#160;&#160;hash(_requestorder: RequestOrder): (requesthash: bytes32)</text>
<text text-anchor="start" x="2358.4" y="-59.1" font-family="Times,serif" font-size="14.00"> &#160;&#160;&#160;hash(_apporderoperation: AppOrderOperation): bytes32</text>
<text text-anchor="start" x="2358.4" y="-42.3" font-family="Times,serif" font-size="14.00"> &#160;&#160;&#160;hash(_datasetorderoperation: DatasetOrderOperation): bytes32</text>
<text text-anchor="start" x="2358.4" y="-25.5" font-family="Times,serif" font-size="14.00"> &#160;&#160;&#160;hash(_workerpoolorderoperation: WorkerpoolOrderOperation): bytes32</text>
<text text-anchor="start" x="2358.4" y="-8.7" font-family="Times,serif" font-size="14.00"> &#160;&#160;&#160;hash(_requestorderoperation: RequestOrderOperation): bytes32</text>
</g>
<!-- 13 -->
<g id="node14" class="node">
<title>13</title>
<polygon fill="#f2f2f2" stroke="black" points="1728.56,-531.9 1728.56,-665.5 1951.78,-665.5 1951.78,-531.9 1728.56,-531.9"/>
<text text-anchor="middle" x="1840.17" y="-648.9" font-family="Times,serif" font-size="14.00">&lt;&lt;Struct&gt;&gt;</text>
<text text-anchor="middle" x="1840.17" y="-632.1" font-family="Times,serif" font-size="14.00">EIP712Domain</text>
<text text-anchor="middle" x="1840.17" y="-615.3" font-family="Times,serif" font-size="14.00">contracts/libs/IexecLibOrders_v5.sol</text>
<polyline fill="none" stroke="black" points="1728.56,-607.1 1951.78,-607.1 "/>
<text text-anchor="start" x="1736.56" y="-590.5" font-family="Times,serif" font-size="14.00">name: string</text>
<text text-anchor="start" x="1736.56" y="-573.7" font-family="Times,serif" font-size="14.00">version: string</text>
<text text-anchor="start" x="1736.56" y="-556.9" font-family="Times,serif" font-size="14.00">chainId: uint256</text>
<text text-anchor="start" x="1736.56" y="-540.1" font-family="Times,serif" font-size="14.00">verifyingContract: address</text>
</g>
<!-- 11&#45;&gt;13 -->
<g id="edge24" class="edge">
<title>11&#45;&gt;13</title>
<path fill="none" stroke="black" stroke-dasharray="5,2" d="M2350.1,-262.49C2227.15,-301.52 2074.92,-362.08 1957.17,-447.4 1928.56,-468.13 1902.44,-496.75 1882.09,-523.46"/>
<polygon fill="black" stroke="black" points="1879.14,-521.56 1875.97,-531.67 1884.75,-525.75 1879.14,-521.56"/>
</g>
<!-- 14 -->
<g id="node15" class="node">
<title>14</title>
<polygon fill="#f2f2f2" stroke="black" points="1877.56,-845.3 1877.56,-1062.9 2100.78,-1062.9 2100.78,-845.3 1877.56,-845.3"/>
<text text-anchor="middle" x="1989.17" y="-1046.3" font-family="Times,serif" font-size="14.00">&lt;&lt;Struct&gt;&gt;</text>
<text text-anchor="middle" x="1989.17" y="-1029.5" font-family="Times,serif" font-size="14.00">AppOrder</text>
<text text-anchor="middle" x="1989.17" y="-1012.7" font-family="Times,serif" font-size="14.00">contracts/libs/IexecLibOrders_v5.sol</text>
<polyline fill="none" stroke="black" points="1877.56,-1004.5 2100.78,-1004.5 "/>
<text text-anchor="start" x="1885.56" y="-987.9" font-family="Times,serif" font-size="14.00">app: address</text>
<text text-anchor="start" x="1885.56" y="-971.1" font-family="Times,serif" font-size="14.00">appprice: uint256</text>
<text text-anchor="start" x="1885.56" y="-954.3" font-family="Times,serif" font-size="14.00">volume: uint256</text>
<text text-anchor="start" x="1885.56" y="-937.5" font-family="Times,serif" font-size="14.00">tag: bytes32</text>
<text text-anchor="start" x="1885.56" y="-920.7" font-family="Times,serif" font-size="14.00">datasetrestrict: address</text>
<text text-anchor="start" x="1885.56" y="-903.9" font-family="Times,serif" font-size="14.00">workerpoolrestrict: address</text>
<text text-anchor="start" x="1885.56" y="-887.1" font-family="Times,serif" font-size="14.00">requesterrestrict: address</text>
<text text-anchor="start" x="1885.56" y="-870.3" font-family="Times,serif" font-size="14.00">salt: bytes32</text>
<text text-anchor="start" x="1885.56" y="-853.5" font-family="Times,serif" font-size="14.00">sign: bytes</text>
</g>
<!-- 11&#45;&gt;14 -->
<g id="edge25" class="edge">
<title>11&#45;&gt;14</title>
<path fill="none" stroke="black" stroke-dasharray="5,2" d="M2350.08,-242.5C2228.5,-274.72 2086.1,-335.13 2008.17,-447.4 1966.17,-507.9 1967.15,-705.74 1975.36,-835.29"/>
<polygon fill="black" stroke="black" points="1971.87,-835.52 1976.02,-845.27 1978.85,-835.07 1971.87,-835.52"/>
</g>
<!-- 15 -->
<g id="node16" class="node">
<title>15</title>
<polygon fill="#f2f2f2" stroke="black" points="2455.56,-845.3 2455.56,-1062.9 2678.78,-1062.9 2678.78,-845.3 2455.56,-845.3"/>
<text text-anchor="middle" x="2567.17" y="-1046.3" font-family="Times,serif" font-size="14.00">&lt;&lt;Struct&gt;&gt;</text>
<text text-anchor="middle" x="2567.17" y="-1029.5" font-family="Times,serif" font-size="14.00">DatasetOrder</text>
<text text-anchor="middle" x="2567.17" y="-1012.7" font-family="Times,serif" font-size="14.00">contracts/libs/IexecLibOrders_v5.sol</text>
<polyline fill="none" stroke="black" points="2455.56,-1004.5 2678.78,-1004.5 "/>
<text text-anchor="start" x="2463.56" y="-987.9" font-family="Times,serif" font-size="14.00">dataset: address</text>
<text text-anchor="start" x="2463.56" y="-971.1" font-family="Times,serif" font-size="14.00">datasetprice: uint256</text>
<text text-anchor="start" x="2463.56" y="-954.3" font-family="Times,serif" font-size="14.00">volume: uint256</text>
<text text-anchor="start" x="2463.56" y="-937.5" font-family="Times,serif" font-size="14.00">tag: bytes32</text>
<text text-anchor="start" x="2463.56" y="-920.7" font-family="Times,serif" font-size="14.00">apprestrict: address</text>
<text text-anchor="start" x="2463.56" y="-903.9" font-family="Times,serif" font-size="14.00">workerpoolrestrict: address</text>
<text text-anchor="start" x="2463.56" y="-887.1" font-family="Times,serif" font-size="14.00">requesterrestrict: address</text>
<text text-anchor="start" x="2463.56" y="-870.3" font-family="Times,serif" font-size="14.00">salt: bytes32</text>
<text text-anchor="start" x="2463.56" y="-853.5" font-family="Times,serif" font-size="14.00">sign: bytes</text>
</g>
<!-- 11&#45;&gt;15 -->
<g id="edge26" class="edge">
<title>11&#45;&gt;15</title>
<path fill="none" stroke="black" stroke-dasharray="5,2" d="M2561.07,-411.15C2559.94,-547.31 2560.28,-721.43 2562.08,-835.04"/>
<polygon fill="black" stroke="black" points="2558.58,-835.22 2562.25,-845.16 2565.58,-835.1 2558.58,-835.22"/>
</g>
<!-- 16 -->
<g id="node17" class="node">
<title>16</title>
<polygon fill="#f2f2f2" stroke="black" points="2753.56,-828.5 2753.56,-1079.7 2976.78,-1079.7 2976.78,-828.5 2753.56,-828.5"/>
<text text-anchor="middle" x="2865.17" y="-1063.1" font-family="Times,serif" font-size="14.00">&lt;&lt;Struct&gt;&gt;</text>
<text text-anchor="middle" x="2865.17" y="-1046.3" font-family="Times,serif" font-size="14.00">WorkerpoolOrder</text>
<text text-anchor="middle" x="2865.17" y="-1029.5" font-family="Times,serif" font-size="14.00">contracts/libs/IexecLibOrders_v5.sol</text>
<polyline fill="none" stroke="black" points="2753.56,-1021.3 2976.78,-1021.3 "/>
<text text-anchor="start" x="2761.56" y="-1004.7" font-family="Times,serif" font-size="14.00">workerpool: address</text>
<text text-anchor="start" x="2761.56" y="-987.9" font-family="Times,serif" font-size="14.00">workerpoolprice: uint256</text>
<text text-anchor="start" x="2761.56" y="-971.1" font-family="Times,serif" font-size="14.00">volume: uint256</text>
<text text-anchor="start" x="2761.56" y="-954.3" font-family="Times,serif" font-size="14.00">tag: bytes32</text>
<text text-anchor="start" x="2761.56" y="-937.5" font-family="Times,serif" font-size="14.00">category: uint256</text>
<text text-anchor="start" x="2761.56" y="-920.7" font-family="Times,serif" font-size="14.00">trust: uint256</text>
<text text-anchor="start" x="2761.56" y="-903.9" font-family="Times,serif" font-size="14.00">apprestrict: address</text>
<text text-anchor="start" x="2761.56" y="-887.1" font-family="Times,serif" font-size="14.00">datasetrestrict: address</text>
<text text-anchor="start" x="2761.56" y="-870.3" font-family="Times,serif" font-size="14.00">requesterrestrict: address</text>
<text text-anchor="start" x="2761.56" y="-853.5" font-family="Times,serif" font-size="14.00">salt: bytes32</text>
<text text-anchor="start" x="2761.56" y="-836.7" font-family="Times,serif" font-size="14.00">sign: bytes</text>
</g>
<!-- 11&#45;&gt;16 -->
<g id="edge27" class="edge">
<title>11&#45;&gt;16</title>
<path fill="none" stroke="black" stroke-dasharray="5,2" d="M2784.18,-379.53C2801.4,-400.66 2816.58,-423.36 2828.17,-447.4 2884.05,-563.37 2885.17,-712.09 2877.57,-818.17"/>
<polygon fill="black" stroke="black" points="2874.07,-818.06 2876.81,-828.3 2881.05,-818.59 2874.07,-818.06"/>
</g>
<!-- 17 -->
<g id="node18" class="node">
<title>17</title>
<polygon fill="#f2f2f2" stroke="black" points="3051.56,-786.5 3051.56,-1121.7 3274.78,-1121.7 3274.78,-786.5 3051.56,-786.5"/>
<text text-anchor="middle" x="3163.17" y="-1105.1" font-family="Times,serif" font-size="14.00">&lt;&lt;Struct&gt;&gt;</text>
<text text-anchor="middle" x="3163.17" y="-1088.3" font-family="Times,serif" font-size="14.00">RequestOrder</text>
<text text-anchor="middle" x="3163.17" y="-1071.5" font-family="Times,serif" font-size="14.00">contracts/libs/IexecLibOrders_v5.sol</text>
<polyline fill="none" stroke="black" points="3051.56,-1063.3 3274.78,-1063.3 "/>
<text text-anchor="start" x="3059.56" y="-1046.7" font-family="Times,serif" font-size="14.00">app: address</text>
<text text-anchor="start" x="3059.56" y="-1029.9" font-family="Times,serif" font-size="14.00">appmaxprice: uint256</text>
<text text-anchor="start" x="3059.56" y="-1013.1" font-family="Times,serif" font-size="14.00">dataset: address</text>
<text text-anchor="start" x="3059.56" y="-996.3" font-family="Times,serif" font-size="14.00">datasetmaxprice: uint256</text>
<text text-anchor="start" x="3059.56" y="-979.5" font-family="Times,serif" font-size="14.00">workerpool: address</text>
<text text-anchor="start" x="3059.56" y="-962.7" font-family="Times,serif" font-size="14.00">workerpoolmaxprice: uint256</text>
<text text-anchor="start" x="3059.56" y="-945.9" font-family="Times,serif" font-size="14.00">requester: address</text>
<text text-anchor="start" x="3059.56" y="-929.1" font-family="Times,serif" font-size="14.00">volume: uint256</text>
<text text-anchor="start" x="3059.56" y="-912.3" font-family="Times,serif" font-size="14.00">tag: bytes32</text>
<text text-anchor="start" x="3059.56" y="-895.5" font-family="Times,serif" font-size="14.00">category: uint256</text>
<text text-anchor="start" x="3059.56" y="-878.7" font-family="Times,serif" font-size="14.00">trust: uint256</text>
<text text-anchor="start" x="3059.56" y="-861.9" font-family="Times,serif" font-size="14.00">beneficiary: address</text>
<text text-anchor="start" x="3059.56" y="-845.1" font-family="Times,serif" font-size="14.00">callback: address</text>
<text text-anchor="start" x="3059.56" y="-828.3" font-family="Times,serif" font-size="14.00">params: string</text>
<text text-anchor="start" x="3059.56" y="-811.5" font-family="Times,serif" font-size="14.00">salt: bytes32</text>
<text text-anchor="start" x="3059.56" y="-794.7" font-family="Times,serif" font-size="14.00">sign: bytes</text>
</g>
<!-- 11&#45;&gt;17 -->
<g id="edge28" class="edge">
<title>11&#45;&gt;17</title>
<path fill="none" stroke="black" stroke-dasharray="5,2" d="M2784.17,-242.93C2905.34,-275.07 3047.34,-335.24 3126.17,-447.4 3192.35,-541.57 3198.17,-671.66 3189.26,-776.31"/>
<polygon fill="black" stroke="black" points="3185.77,-776.08 3188.35,-786.35 3192.74,-776.71 3185.77,-776.08"/>
</g>
<!-- 18 -->
<g id="node19" class="node">
<title>18</title>
<polygon fill="#f2f2f2" stroke="black" points="2026.56,-540.3 2026.56,-657.1 2249.78,-657.1 2249.78,-540.3 2026.56,-540.3"/>
<text text-anchor="middle" x="2138.17" y="-640.5" font-family="Times,serif" font-size="14.00">&lt;&lt;Struct&gt;&gt;</text>
<text text-anchor="middle" x="2138.17" y="-623.7" font-family="Times,serif" font-size="14.00">AppOrderOperation</text>
<text text-anchor="middle" x="2138.17" y="-606.9" font-family="Times,serif" font-size="14.00">contracts/libs/IexecLibOrders_v5.sol</text>
<polyline fill="none" stroke="black" points="2026.56,-598.7 2249.78,-598.7 "/>
<text text-anchor="start" x="2034.56" y="-582.1" font-family="Times,serif" font-size="14.00">order: AppOrder</text>
<text text-anchor="start" x="2034.56" y="-565.3" font-family="Times,serif" font-size="14.00">operation: OrderOperationEnum</text>
<text text-anchor="start" x="2034.56" y="-548.5" font-family="Times,serif" font-size="14.00">sign: bytes</text>
</g>
<!-- 11&#45;&gt;18 -->
<g id="edge29" class="edge">
<title>11&#45;&gt;18</title>
<path fill="none" stroke="black" stroke-dasharray="5,2" d="M2350.2,-362.81C2317.36,-389.94 2284.65,-418.69 2255.17,-447.4 2228.42,-473.46 2201.46,-504.77 2180.09,-532.06"/>
<polygon fill="black" stroke="black" points="2177.29,-529.96 2173.93,-540.01 2182.82,-534.25 2177.29,-529.96"/>
</g>
<!-- 19 -->
<g id="node20" class="node">
<title>19</title>
<polygon fill="#f2f2f2" stroke="black" points="2306.56,-540.3 2306.56,-657.1 2529.78,-657.1 2529.78,-540.3 2306.56,-540.3"/>
<text text-anchor="middle" x="2418.17" y="-640.5" font-family="Times,serif" font-size="14.00">&lt;&lt;Struct&gt;&gt;</text>
<text text-anchor="middle" x="2418.17" y="-623.7" font-family="Times,serif" font-size="14.00">DatasetOrderOperation</text>
<text text-anchor="middle" x="2418.17" y="-606.9" font-family="Times,serif" font-size="14.00">contracts/libs/IexecLibOrders_v5.sol</text>
<polyline fill="none" stroke="black" points="2306.56,-598.7 2529.78,-598.7 "/>
<text text-anchor="start" x="2314.56" y="-582.1" font-family="Times,serif" font-size="14.00">order: DatasetOrder</text>
<text text-anchor="start" x="2314.56" y="-565.3" font-family="Times,serif" font-size="14.00">operation: OrderOperationEnum</text>
<text text-anchor="start" x="2314.56" y="-548.5" font-family="Times,serif" font-size="14.00">sign: bytes</text>
</g>
<!-- 11&#45;&gt;19 -->
<g id="edge30" class="edge">
<title>11&#45;&gt;19</title>
<path fill="none" stroke="black" stroke-dasharray="5,2" d="M2482.54,-411.07C2466.18,-454.17 2450.47,-496.69 2438.63,-530.24"/>
<polygon fill="black" stroke="black" points="2435.24,-529.31 2435.23,-539.9 2441.85,-531.63 2435.24,-529.31"/>
</g>
<!-- 20 -->
<g id="node21" class="node">
<title>20</title>
<polygon fill="#f2f2f2" stroke="black" points="2604.56,-540.3 2604.56,-657.1 2827.78,-657.1 2827.78,-540.3 2604.56,-540.3"/>
<text text-anchor="middle" x="2716.17" y="-640.5" font-family="Times,serif" font-size="14.00">&lt;&lt;Struct&gt;&gt;</text>
<text text-anchor="middle" x="2716.17" y="-623.7" font-family="Times,serif" font-size="14.00">WorkerpoolOrderOperation</text>
<text text-anchor="middle" x="2716.17" y="-606.9" font-family="Times,serif" font-size="14.00">contracts/libs/IexecLibOrders_v5.sol</text>
<polyline fill="none" stroke="black" points="2604.56,-598.7 2827.78,-598.7 "/>
<text text-anchor="start" x="2612.56" y="-582.1" font-family="Times,serif" font-size="14.00">order: WorkerpoolOrder</text>
<text text-anchor="start" x="2612.56" y="-565.3" font-family="Times,serif" font-size="14.00">operation: OrderOperationEnum</text>
<text text-anchor="start" x="2612.56" y="-548.5" font-family="Times,serif" font-size="14.00">sign: bytes</text>
</g>
<!-- 11&#45;&gt;20 -->
<g id="edge31" class="edge">
<title>11&#45;&gt;20</title>
<path fill="none" stroke="black" stroke-dasharray="5,2" d="M2638.31,-411.07C2654.79,-454.17 2671.49,-496.69 2685.21,-530.24"/>
<polygon fill="black" stroke="black" points="2682.14,-531.98 2689.18,-539.9 2688.62,-529.32 2682.14,-531.98"/>
</g>
<!-- 21 -->
<g id="node22" class="node">
<title>21</title>
<polygon fill="#f2f2f2" stroke="black" points="2902.56,-540.3 2902.56,-657.1 3125.78,-657.1 3125.78,-540.3 2902.56,-540.3"/>
<text text-anchor="middle" x="3014.17" y="-640.5" font-family="Times,serif" font-size="14.00">&lt;&lt;Struct&gt;&gt;</text>
<text text-anchor="middle" x="3014.17" y="-623.7" font-family="Times,serif" font-size="14.00">RequestOrderOperation</text>
<text text-anchor="middle" x="3014.17" y="-606.9" font-family="Times,serif" font-size="14.00">contracts/libs/IexecLibOrders_v5.sol</text>
<polyline fill="none" stroke="black" points="2902.56,-598.7 3125.78,-598.7 "/>
<text text-anchor="start" x="2910.56" y="-582.1" font-family="Times,serif" font-size="14.00">order: RequestOrder</text>
<text text-anchor="start" x="2910.56" y="-565.3" font-family="Times,serif" font-size="14.00">operation: OrderOperationEnum</text>
<text text-anchor="start" x="2910.56" y="-548.5" font-family="Times,serif" font-size="14.00">sign: bytes</text>
</g>
<!-- 11&#45;&gt;21 -->
<g id="edge32" class="edge">
<title>11&#45;&gt;21</title>
<path fill="none" stroke="black" stroke-dasharray="5,2" d="M2784.24,-365.74C2817.04,-391.83 2849.71,-419.5 2879.17,-447.4 2906.39,-473.19 2933.51,-504.6 2956.29,-532.03"/>
<polygon fill="black" stroke="black" points="2953.84,-534.55 2962.91,-540.03 2959.23,-530.09 2953.84,-534.55"/>
</g>
<!-- 12 -->
<g id="node13" class="node">
<title>12</title>
<polygon fill="#f2f2f2" stroke="black" points="2190.56,-904.1 2190.56,-1004.1 2413.78,-1004.1 2413.78,-904.1 2190.56,-904.1"/>
<text text-anchor="middle" x="2302.17" y="-987.5" font-family="Times,serif" font-size="14.00">&lt;&lt;Enum&gt;&gt;</text>
<text text-anchor="middle" x="2302.17" y="-970.7" font-family="Times,serif" font-size="14.00">OrderOperationEnum</text>
<text text-anchor="middle" x="2302.17" y="-953.9" font-family="Times,serif" font-size="14.00">contracts/libs/IexecLibOrders_v5.sol</text>
<polyline fill="none" stroke="black" points="2190.56,-945.7 2413.78,-945.7 "/>
<text text-anchor="start" x="2198.56" y="-929.1" font-family="Times,serif" font-size="14.00">SIGN: 0</text>
<text text-anchor="start" x="2198.56" y="-912.3" font-family="Times,serif" font-size="14.00">CLOSE: 1</text>
</g>
<!-- 12&#45;&gt;11 -->
<g id="edge14" class="edge">
<title>12&#45;&gt;11</title>
<path fill="none" stroke="black" d="M2296.53,-903.84C2284.68,-793.09 2261.12,-527.82 2297.17,-447.4 2308.63,-421.83 2324.3,-397.86 2342.36,-375.71"/>
<polygon fill="black" stroke="black" points="2342.52,-375.51 2343.32,-368.35 2350.24,-366.32 2349.45,-373.49 2342.52,-375.51"/>
</g>
<!-- 13&#45;&gt;11 -->
<g id="edge15" class="edge">
<title>13&#45;&gt;11</title>
<path fill="none" stroke="black" d="M1892.36,-531.67C1915.06,-502.76 1943.6,-470.28 1975.17,-447.4 2084.28,-368.34 2223,-310.54 2338.74,-271.43"/>
<polygon fill="black" stroke="black" points="2338.85,-271.39 2343.27,-265.7 2350.22,-267.58 2345.81,-273.28 2338.85,-271.39"/>
</g>
<!-- 14&#45;&gt;11 -->
<g id="edge16" class="edge">
<title>14&#45;&gt;11</title>
<path fill="none" stroke="black" d="M1988.57,-845.27C1985.23,-716.15 1983.08,-509.47 2026.17,-447.4 2098.28,-343.51 2225.59,-284.03 2338.61,-250.2"/>
<polygon fill="black" stroke="black" points="2338.69,-250.18 2343.32,-244.65 2350.2,-246.8 2345.57,-252.33 2338.69,-250.18"/>
</g>
<!-- 15&#45;&gt;11 -->
<g id="edge17" class="edge">
<title>15&#45;&gt;11</title>
<path fill="none" stroke="black" d="M2572.09,-845.16C2573.98,-735.19 2574.41,-561.59 2573.36,-423.16"/>
<polygon fill="black" stroke="black" points="2573.36,-423.15 2569.31,-417.18 2573.26,-411.15 2577.31,-417.12 2573.36,-423.15"/>
</g>
<!-- 16&#45;&gt;11 -->
<g id="edge18" class="edge">
<title>16&#45;&gt;11</title>
<path fill="none" stroke="black" d="M2891.11,-828.3C2903.19,-721.72 2903.85,-567.11 2846.17,-447.4 2832.45,-418.93 2813.69,-392.36 2792.34,-368.03"/>
<polygon fill="black" stroke="black" points="2792.07,-367.73 2785.08,-365.95 2784.03,-358.81 2791.02,-360.59 2792.07,-367.73"/>
</g>
<!-- 17&#45;&gt;11 -->
<g id="edge19" class="edge">
<title>17&#45;&gt;11</title>
<path fill="none" stroke="black" d="M3203.71,-786.35C3216.49,-680.09 3212.49,-544.61 3144.17,-447.4 3064.52,-334.08 2920.38,-273.83 2796.08,-241.94"/>
<polygon fill="black" stroke="black" points="2795.76,-241.86 2788.97,-244.28 2784.12,-238.94 2790.91,-236.52 2795.76,-241.86"/>
</g>
<!-- 18&#45;&gt;11 -->
<g id="edge20" class="edge">
<title>18&#45;&gt;11</title>
<path fill="none" stroke="black" d="M2190.06,-540.01C2214.14,-511.01 2243.77,-476.03 2273.17,-447.4 2294.41,-426.71 2317.34,-406 2340.69,-385.89"/>
<polygon fill="black" stroke="black" points="2340.89,-385.72 2342.85,-378.77 2350.01,-377.91 2348.05,-384.85 2340.89,-385.72"/>
</g>
<!-- 18&#45;&gt;12 -->
<g id="edge34" class="edge">
<title>18&#45;&gt;12</title>
<path fill="none" stroke="black" stroke-dasharray="5,2" d="M2164.88,-657.27C2195.2,-722.61 2244.4,-828.63 2274.94,-894.42"/>
<polygon fill="black" stroke="black" points="2271.92,-896.23 2279.3,-903.83 2278.27,-893.28 2271.92,-896.23"/>
</g>
<!-- 18&#45;&gt;14 -->
<g id="edge33" class="edge">
<title>18&#45;&gt;14</title>
<path fill="none" stroke="black" stroke-dasharray="5,2" d="M2113.9,-657.27C2093.58,-705.44 2063.95,-775.74 2038.66,-835.72"/>
<polygon fill="black" stroke="black" points="2035.3,-834.67 2034.64,-845.25 2041.75,-837.39 2035.3,-834.67"/>
</g>
<!-- 19&#45;&gt;11 -->
<g id="edge21" class="edge">
<title>19&#45;&gt;11</title>
<path fill="none" stroke="black" d="M2445.15,-539.9C2458.39,-507.87 2475,-465.82 2491.68,-422.43"/>
<polygon fill="black" stroke="black" points="2491.73,-422.28 2490.15,-415.25 2496.03,-411.07 2497.62,-418.11 2491.73,-422.28"/>
</g>
<!-- 19&#45;&gt;12 -->
<g id="edge36" class="edge">
<title>19&#45;&gt;12</title>
<path fill="none" stroke="black" stroke-dasharray="5,2" d="M2399.27,-657.27C2377.87,-722.47 2343.17,-828.19 2321.56,-894.02"/>
<polygon fill="black" stroke="black" points="2318.13,-893.24 2318.34,-903.83 2324.78,-895.42 2318.13,-893.24"/>
</g>
<!-- 19&#45;&gt;15 -->
<g id="edge35" class="edge">
<title>19&#45;&gt;15</title>
<path fill="none" stroke="black" stroke-dasharray="5,2" d="M2442.44,-657.27C2462.75,-705.44 2492.39,-775.74 2517.68,-835.72"/>
<polygon fill="black" stroke="black" points="2514.59,-837.39 2521.7,-845.25 2521.04,-834.67 2514.59,-837.39"/>
</g>
<!-- 20&#45;&gt;11 -->
<g id="edge22" class="edge">
<title>20&#45;&gt;11</title>
<path fill="none" stroke="black" d="M2699.1,-539.9C2687.93,-507.87 2672.49,-465.82 2656.09,-422.43"/>
<polygon fill="black" stroke="black" points="2656.04,-422.3 2650.18,-418.1 2651.79,-411.07 2657.66,-415.27 2656.04,-422.3"/>
</g>
<!-- 20&#45;&gt;12 -->
<g id="edge38" class="edge">
<title>20&#45;&gt;12</title>
<path fill="none" stroke="black" stroke-dasharray="5,2" d="M2658.58,-657.25C2625.69,-687.8 2582.47,-724.24 2539.17,-750 2501.08,-772.66 2482.38,-760.45 2446.17,-786 2404.31,-815.53 2366.87,-859.83 2340.67,-895.4"/>
<polygon fill="black" stroke="black" points="2337.63,-893.62 2334.59,-903.77 2343.3,-897.74 2337.63,-893.62"/>
</g>
<!-- 20&#45;&gt;16 -->
<g id="edge37" class="edge">
<title>20&#45;&gt;16</title>
<path fill="none" stroke="black" stroke-dasharray="5,2" d="M2740.44,-657.27C2758.91,-701.08 2785.1,-763.19 2808.71,-819.2"/>
<polygon fill="black" stroke="black" points="2805.52,-820.64 2812.63,-828.49 2811.97,-817.92 2805.52,-820.64"/>
</g>
<!-- 21&#45;&gt;11 -->
<g id="edge23" class="edge">
<title>21&#45;&gt;11</title>
<path fill="none" stroke="black" d="M2979.01,-540.03C2956.87,-510.86 2927.08,-475.73 2897.17,-447.4 2865.25,-417.17 2829.56,-387.22 2793.77,-359.24"/>
<polygon fill="black" stroke="black" points="2793.65,-359.15 2786.46,-358.63 2784.17,-351.79 2791.36,-352.31 2793.65,-359.15"/>
</g>
<!-- 21&#45;&gt;12 -->
<g id="edge40" class="edge">
<title>21&#45;&gt;12</title>
<path fill="none" stroke="black" stroke-dasharray="5,2" d="M2963.97,-657.19C2931.4,-690.36 2886.04,-729.46 2837.17,-750 2676.29,-817.62 2601.31,-706.09 2446.17,-786 2398.85,-810.37 2360.46,-857.54 2335.26,-895.56"/>
<polygon fill="black" stroke="black" points="2332.28,-893.72 2329.77,-904.02 2338.15,-897.53 2332.28,-893.72"/>
</g>
<!-- 21&#45;&gt;17 -->
<g id="edge39" class="edge">
<title>21&#45;&gt;17</title>
<path fill="none" stroke="black" stroke-dasharray="5,2" d="M3038.44,-657.27C3052.37,-690.32 3070.7,-733.78 3088.99,-777.17"/>
<polygon fill="black" stroke="black" points="3085.79,-778.57 3092.9,-786.43 3092.24,-775.85 3085.79,-778.57"/>
</g>
</g>
</svg>
