<?xml version="1.0" encoding="UTF-8" standalone="no"?>
<!DOCTYPE svg PUBLIC "-//W3C//DTD SVG 1.1//EN"
 "http://www.w3.org/Graphics/SVG/1.1/DTD/svg11.dtd">
<!-- Generated by graphviz version 5.0.0 (20220707.1540)
 -->
<!-- Title: UmlClassDiagram Pages: 1 -->
<svg width="2964pt" height="956pt"
 viewBox="0.00 0.00 2963.66 956.00" xmlns="http://www.w3.org/2000/svg" xmlns:xlink="http://www.w3.org/1999/xlink">
<g id="graph0" class="graph" transform="scale(1 1) rotate(0) translate(4 952)">
<title>UmlClassDiagram</title>
<polygon fill="white" stroke="transparent" points="-4,4 -4,-952 2959.66,-952 2959.66,4 -4,4"/>
<!-- 0 -->
<g id="node1" class="node">
<title>0</title>
<polygon fill="#f2f2f2" stroke="black" points="1005.82,-847.5 1005.82,-947.5 1235.28,-947.5 1235.28,-847.5 1005.82,-847.5"/>
<text text-anchor="middle" x="1120.55" y="-930.9" font-family="Times,serif" font-size="14.00">&lt;&lt;Interface&gt;&gt;</text>
<text text-anchor="middle" x="1120.55" y="-914.1" font-family="Times,serif" font-size="14.00">IRegistry</text>
<text text-anchor="middle" x="1120.55" y="-897.3" font-family="Times,serif" font-size="14.00">contracts/registries/IRegistry.sol</text>
<polyline fill="none" stroke="black" points="1005.82,-889.1 1235.28,-889.1 "/>
<text text-anchor="start" x="1013.82" y="-872.5" font-family="Times,serif" font-size="14.00">External:</text>
<text text-anchor="start" x="1013.82" y="-855.7" font-family="Times,serif" font-size="14.00"> &#160;&#160;&#160;&#160;isRegistered(_entry: address): bool</text>
</g>
<!-- 1 -->
<g id="node2" class="node">
<title>1</title>
<polygon fill="#f2f2f2" stroke="black" points="933.5,-204.7 933.5,-547.9 1307.6,-547.9 1307.6,-204.7 933.5,-204.7"/>
<text text-anchor="middle" x="1120.55" y="-531.3" font-family="Times,serif" font-size="14.00">&lt;&lt;Abstract&gt;&gt;</text>
<text text-anchor="middle" x="1120.55" y="-514.5" font-family="Times,serif" font-size="14.00">Registry</text>
<text text-anchor="middle" x="1120.55" y="-497.7" font-family="Times,serif" font-size="14.00">contracts/registries/Registry.sol</text>
<polyline fill="none" stroke="black" points="933.5,-489.5 1307.6,-489.5 "/>
<text text-anchor="start" x="941.5" y="-472.9" font-family="Times,serif" font-size="14.00">Public:</text>
<text text-anchor="start" x="941.5" y="-456.1" font-family="Times,serif" font-size="14.00"> &#160;&#160;master: address</text>
<text text-anchor="start" x="941.5" y="-439.3" font-family="Times,serif" font-size="14.00"> &#160;&#160;proxyCode: bytes</text>
<text text-anchor="start" x="941.5" y="-422.5" font-family="Times,serif" font-size="14.00"> &#160;&#160;proxyCodeHash: bytes32</text>
<text text-anchor="start" x="941.5" y="-405.7" font-family="Times,serif" font-size="14.00"> &#160;&#160;previous: IRegistry</text>
<text text-anchor="start" x="941.5" y="-388.9" font-family="Times,serif" font-size="14.00"> &#160;&#160;initialized: bool</text>
<polyline fill="none" stroke="black" points="933.5,-380.7 1307.6,-380.7 "/>
<text text-anchor="start" x="941.5" y="-364.1" font-family="Times,serif" font-size="14.00">Internal:</text>
<text text-anchor="start" x="941.5" y="-347.3" font-family="Times,serif" font-size="14.00"> &#160;&#160;&#160;_mintCreate(_owner: address, _args: bytes): uint256</text>
<text text-anchor="start" x="941.5" y="-330.5" font-family="Times,serif" font-size="14.00"> &#160;&#160;&#160;_mintPredict(_owner: address, _args: bytes): uint256</text>
<text text-anchor="start" x="941.5" y="-313.7" font-family="Times,serif" font-size="14.00">External:</text>
<text text-anchor="start" x="941.5" y="-296.9" font-family="Times,serif" font-size="14.00"> &#160;&#160;&#160;initialize(_previous: address) &lt;&lt;onlyOwner&gt;&gt;</text>
<text text-anchor="start" x="941.5" y="-280.1" font-family="Times,serif" font-size="14.00"> &#160;&#160;&#160;setName(_ens: address, _name: string) &lt;&lt;onlyOwner&gt;&gt;</text>
<text text-anchor="start" x="941.5" y="-263.3" font-family="Times,serif" font-size="14.00"> &#160;&#160;&#160;setBaseURI(_baseURI: string) &lt;&lt;onlyOwner&gt;&gt;</text>
<text text-anchor="start" x="941.5" y="-246.5" font-family="Times,serif" font-size="14.00"> &#160;&#160;&#160;isRegistered(_entry: address): bool</text>
<text text-anchor="start" x="941.5" y="-229.7" font-family="Times,serif" font-size="14.00">Public:</text>
<text text-anchor="start" x="941.5" y="-212.9" font-family="Times,serif" font-size="14.00"> &#160;&#160;&#160;constructor(_master: address, _name: string, _symbol: string)</text>
</g>
<!-- 1&#45;&gt;0 -->
<g id="edge1" class="edge">
<title>1&#45;&gt;0</title>
<path fill="none" stroke="black" stroke-dasharray="5,2" d="M1120.55,-548.02C1120.55,-638.76 1120.55,-745.96 1120.55,-817.27"/>
<polygon fill="none" stroke="black" points="1110.05,-817.32 1120.55,-847.32 1131.05,-817.32 1110.05,-817.32"/>
</g>
<!-- 2 -->
<g id="node3" class="node">
<title>2</title>
<polygon fill="#f2f2f2" stroke="black" points="1411.05,-584.9 1411.05,-810.5 1756.05,-810.5 1756.05,-584.9 1411.05,-584.9"/>
<text text-anchor="middle" x="1583.55" y="-793.9" font-family="Times,serif" font-size="14.00">&lt;&lt;Abstract&gt;&gt;</text>
<text text-anchor="middle" x="1583.55" y="-777.1" font-family="Times,serif" font-size="14.00">RegistryEntry</text>
<text text-anchor="middle" x="1583.55" y="-760.3" font-family="Times,serif" font-size="14.00">contracts/registries/RegistryEntry.sol</text>
<polyline fill="none" stroke="black" points="1411.05,-752.1 1756.05,-752.1 "/>
<text text-anchor="start" x="1419.05" y="-735.5" font-family="Times,serif" font-size="14.00">Public:</text>
<text text-anchor="start" x="1419.05" y="-718.7" font-family="Times,serif" font-size="14.00"> &#160;&#160;registry: IRegistry</text>
<polyline fill="none" stroke="black" points="1411.05,-710.5 1756.05,-710.5 "/>
<text text-anchor="start" x="1419.05" y="-693.9" font-family="Times,serif" font-size="14.00">Internal:</text>
<text text-anchor="start" x="1419.05" y="-677.1" font-family="Times,serif" font-size="14.00"> &#160;&#160;&#160;_initialize(_registry: address)</text>
<text text-anchor="start" x="1419.05" y="-660.3" font-family="Times,serif" font-size="14.00">External:</text>
<text text-anchor="start" x="1419.05" y="-643.5" font-family="Times,serif" font-size="14.00"> &#160;&#160;&#160;setName(_ens: address, _name: string) &lt;&lt;onlyOwner&gt;&gt;</text>
<text text-anchor="start" x="1419.05" y="-626.7" font-family="Times,serif" font-size="14.00">Public:</text>
<text text-anchor="start" x="1419.05" y="-609.9" font-family="Times,serif" font-size="14.00"> &#160;&#160;&#160;&lt;&lt;modifier&gt;&gt; onlyOwner()</text>
<text text-anchor="start" x="1419.05" y="-593.1" font-family="Times,serif" font-size="14.00"> &#160;&#160;&#160;owner(): address</text>
</g>
<!-- 2&#45;&gt;0 -->
<g id="edge2" class="edge">
<title>2&#45;&gt;0</title>
<path fill="none" stroke="black" d="M1410.82,-772.49C1355.66,-796.06 1295.74,-821.66 1244.73,-843.45"/>
<polygon fill="black" stroke="black" points="1243.14,-840.32 1235.32,-847.47 1245.89,-846.76 1243.14,-840.32"/>
</g>
<!-- 3 -->
<g id="node4" class="node">
<title>3</title>
<polygon fill="#f2f2f2" stroke="black" points="215.59,-280.3 215.59,-472.3 915.51,-472.3 915.51,-280.3 215.59,-280.3"/>
<text text-anchor="middle" x="565.55" y="-455.7" font-family="Times,serif" font-size="14.00">App</text>
<text text-anchor="middle" x="565.55" y="-438.9" font-family="Times,serif" font-size="14.00">contracts/registries/apps/App.sol</text>
<polyline fill="none" stroke="black" points="215.59,-430.7 915.51,-430.7 "/>
<text text-anchor="start" x="223.59" y="-414.1" font-family="Times,serif" font-size="14.00">Public:</text>
<text text-anchor="start" x="223.59" y="-397.3" font-family="Times,serif" font-size="14.00"> &#160;&#160;m_appName: string</text>
<text text-anchor="start" x="223.59" y="-380.5" font-family="Times,serif" font-size="14.00"> &#160;&#160;m_appType: string</text>
<text text-anchor="start" x="223.59" y="-363.7" font-family="Times,serif" font-size="14.00"> &#160;&#160;m_appMultiaddr: bytes</text>
<text text-anchor="start" x="223.59" y="-346.9" font-family="Times,serif" font-size="14.00"> &#160;&#160;m_appChecksum: bytes32</text>
<text text-anchor="start" x="223.59" y="-330.1" font-family="Times,serif" font-size="14.00"> &#160;&#160;m_appMREnclave: bytes</text>
<polyline fill="none" stroke="black" points="215.59,-321.9 915.51,-321.9 "/>
<text text-anchor="start" x="223.59" y="-305.3" font-family="Times,serif" font-size="14.00">Public:</text>
<text text-anchor="start" x="223.59" y="-288.5" font-family="Times,serif" font-size="14.00"> &#160;&#160;&#160;initialize(_appName: string, _appType: string, _appMultiaddr: bytes, _appChecksum: bytes32, _appMREnclave: bytes)</text>
</g>
<!-- 3&#45;&gt;2 -->
<g id="edge3" class="edge">
<title>3&#45;&gt;2</title>
<path fill="none" stroke="black" d="M744.87,-472.42C801.27,-499.7 864.52,-527.63 924.55,-548.4 1074.18,-600.16 1249.28,-638.57 1381.36,-663.32"/>
<polygon fill="none" stroke="black" points="1379.58,-673.67 1410.99,-668.78 1383.39,-653.02 1379.58,-673.67"/>
</g>
<!-- 4 -->
<g id="node5" class="node">
<title>4</title>
<polygon fill="#f2f2f2" stroke="black" points="0,-0.5 0,-167.7 867.1,-167.7 867.1,-0.5 0,-0.5"/>
<text text-anchor="middle" x="433.55" y="-151.1" font-family="Times,serif" font-size="14.00">AppRegistry</text>
<text text-anchor="middle" x="433.55" y="-134.3" font-family="Times,serif" font-size="14.00">contracts/registries/apps/AppRegistry.sol</text>
<polyline fill="none" stroke="black" points="0,-126.1 867.1,-126.1 "/>
<text text-anchor="start" x="8" y="-109.5" font-family="Times,serif" font-size="14.00">Internal:</text>
<text text-anchor="start" x="8" y="-92.7" font-family="Times,serif" font-size="14.00"> &#160;&#160;&#160;encodeInitializer(_appName: string, _appType: string, _appMultiaddr: bytes, _appChecksum: bytes32, _appMREnclave: bytes): bytes</text>
<text text-anchor="start" x="8" y="-75.9" font-family="Times,serif" font-size="14.00">External:</text>
<text text-anchor="start" x="8" y="-59.1" font-family="Times,serif" font-size="14.00"> &#160;&#160;&#160;createApp(_appOwner: address, _appName: string, _appType: string, _appMultiaddr: bytes, _appChecksum: bytes32, _appMREnclave: bytes): App</text>
<text text-anchor="start" x="8" y="-42.3" font-family="Times,serif" font-size="14.00"> &#160;&#160;&#160;predictApp(_appOwner: address, _appName: string, _appType: string, _appMultiaddr: bytes, _appChecksum: bytes32, _appMREnclave: bytes): App</text>
<text text-anchor="start" x="8" y="-25.5" font-family="Times,serif" font-size="14.00">Public:</text>
<text text-anchor="start" x="8" y="-8.7" font-family="Times,serif" font-size="14.00"> &#160;&#160;&#160;constructor()</text>
</g>
<!-- 4&#45;&gt;1 -->
<g id="edge4" class="edge">
<title>4&#45;&gt;1</title>
<path fill="none" stroke="black" d="M841.76,-167.75C862.66,-175.6 883.18,-184.17 906.35,-195.34"/>
<polygon fill="none" stroke="black" points="901.73,-204.77 933.25,-208.87 911.17,-186.01 901.73,-204.77"/>
</g>
<!-- 4&#45;&gt;3 -->
<g id="edge5" class="edge">
<title>4&#45;&gt;3</title>
<path fill="none" stroke="black" stroke-dasharray="5,2" d="M471.2,-167.87C485.76,-199.88 502.59,-236.88 517.97,-270.69"/>
<polygon fill="black" stroke="black" points="514.94,-272.48 522.26,-280.13 521.31,-269.58 514.94,-272.48"/>
</g>
<!-- 5 -->
<g id="node6" class="node">
<title>5</title>
<polygon fill="#f2f2f2" stroke="black" points="1325.75,-297.1 1325.75,-455.5 1841.35,-455.5 1841.35,-297.1 1325.75,-297.1"/>
<text text-anchor="middle" x="1583.55" y="-438.9" font-family="Times,serif" font-size="14.00">Dataset</text>
<text text-anchor="middle" x="1583.55" y="-422.1" font-family="Times,serif" font-size="14.00">contracts/registries/datasets/Dataset.sol</text>
<polyline fill="none" stroke="black" points="1325.75,-413.9 1841.35,-413.9 "/>
<text text-anchor="start" x="1333.75" y="-397.3" font-family="Times,serif" font-size="14.00">Public:</text>
<text text-anchor="start" x="1333.75" y="-380.5" font-family="Times,serif" font-size="14.00"> &#160;&#160;m_datasetName: string</text>
<text text-anchor="start" x="1333.75" y="-363.7" font-family="Times,serif" font-size="14.00"> &#160;&#160;m_datasetMultiaddr: bytes</text>
<text text-anchor="start" x="1333.75" y="-346.9" font-family="Times,serif" font-size="14.00"> &#160;&#160;m_datasetChecksum: bytes32</text>
<polyline fill="none" stroke="black" points="1325.75,-338.7 1841.35,-338.7 "/>
<text text-anchor="start" x="1333.75" y="-322.1" font-family="Times,serif" font-size="14.00">Public:</text>
<text text-anchor="start" x="1333.75" y="-305.3" font-family="Times,serif" font-size="14.00"> &#160;&#160;&#160;initialize(_datasetName: string, _datasetMultiaddr: bytes, _datasetChecksum: bytes32)</text>
</g>
<!-- 5&#45;&gt;2 -->
<g id="edge6" class="edge">
<title>5&#45;&gt;2</title>
<path fill="none" stroke="black" d="M1583.55,-455.84C1583.55,-485.69 1583.55,-520.69 1583.55,-554.62"/>
<polygon fill="none" stroke="black" points="1573.05,-554.65 1583.55,-584.65 1594.05,-554.65 1573.05,-554.65"/>
</g>
<!-- 6 -->
<g id="node7" class="node">
<title>6</title>
<polygon fill="#f2f2f2" stroke="black" points="884.96,-0.5 884.96,-167.7 1622.14,-167.7 1622.14,-0.5 884.96,-0.5"/>
<text text-anchor="middle" x="1253.55" y="-151.1" font-family="Times,serif" font-size="14.00">DatasetRegistry</text>
<text text-anchor="middle" x="1253.55" y="-134.3" font-family="Times,serif" font-size="14.00">contracts/registries/datasets/DatasetRegistry.sol</text>
<polyline fill="none" stroke="black" points="884.96,-126.1 1622.14,-126.1 "/>
<text text-anchor="start" x="892.96" y="-109.5" font-family="Times,serif" font-size="14.00">Internal:</text>
<text text-anchor="start" x="892.96" y="-92.7" font-family="Times,serif" font-size="14.00"> &#160;&#160;&#160;encodeInitializer(_datasetName: string, _datasetMultiaddr: bytes, _datasetChecksum: bytes32): bytes</text>
<text text-anchor="start" x="892.96" y="-75.9" font-family="Times,serif" font-size="14.00">External:</text>
<text text-anchor="start" x="892.96" y="-59.1" font-family="Times,serif" font-size="14.00"> &#160;&#160;&#160;createDataset(_datasetOwner: address, _datasetName: string, _datasetMultiaddr: bytes, _datasetChecksum: bytes32): Dataset</text>
<text text-anchor="start" x="892.96" y="-42.3" font-family="Times,serif" font-size="14.00"> &#160;&#160;&#160;predictDataset(_datasetOwner: address, _datasetName: string, _datasetMultiaddr: bytes, _datasetChecksum: bytes32): Dataset</text>
<text text-anchor="start" x="892.96" y="-25.5" font-family="Times,serif" font-size="14.00">Public:</text>
<text text-anchor="start" x="892.96" y="-8.7" font-family="Times,serif" font-size="14.00"> &#160;&#160;&#160;constructor()</text>
</g>
<!-- 6&#45;&gt;1 -->
<g id="edge7" class="edge">
<title>6&#45;&gt;1</title>
<path fill="none" stroke="black" d="M1215.62,-167.87C1214.19,-170.99 1212.74,-174.15 1211.27,-177.35"/>
<polygon fill="none" stroke="black" points="1201.71,-173.01 1198.76,-204.66 1220.8,-181.76 1201.71,-173.01"/>
</g>
<!-- 6&#45;&gt;5 -->
<g id="edge8" class="edge">
<title>6&#45;&gt;5</title>
<path fill="none" stroke="black" stroke-dasharray="5,2" d="M1347.67,-167.87C1391.26,-206.2 1442.98,-251.68 1486.87,-290.28"/>
<polygon fill="black" stroke="black" points="1484.59,-292.93 1494.41,-296.91 1489.21,-287.68 1484.59,-292.93"/>
</g>
<!-- 7 -->
<g id="node8" class="node">
<title>7</title>
<polygon fill="#f2f2f2" stroke="black" points="2220.98,-25.7 2220.98,-142.5 2530.12,-142.5 2530.12,-25.7 2220.98,-25.7"/>
<text text-anchor="middle" x="2375.55" y="-125.9" font-family="Times,serif" font-size="14.00">&lt;&lt;Interface&gt;&gt;</text>
<text text-anchor="middle" x="2375.55" y="-109.1" font-family="Times,serif" font-size="14.00">IWorkerpool</text>
<text text-anchor="middle" x="2375.55" y="-92.3" font-family="Times,serif" font-size="14.00">contracts/registries/workerpools/IWorkerpool.v8.sol</text>
<polyline fill="none" stroke="black" points="2220.98,-84.1 2530.12,-84.1 "/>
<text text-anchor="start" x="2228.98" y="-67.5" font-family="Times,serif" font-size="14.00">External:</text>
<text text-anchor="start" x="2228.98" y="-50.7" font-family="Times,serif" font-size="14.00"> &#160;&#160;&#160;&#160;m_schedulerRewardRatioPolicy(): uint256</text>
<text text-anchor="start" x="2228.98" y="-33.9" font-family="Times,serif" font-size="14.00"> &#160;&#160;&#160;&#160;m_workerStakeRatioPolicy(): uint256</text>
</g>
<!-- 8 -->
<g id="node9" class="node">
<title>8</title>
<polygon fill="#f2f2f2" stroke="black" points="1859.44,-271.9 1859.44,-480.7 2955.66,-480.7 2955.66,-271.9 1859.44,-271.9"/>
<text text-anchor="middle" x="2407.55" y="-464.1" font-family="Times,serif" font-size="14.00">Workerpool</text>
<text text-anchor="middle" x="2407.55" y="-447.3" font-family="Times,serif" font-size="14.00">contracts/registries/workerpools/Workerpool.sol</text>
<polyline fill="none" stroke="black" points="1859.44,-439.1 2955.66,-439.1 "/>
<text text-anchor="start" x="1867.44" y="-422.5" font-family="Times,serif" font-size="14.00">Public:</text>
<text text-anchor="start" x="1867.44" y="-405.7" font-family="Times,serif" font-size="14.00"> &#160;&#160;m_workerpoolDescription: string</text>
<text text-anchor="start" x="1867.44" y="-388.9" font-family="Times,serif" font-size="14.00"> &#160;&#160;m_workerStakeRatioPolicy: uint256</text>
<text text-anchor="start" x="1867.44" y="-372.1" font-family="Times,serif" font-size="14.00"> &#160;&#160;m_schedulerRewardRatioPolicy: uint256</text>
<polyline fill="none" stroke="black" points="1859.44,-363.9 2955.66,-363.9 "/>
<text text-anchor="start" x="1867.44" y="-347.3" font-family="Times,serif" font-size="14.00">External:</text>
<text text-anchor="start" x="1867.44" y="-330.5" font-family="Times,serif" font-size="14.00"> &#160;&#160;&#160;changePolicy(_newWorkerStakeRatioPolicy: uint256, _newSchedulerRewardRatioPolicy: uint256) &lt;&lt;onlyOwner&gt;&gt;</text>
<text text-anchor="start" x="1867.44" y="-313.7" font-family="Times,serif" font-size="14.00">Public:</text>
<text text-anchor="start" x="1867.44" y="-296.9" font-family="Times,serif" font-size="14.00"> &#160;&#160;&#160;&lt;&lt;event&gt;&gt; PolicyUpdate(oldWorkerStakeRatioPolicy: uint256, newWorkerStakeRatioPolicy: uint256, oldSchedulerRewardRatioPolicy: uint256, newSchedulerRewardRatioPolicy: uint256)</text>
<text text-anchor="start" x="1867.44" y="-280.1" font-family="Times,serif" font-size="14.00"> &#160;&#160;&#160;initialize(_workerpoolDescription: string)</text>
</g>
<!-- 8&#45;&gt;2 -->
<g id="edge9" class="edge">
<title>8&#45;&gt;2</title>
<path fill="none" stroke="black" d="M2140.59,-480.78C2024.84,-525.65 1891.58,-577.3 1784.43,-618.84"/>
<polygon fill="none" stroke="black" points="1780.53,-609.08 1756.36,-629.72 1788.12,-628.66 1780.53,-609.08"/>
</g>
<!-- 9 -->
<g id="node10" class="node">
<title>9</title>
<polygon fill="#f2f2f2" stroke="black" points="1640.04,-0.5 1640.04,-167.7 2203.06,-167.7 2203.06,-0.5 1640.04,-0.5"/>
<text text-anchor="middle" x="1921.55" y="-151.1" font-family="Times,serif" font-size="14.00">WorkerpoolRegistry</text>
<text text-anchor="middle" x="1921.55" y="-134.3" font-family="Times,serif" font-size="14.00">contracts/registries/workerpools/WorkerpoolRegistry.sol</text>
<polyline fill="none" stroke="black" points="1640.04,-126.1 2203.06,-126.1 "/>
<text text-anchor="start" x="1648.04" y="-109.5" font-family="Times,serif" font-size="14.00">Internal:</text>
<text text-anchor="start" x="1648.04" y="-92.7" font-family="Times,serif" font-size="14.00"> &#160;&#160;&#160;encodeInitializer(_workerpoolDescription: string): bytes</text>
<text text-anchor="start" x="1648.04" y="-75.9" font-family="Times,serif" font-size="14.00">External:</text>
<text text-anchor="start" x="1648.04" y="-59.1" font-family="Times,serif" font-size="14.00"> &#160;&#160;&#160;createWorkerpool(_workerpoolOwner: address, _workerpoolDescription: string): Workerpool</text>
<text text-anchor="start" x="1648.04" y="-42.3" font-family="Times,serif" font-size="14.00"> &#160;&#160;&#160;predictWorkerpool(_workerpoolOwner: address, _workerpoolDescription: string): Workerpool</text>
<text text-anchor="start" x="1648.04" y="-25.5" font-family="Times,serif" font-size="14.00">Public:</text>
<text text-anchor="start" x="1648.04" y="-8.7" font-family="Times,serif" font-size="14.00"> &#160;&#160;&#160;constructor()</text>
</g>
<!-- 9&#45;&gt;1 -->
<g id="edge10" class="edge">
<title>9&#45;&gt;1</title>
<path fill="none" stroke="black" d="M1639.67,-166.55C1636.96,-167.11 1634.25,-167.66 1631.55,-168.2 1503.07,-193.77 1452.64,-153.72 1335.41,-197.03"/>
<polygon fill="none" stroke="black" points="1331.43,-187.31 1307.6,-208.35 1339.35,-206.76 1331.43,-187.31"/>
</g>
<!-- 9&#45;&gt;8 -->
<g id="edge11" class="edge">
<title>9&#45;&gt;8</title>
<path fill="none" stroke="black" stroke-dasharray="5,2" d="M2060.17,-167.87C2111.57,-198.56 2170.66,-233.85 2225.36,-266.51"/>
<polygon fill="black" stroke="black" points="2223.72,-269.61 2234.1,-271.73 2227.31,-263.6 2223.72,-269.61"/>
</g>
</g>
</svg>
