<?xml version="1.0" encoding="UTF-8" standalone="no"?>
<!DOCTYPE svg PUBLIC "-//W3C//DTD SVG 1.1//EN"
 "http://www.w3.org/Graphics/SVG/1.1/DTD/svg11.dtd">
<!-- Generated by graphviz version 5.0.0 (20220707.1540)
 -->
<!-- Title: StorageDiagram Pages: 1 -->
<svg width="2514pt" height="728pt"
 viewBox="0.00 0.00 2513.97 728.20" xmlns="http://www.w3.org/2000/svg" xmlns:xlink="http://www.w3.org/1999/xlink">
<g id="graph0" class="graph" transform="scale(1 1) rotate(0) translate(4 724.2)">
<title>StorageDiagram</title>
<polygon fill="white" stroke="transparent" points="-4,4 -4,-724.2 2509.97,-724.2 2509.97,4 -4,4"/>
<!-- 5 -->
<g id="node1" class="node">
<title>5</title>
<polygon fill="#f2f2f2" stroke="black" points="0,-0.5 0,-719.7 838.53,-719.7 838.53,-0.5 0,-0.5"/>
<text text-anchor="middle" x="419.27" y="-703.1" font-family="Courier New" font-size="14.00">IexecPocoBoostDelegate &lt;&lt;Contract&gt;&gt;</text>
<polyline fill="none" stroke="black" points="0,-694.9 838.53,-694.9 "/>
<text text-anchor="middle" x="24.8" y="-678.3" font-family="Courier New" font-size="14.00">slot</text>
<polyline fill="none" stroke="black" points="0,-670.1 49.61,-670.1 "/>
<text text-anchor="middle" x="24.8" y="-653.5" font-family="Courier New" font-size="14.00">0</text>
<polyline fill="none" stroke="black" points="0,-645.3 49.61,-645.3 "/>
<text text-anchor="middle" x="24.8" y="-628.7" font-family="Courier New" font-size="14.00">1&#45;4</text>
<polyline fill="none" stroke="black" points="0,-620.5 49.61,-620.5 "/>
<text text-anchor="middle" x="24.8" y="-603.9" font-family="Courier New" font-size="14.00">5</text>
<polyline fill="none" stroke="black" points="0,-595.7 49.61,-595.7 "/>
<text text-anchor="middle" x="24.8" y="-579.1" font-family="Courier New" font-size="14.00">6</text>
<polyline fill="none" stroke="black" points="0,-570.9 49.61,-570.9 "/>
<text text-anchor="middle" x="24.8" y="-554.3" font-family="Courier New" font-size="14.00">7</text>
<polyline fill="none" stroke="black" points="0,-546.1 49.61,-546.1 "/>
<text text-anchor="middle" x="24.8" y="-529.5" font-family="Courier New" font-size="14.00">8</text>
<polyline fill="none" stroke="black" points="0,-521.3 49.61,-521.3 "/>
<text text-anchor="middle" x="24.8" y="-504.7" font-family="Courier New" font-size="14.00">9</text>
<polyline fill="none" stroke="black" points="0,-496.5 49.61,-496.5 "/>
<text text-anchor="middle" x="24.8" y="-479.9" font-family="Courier New" font-size="14.00">10</text>
<polyline fill="none" stroke="black" points="0,-471.7 49.61,-471.7 "/>
<text text-anchor="middle" x="24.8" y="-455.1" font-family="Courier New" font-size="14.00">11</text>
<polyline fill="none" stroke="black" points="0,-446.9 49.61,-446.9 "/>
<text text-anchor="middle" x="24.8" y="-430.3" font-family="Courier New" font-size="14.00">12</text>
<polyline fill="none" stroke="black" points="0,-422.1 49.61,-422.1 "/>
<text text-anchor="middle" x="24.8" y="-405.5" font-family="Courier New" font-size="14.00">13</text>
<polyline fill="none" stroke="black" points="0,-397.3 49.61,-397.3 "/>
<text text-anchor="middle" x="24.8" y="-380.7" font-family="Courier New" font-size="14.00">14</text>
<polyline fill="none" stroke="black" points="0,-372.5 49.61,-372.5 "/>
<text text-anchor="middle" x="24.8" y="-355.9" font-family="Courier New" font-size="14.00">15</text>
<polyline fill="none" stroke="black" points="0,-347.7 49.61,-347.7 "/>
<text text-anchor="middle" x="24.8" y="-331.1" font-family="Courier New" font-size="14.00">16</text>
<polyline fill="none" stroke="black" points="0,-322.9 49.61,-322.9 "/>
<text text-anchor="middle" x="24.8" y="-306.3" font-family="Courier New" font-size="14.00">17</text>
<polyline fill="none" stroke="black" points="0,-298.1 49.61,-298.1 "/>
<text text-anchor="middle" x="24.8" y="-281.5" font-family="Courier New" font-size="14.00">18</text>
<polyline fill="none" stroke="black" points="0,-273.3 49.61,-273.3 "/>
<text text-anchor="middle" x="24.8" y="-256.7" font-family="Courier New" font-size="14.00">19</text>
<polyline fill="none" stroke="black" points="0,-248.5 49.61,-248.5 "/>
<text text-anchor="middle" x="24.8" y="-231.9" font-family="Courier New" font-size="14.00">20</text>
<polyline fill="none" stroke="black" points="0,-223.7 49.61,-223.7 "/>
<text text-anchor="middle" x="24.8" y="-207.1" font-family="Courier New" font-size="14.00">21</text>
<polyline fill="none" stroke="black" points="0,-198.9 49.61,-198.9 "/>
<text text-anchor="middle" x="24.8" y="-182.3" font-family="Courier New" font-size="14.00">22</text>
<polyline fill="none" stroke="black" points="0,-174.1 49.61,-174.1 "/>
<text text-anchor="middle" x="24.8" y="-157.5" font-family="Courier New" font-size="14.00">23</text>
<polyline fill="none" stroke="black" points="0,-149.3 49.61,-149.3 "/>
<text text-anchor="middle" x="24.8" y="-132.7" font-family="Courier New" font-size="14.00">24</text>
<polyline fill="none" stroke="black" points="0,-124.5 49.61,-124.5 "/>
<text text-anchor="middle" x="24.8" y="-107.9" font-family="Courier New" font-size="14.00">25</text>
<polyline fill="none" stroke="black" points="0,-99.7 49.61,-99.7 "/>
<text text-anchor="middle" x="24.8" y="-83.1" font-family="Courier New" font-size="14.00">26</text>
<polyline fill="none" stroke="black" points="0,-74.9 49.61,-74.9 "/>
<text text-anchor="middle" x="24.8" y="-58.3" font-family="Courier New" font-size="14.00">27</text>
<polyline fill="none" stroke="black" points="0,-50.1 49.61,-50.1 "/>
<text text-anchor="middle" x="24.8" y="-33.5" font-family="Courier New" font-size="14.00">28</text>
<polyline fill="none" stroke="black" points="0,-25.3 49.61,-25.3 "/>
<text text-anchor="middle" x="24.8" y="-8.7" font-family="Courier New" font-size="14.00">29</text>
<polyline fill="none" stroke="black" points="49.61,-0.5 49.61,-694.9 "/>
<text text-anchor="middle" x="444.07" y="-678.3" font-family="Courier New" font-size="14.00">type: &lt;inherited contract&gt;.variable (bytes)</text>
<polyline fill="none" stroke="black" points="49.61,-670.1 838.53,-670.1 "/>
<text text-anchor="middle" x="221.32" y="-653.5" font-family="Courier New" font-size="14.00">unallocated (12)</text>
<polyline fill="none" stroke="black" points="393.03,-645.3 393.03,-670.1 "/>
<text text-anchor="middle" x="615.65" y="-653.5" font-family="Courier New" font-size="14.00">address: Ownable._owner (20)</text>
<polyline fill="none" stroke="black" points="49.61,-645.3 838.53,-645.3 "/>
<text text-anchor="middle" x="443.65" y="-628.7" font-family="Courier New" font-size="14.00">LibMap2_bytes4_address_bytes.map: ERC1538Store.m_funcs (128)</text>
<polyline fill="none" stroke="black" points="49.61,-620.5 838.53,-620.5 "/>
<text text-anchor="middle" x="206.82" y="-603.9" font-family="Courier New" font-size="14.00">unallocated (12)</text>
<polyline fill="none" stroke="black" points="364.03,-595.7 364.03,-620.5 "/>
<text text-anchor="middle" x="601.05" y="-603.9" font-family="Courier New" font-size="14.00">IRegistry: Store.m_appregistry (20)</text>
<polyline fill="none" stroke="black" points="49.61,-595.7 838.53,-595.7 "/>
<text text-anchor="middle" x="198.32" y="-579.1" font-family="Courier New" font-size="14.00">unallocated (12)</text>
<polyline fill="none" stroke="black" points="347.03,-570.9 347.03,-595.7 "/>
<text text-anchor="middle" x="592.35" y="-579.1" font-family="Courier New" font-size="14.00">IRegistry: Store.m_datasetregistry (20)</text>
<polyline fill="none" stroke="black" points="49.61,-570.9 838.53,-570.9 "/>
<text text-anchor="middle" x="191.82" y="-554.3" font-family="Courier New" font-size="14.00">unallocated (12)</text>
<polyline fill="none" stroke="black" points="334.03,-546.1 334.03,-570.9 "/>
<text text-anchor="middle" x="585.96" y="-554.3" font-family="Courier New" font-size="14.00">IRegistry: Store.m_workerpoolregistry (20)</text>
<polyline fill="none" stroke="black" points="49.61,-546.1 838.53,-546.1 "/>
<text text-anchor="middle" x="217.32" y="-529.5" font-family="Courier New" font-size="14.00">unallocated (12)</text>
<polyline fill="none" stroke="black" points="385.03,-521.3 385.03,-546.1 "/>
<text text-anchor="middle" x="611.55" y="-529.5" font-family="Courier New" font-size="14.00">IERC20: Store.m_baseToken (20)</text>
<polyline fill="none" stroke="black" points="49.61,-521.3 838.53,-521.3 "/>
<text text-anchor="middle" x="443.62" y="-504.7" font-family="Courier New" font-size="14.00">string: Store.m_name (32)</text>
<polyline fill="none" stroke="black" points="49.61,-496.5 838.53,-496.5 "/>
<text text-anchor="middle" x="444.02" y="-479.9" font-family="Courier New" font-size="14.00">string: Store.m_symbol (32)</text>
<polyline fill="none" stroke="black" points="49.61,-471.7 838.53,-471.7 "/>
<text text-anchor="middle" x="223.32" y="-455.1" font-family="Courier New" font-size="14.00">unallocated (31)</text>
<polyline fill="none" stroke="black" points="397.03,-446.9 397.03,-471.7 "/>
<text text-anchor="middle" x="617.45" y="-455.1" font-family="Courier New" font-size="14.00">uint8: Store.m_decimals (1)</text>
<polyline fill="none" stroke="black" points="49.61,-446.9 838.53,-446.9 "/>
<text text-anchor="middle" x="443.73" y="-430.3" font-family="Courier New" font-size="14.00">uint256: Store.m_totalSupply (32)</text>
<polyline fill="none" stroke="black" points="49.61,-422.1 838.53,-422.1 "/>
<text text-anchor="middle" x="443.74" y="-405.5" font-family="Courier New" font-size="14.00">mapping(address=&gt;uint256): Store.m_balances (32)</text>
<polyline fill="none" stroke="black" points="49.61,-397.3 838.53,-397.3 "/>
<text text-anchor="middle" x="444.04" y="-380.7" font-family="Courier New" font-size="14.00">mapping(address=&gt;uint256): Store.m_frozens (32)</text>
<polyline fill="none" stroke="black" points="49.61,-372.5 838.53,-372.5 "/>
<text text-anchor="middle" x="443.75" y="-355.9" font-family="Courier New" font-size="14.00">mapping(address=&gt;mapping(address=&gt;uint256)): Store.m_allowances (32)</text>
<polyline fill="none" stroke="black" points="49.61,-347.7 838.53,-347.7 "/>
<text text-anchor="middle" x="444.03" y="-331.1" font-family="Courier New" font-size="14.00">bytes32: Store.EIP712DOMAIN_SEPARATOR (32)</text>
<polyline fill="none" stroke="black" points="49.61,-322.9 838.53,-322.9 "/>
<text text-anchor="middle" x="443.94" y="-306.3" font-family="Courier New" font-size="14.00">mapping(bytes32=&gt;address): Store.m_presigned (32)</text>
<polyline fill="none" stroke="black" points="49.61,-298.1 838.53,-298.1 "/>
<text text-anchor="middle" x="443.74" y="-281.5" font-family="Courier New" font-size="14.00">mapping(bytes32=&gt;uint256): Store.m_consumed (32)</text>
<polyline fill="none" stroke="black" points="49.61,-273.3 838.53,-273.3 "/>
<text text-anchor="middle" x="443.75" y="-256.7" font-family="Courier New" font-size="14.00">mapping(bytes32=&gt;IexecLibCore_v5.Deal): Store.m_deals (32)</text>
<polyline fill="none" stroke="black" points="49.61,-248.5 838.53,-248.5 "/>
<text text-anchor="middle" x="443.75" y="-231.9" font-family="Courier New" font-size="14.00">mapping(bytes32=&gt;IexecLibCore_v5.Task): Store.m_tasks (32)</text>
<polyline fill="none" stroke="black" points="49.61,-223.7 838.53,-223.7 "/>
<text text-anchor="middle" x="444.05" y="-207.1" font-family="Courier New" font-size="14.00">mapping(bytes32=&gt;IexecLibCore_v5.Consensus): Store.m_consensus (32)</text>
<polyline fill="none" stroke="black" points="49.61,-198.9 838.53,-198.9 "/>
<text text-anchor="middle" x="444.07" y="-182.3" font-family="Courier New" font-size="14.00">mapping(bytes32=&gt;mapping(address=&gt;IexecLibCore_v5.Contribution)): Store.m_contributions (32)</text>
<polyline fill="none" stroke="black" points="49.61,-174.1 838.53,-174.1 "/>
<text text-anchor="middle" x="444.04" y="-157.5" font-family="Courier New" font-size="14.00">mapping(address=&gt;uint256): Store.m_workerScores (32)</text>
<polyline fill="none" stroke="black" points="49.61,-149.3 838.53,-149.3 "/>
<text text-anchor="middle" x="215.32" y="-132.7" font-family="Courier New" font-size="14.00">unallocated (12)</text>
<polyline fill="none" stroke="black" points="381.03,-124.5 381.03,-149.3 "/>
<text text-anchor="middle" x="609.75" y="-132.7" font-family="Courier New" font-size="14.00">address: Store.m_teebroker (20)</text>
<polyline fill="none" stroke="black" points="49.61,-124.5 838.53,-124.5 "/>
<text text-anchor="middle" x="443.73" y="-107.9" font-family="Courier New" font-size="14.00">uint256: Store.m_callbackgas (32)</text>
<polyline fill="none" stroke="black" points="49.61,-99.7 838.53,-99.7 "/>
<text text-anchor="middle" x="443.84" y="-83.1" font-family="Courier New" font-size="14.00">IexecLibCore_v5.Category[]: Store.m_categories (32)</text>
<polyline fill="none" stroke="black" points="49.61,-74.9 838.53,-74.9 "/>
<text text-anchor="middle" x="210.82" y="-58.3" font-family="Courier New" font-size="14.00">unallocated (12)</text>
<polyline fill="none" stroke="black" points="372.03,-50.1 372.03,-74.9 "/>
<text text-anchor="middle" x="605.15" y="-58.3" font-family="Courier New" font-size="14.00">address: Store.m_v3_iexecHub (20)</text>
<polyline fill="none" stroke="black" points="49.61,-50.1 838.53,-50.1 "/>
<text text-anchor="middle" x="443.74" y="-33.5" font-family="Courier New" font-size="14.00">mapping(address=&gt;bool): Store.m_v3_scoreImported (32)</text>
<polyline fill="none" stroke="black" points="49.61,-25.3 838.53,-25.3 "/>
<text text-anchor="middle" x="443.75" y="-8.7" font-family="Courier New" font-size="14.00">mapping(bytes32=&gt;IexecLibCore_v5.DealBoost): Store.m_dealsBoost (32)</text>
</g>
<!-- 3 -->
<g id="node4" class="node">
<title>3</title>
<polygon fill="#f2f2f2" stroke="black" points="950.54,-571.1 950.54,-695.1 1369.01,-695.1 1369.01,-571.1 950.54,-571.1"/>
<text text-anchor="middle" x="1159.78" y="-678.5" font-family="Courier New" font-size="14.00">LibMap2_bytes4_address_bytes.map &lt;&lt;Struct&gt;&gt;</text>
<polyline fill="none" stroke="black" points="950.54,-670.3 1369.01,-670.3 "/>
<text text-anchor="middle" x="975.35" y="-653.7" font-family="Courier New" font-size="14.00">slot</text>
<polyline fill="none" stroke="black" points="950.54,-645.5 1000.15,-645.5 "/>
<text text-anchor="middle" x="975.35" y="-628.9" font-family="Courier New" font-size="14.00">1&#45;2</text>
<polyline fill="none" stroke="black" points="950.54,-620.7 1000.15,-620.7 "/>
<text text-anchor="middle" x="975.35" y="-604.1" font-family="Courier New" font-size="14.00">3</text>
<polyline fill="none" stroke="black" points="950.54,-595.9 1000.15,-595.9 "/>
<text text-anchor="middle" x="975.35" y="-579.3" font-family="Courier New" font-size="14.00">4</text>
<polyline fill="none" stroke="black" points="1000.15,-571.1 1000.15,-670.3 "/>
<text text-anchor="middle" x="1184.58" y="-653.7" font-family="Courier New" font-size="14.00">type: variable (bytes)</text>
<polyline fill="none" stroke="black" points="1000.15,-645.5 1369.01,-645.5 "/>
<text text-anchor="middle" x="1184.47" y="-628.9" font-family="Courier New" font-size="14.00">LibSet_bytes4.set: map.keyset (64)</text>
<polyline fill="none" stroke="black" points="1000.15,-620.7 1369.01,-620.7 "/>
<text text-anchor="middle" x="1184.58" y="-604.1" font-family="Courier New" font-size="14.00">mapping(bytes4=&gt;address): map.values1 (32)</text>
<polyline fill="none" stroke="black" points="1000.15,-595.9 1369.01,-595.9 "/>
<text text-anchor="middle" x="1184.18" y="-579.3" font-family="Courier New" font-size="14.00">mapping(bytes4=&gt;bytes): map.values2 (32)</text>
</g>
<!-- 5&#45;&gt;3 -->
<g id="edge1" class="edge">
<title>5:8&#45;&gt;3</title>
<path fill="none" stroke="black" d="M838.27,-633.1C871.18,-633.1 906.01,-633.1 940.09,-633.1"/>
<polygon fill="black" stroke="black" points="940.16,-636.6 950.16,-633.1 940.16,-629.6 940.16,-636.6"/>
</g>
<!-- 4 -->
<g id="node5" class="node">
<title>4</title>
<polygon fill="#f2f2f2" stroke="black" points="874.53,-41.5 874.53,-132.7 1445.02,-132.7 1445.02,-41.5 874.53,-41.5"/>
<text text-anchor="middle" x="1159.78" y="-116.1" font-family="Courier New" font-size="14.00">IexecLibCore_v5.Category[]: m_categories &lt;&lt;Array&gt;&gt;</text>
<text text-anchor="middle" x="1159.78" y="-99.3" font-family="Courier New" font-size="14.00">0x057c384a7d1c54f3a1b2e5e67b2617b8224fdfd1ea7234eea573a6ff665ff63e</text>
<polyline fill="none" stroke="black" points="874.53,-91.1 1445.02,-91.1 "/>
<text text-anchor="middle" x="931.24" y="-74.5" font-family="Courier New" font-size="14.00">offset</text>
<polyline fill="none" stroke="black" points="874.53,-66.3 987.94,-66.3 "/>
<text text-anchor="middle" x="931.24" y="-49.7" font-family="Courier New" font-size="14.00">0</text>
<polyline fill="none" stroke="black" points="987.94,-41.5 987.94,-91.1 "/>
<text text-anchor="middle" x="1216.47" y="-74.5" font-family="Courier New" font-size="14.00">type: variable (bytes)</text>
<polyline fill="none" stroke="black" points="987.94,-66.3 1445,-66.3 "/>
<text text-anchor="middle" x="1074.65" y="-49.7" font-family="Courier New" font-size="14.00">unallocated (12)</text>
<polyline fill="none" stroke="black" points="1161.36,-41.5 1161.36,-66.3 "/>
<text text-anchor="middle" x="1303.18" y="-49.7" font-family="Courier New" font-size="14.00">IexecLibCore_v5.Category (20)</text>
</g>
<!-- 5&#45;&gt;4 -->
<g id="edge2" class="edge">
<title>5:31&#45;&gt;4</title>
<path fill="none" stroke="black" d="M838.53,-87.1C846.92,-87.1 855.44,-87.1 864.03,-87.1"/>
<polygon fill="black" stroke="black" points="864.16,-90.6 874.16,-87.1 864.16,-83.6 864.16,-90.6"/>
</g>
<!-- 1 -->
<g id="node2" class="node">
<title>1</title>
<polygon fill="#f2f2f2" stroke="black" points="1935.48,-575.5 1935.48,-666.7 2505.97,-666.7 2505.97,-575.5 1935.48,-575.5"/>
<text text-anchor="middle" x="2220.73" y="-650.1" font-family="Courier New" font-size="14.00">bytes4[]: values &lt;&lt;Array&gt;&gt;</text>
<text text-anchor="middle" x="2220.73" y="-633.3" font-family="Courier New" font-size="14.00">0xb10e2d527612073b26eecdfd717e6a320cf44b4afac2b0732d9fcbe2b7fa0cf6</text>
<polyline fill="none" stroke="black" points="1935.48,-625.1 2505.97,-625.1 "/>
<text text-anchor="middle" x="2031.69" y="-608.5" font-family="Courier New" font-size="14.00">offset</text>
<polyline fill="none" stroke="black" points="1935.48,-600.3 2127.89,-600.3 "/>
<text text-anchor="middle" x="2031.69" y="-583.7" font-family="Courier New" font-size="14.00">0</text>
<polyline fill="none" stroke="black" points="2127.89,-575.5 2127.89,-625.1 "/>
<text text-anchor="middle" x="2316.61" y="-608.5" font-family="Courier New" font-size="14.00">type: variable (bytes)</text>
<polyline fill="none" stroke="black" points="2127.89,-600.3 2505.33,-600.3 "/>
<text text-anchor="middle" x="2234.6" y="-583.7" font-family="Courier New" font-size="14.00">unallocated (28)</text>
<polyline fill="none" stroke="black" points="2341.31,-575.5 2341.31,-600.3 "/>
<text text-anchor="middle" x="2423.32" y="-583.7" font-family="Courier New" font-size="14.00">bytes4 (4)</text>
</g>
<!-- 2 -->
<g id="node3" class="node">
<title>2</title>
<polygon fill="#f2f2f2" stroke="black" points="1481.02,-583.5 1481.02,-682.7 1899.48,-682.7 1899.48,-583.5 1481.02,-583.5"/>
<text text-anchor="middle" x="1690.25" y="-666.1" font-family="Courier New" font-size="14.00">LibSet_bytes4.set &lt;&lt;Struct&gt;&gt;</text>
<polyline fill="none" stroke="black" points="1481.02,-657.9 1899.48,-657.9 "/>
<text text-anchor="middle" x="1505.82" y="-641.3" font-family="Courier New" font-size="14.00">slot</text>
<polyline fill="none" stroke="black" points="1481.02,-633.1 1530.63,-633.1 "/>
<text text-anchor="middle" x="1505.82" y="-616.5" font-family="Courier New" font-size="14.00">1</text>
<polyline fill="none" stroke="black" points="1481.02,-608.3 1530.63,-608.3 "/>
<text text-anchor="middle" x="1505.82" y="-591.7" font-family="Courier New" font-size="14.00">2</text>
<polyline fill="none" stroke="black" points="1530.63,-583.5 1530.63,-657.9 "/>
<text text-anchor="middle" x="1715.06" y="-641.3" font-family="Courier New" font-size="14.00">type: variable (bytes)</text>
<polyline fill="none" stroke="black" points="1530.63,-633.1 1899.48,-633.1 "/>
<text text-anchor="middle" x="1714.64" y="-616.5" font-family="Courier New" font-size="14.00">bytes4[]: set.values (32)</text>
<polyline fill="none" stroke="black" points="1530.63,-608.3 1899.48,-608.3 "/>
<text text-anchor="middle" x="1715.06" y="-591.7" font-family="Courier New" font-size="14.00">mapping(bytes4=&gt;uint256): set.indexes (32)</text>
</g>
<!-- 2&#45;&gt;1 -->
<g id="edge3" class="edge">
<title>2:3&#45;&gt;1</title>
<path fill="none" stroke="black" d="M1899.25,-621.1C1907.75,-621.1 1916.38,-621.1 1925.08,-621.1"/>
<polygon fill="black" stroke="black" points="1925.34,-624.6 1935.34,-621.1 1925.34,-617.6 1925.34,-624.6"/>
</g>
<!-- 3&#45;&gt;2 -->
<g id="edge4" class="edge">
<title>3:5&#45;&gt;2</title>
<path fill="none" stroke="black" d="M1369.78,-633.1C1402.46,-633.1 1437.03,-633.1 1470.88,-633.1"/>
<polygon fill="black" stroke="black" points="1470.88,-636.6 1480.88,-633.1 1470.88,-629.6 1470.88,-636.6"/>
</g>
</g>
</svg>
