<?xml version="1.0" encoding="UTF-8" standalone="no"?>
<!DOCTYPE svg PUBLIC "-//W3C//DTD SVG 1.1//EN"
 "http://www.w3.org/Graphics/SVG/1.1/DTD/svg11.dtd">
<!-- Generated by graphviz version 5.0.0 (20220707.1540)
 -->
<!-- Title: StorageDiagram Pages: 1 -->
<svg width="2157pt" height="194pt"
 viewBox="0.00 0.00 2157.12 193.80" xmlns="http://www.w3.org/2000/svg" xmlns:xlink="http://www.w3.org/1999/xlink">
<g id="graph0" class="graph" transform="scale(1 1) rotate(0) translate(4 189.8)">
<title>StorageDiagram</title>
<polygon fill="white" stroke="transparent" points="-4,4 -4,-189.8 2153.12,-189.8 2153.12,4 -4,4"/>
<!-- 4 -->
<g id="node1" class="node">
<title>4</title>
<polygon fill="#f2f2f2" stroke="black" points="0,-84.9 0,-159.3 460.47,-159.3 460.47,-84.9 0,-84.9"/>
<text text-anchor="middle" x="230.23" y="-142.7" font-family="Courier New" font-size="14.00">DiamondStorageDiagram &lt;&lt;Contract&gt;&gt;</text>
<polyline fill="none" stroke="black" points="0,-134.5 460.47,-134.5 "/>
<text text-anchor="middle" x="24.8" y="-117.9" font-family="Courier New" font-size="14.00">slot</text>
<polyline fill="none" stroke="black" points="0,-109.7 49.61,-109.7 "/>
<text text-anchor="middle" x="24.8" y="-93.1" font-family="Courier New" font-size="14.00">0&#45;3</text>
<polyline fill="none" stroke="black" points="49.61,-84.9 49.61,-134.5 "/>
<text text-anchor="middle" x="255.04" y="-117.9" font-family="Courier New" font-size="14.00">type: &lt;inherited contract&gt;.variable (bytes)</text>
<polyline fill="none" stroke="black" points="49.61,-109.7 460.47,-109.7 "/>
<text text-anchor="middle" x="255.04" y="-93.1" font-family="Courier New" font-size="14.00">LibDiamond.DiamondStorage: diamondStorage (128)</text>
</g>
<!-- 3 -->
<g id="node4" class="node">
<title>3</title>
<polygon fill="#f2f2f2" stroke="black" points="496.47,-22.7 496.47,-171.5 1410.61,-171.5 1410.61,-22.7 496.47,-22.7"/>
<text text-anchor="middle" x="953.54" y="-154.9" font-family="Courier New" font-size="14.00">LibDiamond.DiamondStorage &lt;&lt;Struct&gt;&gt;</text>
<polyline fill="none" stroke="black" points="496.47,-146.7 1410.61,-146.7 "/>
<text text-anchor="middle" x="521.27" y="-130.1" font-family="Courier New" font-size="14.00">slot</text>
<polyline fill="none" stroke="black" points="496.47,-121.9 546.08,-121.9 "/>
<text text-anchor="middle" x="521.27" y="-105.3" font-family="Courier New" font-size="14.00">0</text>
<polyline fill="none" stroke="black" points="496.47,-97.1 546.08,-97.1 "/>
<text text-anchor="middle" x="521.27" y="-80.5" font-family="Courier New" font-size="14.00">1</text>
<polyline fill="none" stroke="black" points="496.47,-72.3 546.08,-72.3 "/>
<text text-anchor="middle" x="521.27" y="-55.7" font-family="Courier New" font-size="14.00">2</text>
<polyline fill="none" stroke="black" points="496.47,-47.5 546.08,-47.5 "/>
<text text-anchor="middle" x="521.27" y="-30.9" font-family="Courier New" font-size="14.00">3</text>
<polyline fill="none" stroke="black" points="546.08,-22.7 546.08,-146.7 "/>
<text text-anchor="middle" x="978.34" y="-130.1" font-family="Courier New" font-size="14.00">type: variable (bytes)</text>
<polyline fill="none" stroke="black" points="546.08,-121.9 1410.61,-121.9 "/>
<text text-anchor="middle" x="978.34" y="-105.3" font-family="Courier New" font-size="14.00">mapping(bytes4=&gt;FacetAddressAndSelectorPosition): DiamondStorage.facetAddressAndSelectorPosition (32)</text>
<polyline fill="none" stroke="black" points="546.08,-97.1 1410.61,-97.1 "/>
<text text-anchor="middle" x="977.9" y="-80.5" font-family="Courier New" font-size="14.00">bytes4[]: DiamondStorage.selectors (32)</text>
<polyline fill="none" stroke="black" points="546.08,-72.3 1410.61,-72.3 "/>
<text text-anchor="middle" x="978.02" y="-55.7" font-family="Courier New" font-size="14.00">mapping(bytes4=&gt;bool): DiamondStorage.supportedInterfaces (32)</text>
<polyline fill="none" stroke="black" points="546.08,-47.5 1410.61,-47.5 "/>
<text text-anchor="middle" x="707.29" y="-30.9" font-family="Courier New" font-size="14.00">unallocated (12)</text>
<polyline fill="none" stroke="black" points="868.5,-22.7 868.5,-47.5 "/>
<text text-anchor="middle" x="1139.43" y="-30.9" font-family="Courier New" font-size="14.00">address: DiamondStorage.contractOwner (20)</text>
</g>
<!-- 4&#45;&gt;3 -->
<g id="edge1" class="edge">
<title>4:8&#45;&gt;3</title>
<path fill="none" stroke="black" d="M460.47,-97.1C468.99,-97.1 477.59,-97.1 486.26,-97.1"/>
<polygon fill="black" stroke="black" points="486.46,-100.6 496.46,-97.1 486.46,-93.6 486.46,-100.6"/>
</g>
<!-- 1 -->
<g id="node2" class="node">
<title>1</title>
<polygon fill="#f2f2f2" stroke="black" points="1446.61,-110.9 1446.61,-185.3 2149.12,-185.3 2149.12,-110.9 1446.61,-110.9"/>
<text text-anchor="middle" x="1797.87" y="-168.7" font-family="Courier New" font-size="14.00">FacetAddressAndSelectorPosition &lt;&lt;Struct&gt;&gt;</text>
<polyline fill="none" stroke="black" points="1446.61,-160.5 2149.12,-160.5 "/>
<text text-anchor="middle" x="1479.82" y="-143.9" font-family="Courier New" font-size="14.00">offset</text>
<polyline fill="none" stroke="black" points="1446.61,-135.7 1513.02,-135.7 "/>
<text text-anchor="middle" x="1479.82" y="-119.1" font-family="Courier New" font-size="14.00">0</text>
<polyline fill="none" stroke="black" points="1513.02,-110.9 1513.02,-160.5 "/>
<text text-anchor="middle" x="1831.07" y="-143.9" font-family="Courier New" font-size="14.00">type: variable (bytes)</text>
<polyline fill="none" stroke="black" points="1513.02,-135.7 2149.12,-135.7 "/>
<text text-anchor="middle" x="1588.23" y="-119.1" font-family="Courier New" font-size="14.00">unallocated (10)</text>
<polyline fill="none" stroke="black" points="1663.44,-110.9 1663.44,-135.7 "/>
<text text-anchor="middle" x="1789.06" y="-119.1" font-family="Courier New" font-size="14.00">uint16: selectorPosition (2)</text>
<polyline fill="none" stroke="black" points="1914.68,-110.9 1914.68,-135.7 "/>
<text text-anchor="middle" x="2031.9" y="-119.1" font-family="Courier New" font-size="14.00">address: facetAddress (20)</text>
</g>
<!-- 2 -->
<g id="node3" class="node">
<title>2</title>
<polygon fill="#f2f2f2" stroke="black" points="1512.62,-0.5 1512.62,-91.7 2083.11,-91.7 2083.11,-0.5 1512.62,-0.5"/>
<text text-anchor="middle" x="1797.87" y="-75.1" font-family="Courier New" font-size="14.00">bytes4[]: selectors &lt;&lt;Array&gt;&gt;</text>
<text text-anchor="middle" x="1797.87" y="-58.3" font-family="Courier New" font-size="14.00">0xb10e2d527612073b26eecdfd717e6a320cf44b4afac2b0732d9fcbe2b7fa0cf6</text>
<polyline fill="none" stroke="black" points="1512.62,-50.1 2083.11,-50.1 "/>
<text text-anchor="middle" x="1608.82" y="-33.5" font-family="Courier New" font-size="14.00">offset</text>
<polyline fill="none" stroke="black" points="1512.62,-25.3 1705.03,-25.3 "/>
<text text-anchor="middle" x="1608.82" y="-8.7" font-family="Courier New" font-size="14.00">0</text>
<polyline fill="none" stroke="black" points="1705.03,-0.5 1705.03,-50.1 "/>
<text text-anchor="middle" x="1893.75" y="-33.5" font-family="Courier New" font-size="14.00">type: variable (bytes)</text>
<polyline fill="none" stroke="black" points="1705.03,-25.3 2082.46,-25.3 "/>
<text text-anchor="middle" x="1811.74" y="-8.7" font-family="Courier New" font-size="14.00">unallocated (28)</text>
<polyline fill="none" stroke="black" points="1918.45,-0.5 1918.45,-25.3 "/>
<text text-anchor="middle" x="2000.46" y="-8.7" font-family="Courier New" font-size="14.00">bytes4 (4)</text>
</g>
<!-- 3&#45;&gt;1 -->
<g id="edge2" class="edge">
<title>3:3&#45;&gt;1</title>
<path fill="none" stroke="black" d="M1410.61,-109.1C1429.71,-109.1 1449.32,-109.58 1469.08,-110.43"/>
<polygon fill="black" stroke="black" points="1468.96,-113.93 1479.11,-110.89 1469.28,-106.93 1468.96,-113.93"/>
</g>
<!-- 3&#45;&gt;2 -->
<g id="edge3" class="edge">
<title>3:5&#45;&gt;2</title>
<path fill="none" stroke="black" d="M1410.54,-85.1C1440.35,-85.1 1471.38,-83.94 1502.33,-82.01"/>
<polygon fill="black" stroke="black" points="1502.62,-85.5 1512.37,-81.36 1502.17,-78.51 1502.62,-85.5"/>
</g>
</g>
</svg>
